<svg width="790" height="814" viewBox="0 0 790 814" fill="none" xmlns="http://www.w3.org/2000/svg">
<path d="M206.121 321.595C195.36 321.595 190.297 310.769 190.086 310.313C189.901 309.806 189.914 309.249 190.122 308.751C190.33 308.254 190.717 307.852 191.207 307.627C191.697 307.401 192.253 307.368 192.766 307.534C193.279 307.7 193.711 308.053 193.976 308.522C193.976 308.669 198.258 317.541 206.447 317.314C206.985 317.344 207.492 317.575 207.868 317.962C208.243 318.349 208.46 318.863 208.474 319.402C208.489 319.941 208.3 320.465 207.945 320.872C207.591 321.278 207.097 321.536 206.561 321.595H206.121Z" fill="#D2D5FF"/>
<path d="M346.764 171.249C345.828 171.254 344.892 171.194 343.964 171.07C343.686 171.029 343.419 170.933 343.178 170.788C342.937 170.643 342.727 170.452 342.56 170.226C342.393 170 342.272 169.743 342.205 169.471C342.137 169.198 342.123 168.914 342.165 168.637C342.207 168.359 342.303 168.092 342.448 167.851C342.593 167.61 342.783 167.4 343.009 167.233C343.235 167.066 343.492 166.945 343.765 166.877C344.038 166.809 344.321 166.796 344.599 166.838C344.697 166.838 354.497 168.221 358.795 161.237C358.941 160.998 359.134 160.79 359.361 160.624C359.588 160.459 359.845 160.34 360.118 160.275C360.391 160.209 360.674 160.197 360.951 160.241C361.228 160.285 361.494 160.383 361.734 160.529C361.973 160.676 362.181 160.868 362.346 161.095C362.512 161.322 362.631 161.579 362.696 161.852C362.762 162.125 362.773 162.408 362.73 162.685C362.686 162.962 362.588 163.228 362.442 163.468C358.16 170.24 350.753 171.249 346.764 171.249Z" fill="#D2D5FF"/>
<path opacity="0.6" d="M346.764 171.249C345.828 171.254 344.892 171.194 343.964 171.07C343.686 171.029 343.419 170.933 343.178 170.788C342.937 170.643 342.727 170.452 342.56 170.226C342.393 170 342.272 169.743 342.205 169.471C342.137 169.198 342.123 168.914 342.165 168.637C342.207 168.359 342.303 168.092 342.448 167.851C342.593 167.61 342.783 167.4 343.009 167.233C343.235 167.066 343.492 166.945 343.765 166.877C344.038 166.809 344.321 166.796 344.599 166.838C344.697 166.838 354.497 168.221 358.795 161.237C358.941 160.998 359.134 160.79 359.361 160.624C359.588 160.459 359.845 160.34 360.118 160.275C360.391 160.209 360.674 160.197 360.951 160.241C361.228 160.285 361.494 160.383 361.734 160.529C361.973 160.676 362.181 160.868 362.346 161.095C362.512 161.322 362.631 161.579 362.696 161.852C362.762 162.125 362.773 162.408 362.73 162.685C362.686 162.962 362.588 163.228 362.442 163.468C358.16 170.24 350.753 171.249 346.764 171.249Z" fill="white"/>
<path d="M105.169 252.78C101.038 252.639 97.0271 251.36 93.5775 249.084C93.3341 248.928 93.125 248.724 92.9628 248.485C92.8007 248.246 92.6888 247.976 92.6341 247.692C92.5793 247.408 92.5828 247.116 92.6444 246.834C92.7059 246.552 92.8243 246.285 92.9922 246.05C93.16 245.814 93.374 245.616 93.621 245.466C93.8681 245.315 94.143 245.217 94.4292 245.177C94.7154 245.136 95.0068 245.154 95.2858 245.23C95.5648 245.305 95.8255 245.437 96.0521 245.616C96.1335 245.616 104.339 251.168 111.258 246.756C111.495 246.584 111.764 246.462 112.05 246.397C112.336 246.333 112.632 246.328 112.92 246.382C113.208 246.437 113.482 246.549 113.724 246.713C113.967 246.877 114.174 247.089 114.332 247.336C114.49 247.583 114.595 247.859 114.642 248.149C114.69 248.438 114.677 248.733 114.606 249.018C114.534 249.302 114.405 249.568 114.227 249.801C114.049 250.034 113.825 250.227 113.569 250.37C111.061 251.969 108.143 252.806 105.169 252.78Z" fill="#D2D5FF"/>
<path opacity="0.6" d="M105.169 252.78C101.038 252.639 97.0271 251.36 93.5775 249.084C93.3341 248.928 93.125 248.724 92.9628 248.485C92.8007 248.246 92.6888 247.976 92.6341 247.692C92.5793 247.408 92.5828 247.116 92.6444 246.834C92.7059 246.552 92.8243 246.285 92.9922 246.05C93.16 245.814 93.374 245.616 93.621 245.466C93.8681 245.315 94.143 245.217 94.4292 245.177C94.7154 245.136 95.0068 245.154 95.2858 245.23C95.5648 245.305 95.8255 245.437 96.0521 245.616C96.1335 245.616 104.339 251.168 111.258 246.756C111.495 246.584 111.764 246.462 112.05 246.397C112.336 246.333 112.632 246.328 112.92 246.382C113.208 246.437 113.482 246.549 113.724 246.713C113.967 246.877 114.174 247.089 114.332 247.336C114.49 247.583 114.595 247.859 114.642 248.149C114.69 248.438 114.677 248.733 114.606 249.018C114.534 249.302 114.405 249.568 114.227 249.801C114.049 250.034 113.825 250.227 113.569 250.37C111.061 251.969 108.143 252.806 105.169 252.78Z" fill="white"/>
<path d="M663.622 195.686C659.498 195.575 655.483 194.336 652.014 192.104C651.548 191.782 651.228 191.289 651.126 190.731C651.024 190.174 651.147 189.599 651.469 189.133C651.79 188.667 652.284 188.347 652.841 188.245C653.398 188.143 653.973 188.266 654.44 188.588C654.521 188.588 662.742 194.123 669.661 189.727C669.898 189.576 670.161 189.474 670.437 189.425C670.713 189.376 670.996 189.382 671.27 189.443C671.543 189.503 671.802 189.617 672.032 189.777C672.262 189.938 672.457 190.142 672.608 190.378C672.759 190.615 672.862 190.878 672.91 191.154C672.959 191.43 672.953 191.713 672.893 191.987C672.832 192.26 672.719 192.519 672.558 192.749C672.397 192.979 672.193 193.174 671.957 193.325C669.466 194.904 666.57 195.724 663.622 195.686Z" fill="#D2D5FF"/>
<path opacity="0.6" d="M663.622 195.686C659.498 195.575 655.483 194.336 652.014 192.104C651.548 191.782 651.228 191.289 651.126 190.731C651.024 190.174 651.147 189.599 651.469 189.133C651.79 188.667 652.284 188.347 652.841 188.245C653.398 188.143 653.973 188.266 654.44 188.588C654.521 188.588 662.742 194.123 669.661 189.727C669.898 189.576 670.161 189.474 670.437 189.425C670.713 189.376 670.996 189.382 671.27 189.443C671.543 189.503 671.802 189.617 672.032 189.777C672.262 189.938 672.457 190.142 672.608 190.378C672.759 190.615 672.862 190.878 672.91 191.154C672.959 191.43 672.953 191.713 672.893 191.987C672.832 192.26 672.719 192.519 672.558 192.749C672.397 192.979 672.193 193.174 671.957 193.325C669.466 194.904 666.57 195.724 663.622 195.686Z" fill="white"/>
<path d="M401.807 363.842C391.827 363.842 386.39 354.172 386.145 353.732C385.871 353.235 385.805 352.65 385.963 352.105C386.12 351.56 386.487 351.1 386.984 350.826C387.48 350.552 388.065 350.486 388.61 350.643C389.155 350.801 389.616 351.168 389.89 351.664C389.89 351.795 394.774 360.325 402.914 359.495C403.458 359.476 403.989 359.665 404.4 360.023C404.81 360.38 405.07 360.881 405.126 361.423C405.181 361.964 405.03 362.507 404.701 362.941C404.372 363.375 403.89 363.668 403.353 363.76C402.865 363.809 402.328 363.842 401.807 363.842Z" fill="#D2D5FF"/>
<path opacity="0.6" d="M401.807 363.842C391.827 363.842 386.39 354.172 386.145 353.732C385.871 353.235 385.805 352.65 385.963 352.105C386.12 351.56 386.487 351.1 386.984 350.826C387.48 350.552 388.065 350.486 388.61 350.643C389.155 350.801 389.616 351.168 389.89 351.664C389.89 351.795 394.774 360.325 402.914 359.495C403.458 359.476 403.989 359.665 404.4 360.023C404.81 360.38 405.07 360.881 405.126 361.423C405.181 361.964 405.03 362.507 404.701 362.941C404.372 363.375 403.89 363.668 403.353 363.76C402.865 363.809 402.328 363.842 401.807 363.842Z" fill="white"/>
<path d="M128.612 407.326C128.094 407.321 127.595 407.128 127.208 406.783C126.822 406.437 126.575 405.962 126.513 405.447C126.451 404.933 126.579 404.413 126.872 403.986C127.166 403.558 127.605 403.252 128.108 403.125C128.205 403.125 137.762 400.602 139.064 392.495C139.109 392.218 139.208 391.952 139.355 391.714C139.503 391.475 139.696 391.268 139.923 391.104C140.151 390.94 140.408 390.822 140.681 390.758C140.954 390.693 141.237 390.683 141.514 390.728C141.791 390.773 142.056 390.872 142.295 391.02C142.534 391.167 142.741 391.36 142.905 391.587C143.069 391.815 143.186 392.073 143.251 392.346C143.315 392.619 143.325 392.901 143.281 393.178C141.539 404.102 129.638 407.147 129.133 407.277C128.961 407.309 128.787 407.326 128.612 407.326Z" fill="#D2D5FF"/>
<path opacity="0.6" d="M128.612 407.326C128.094 407.321 127.595 407.128 127.208 406.783C126.822 406.437 126.575 405.962 126.513 405.447C126.451 404.933 126.579 404.413 126.872 403.986C127.166 403.558 127.605 403.252 128.108 403.125C128.205 403.125 137.762 400.602 139.064 392.495C139.109 392.218 139.208 391.952 139.355 391.714C139.503 391.475 139.696 391.268 139.923 391.104C140.151 390.94 140.408 390.822 140.681 390.758C140.954 390.693 141.237 390.683 141.514 390.728C141.791 390.773 142.056 390.872 142.295 391.02C142.534 391.167 142.741 391.36 142.905 391.587C143.069 391.815 143.186 392.073 143.251 392.346C143.315 392.619 143.325 392.901 143.281 393.178C141.539 404.102 129.638 407.147 129.133 407.277C128.961 407.309 128.787 407.326 128.612 407.326Z" fill="black"/>
<path d="M603.988 258.934C603.455 258.952 602.935 258.77 602.53 258.424C602.125 258.078 601.864 257.592 601.799 257.064C601.733 256.535 601.868 256 602.177 255.566C602.486 255.132 602.946 254.829 603.467 254.717C603.565 254.717 613.121 252.21 614.424 244.102C614.45 243.809 614.537 243.524 614.679 243.266C614.82 243.007 615.014 242.781 615.246 242.6C615.479 242.419 615.747 242.288 616.032 242.216C616.318 242.143 616.615 242.129 616.906 242.176C617.197 242.223 617.475 242.33 617.723 242.489C617.972 242.648 618.184 242.856 618.348 243.101C618.513 243.346 618.625 243.622 618.678 243.912C618.731 244.201 618.723 244.499 618.656 244.786C616.898 255.71 604.997 258.754 604.493 258.868C604.328 258.914 604.159 258.936 603.988 258.934Z" fill="#D2D5FF"/>
<path opacity="0.6" d="M603.988 258.934C603.455 258.952 602.935 258.77 602.53 258.424C602.125 258.078 601.864 257.592 601.799 257.064C601.733 256.535 601.868 256 602.177 255.566C602.486 255.132 602.946 254.829 603.467 254.717C603.565 254.717 613.121 252.21 614.424 244.102C614.45 243.809 614.537 243.524 614.679 243.266C614.82 243.007 615.014 242.781 615.246 242.6C615.479 242.419 615.747 242.288 616.032 242.216C616.318 242.143 616.615 242.129 616.906 242.176C617.197 242.223 617.475 242.33 617.723 242.489C617.972 242.648 618.184 242.856 618.348 243.101C618.513 243.346 618.625 243.622 618.678 243.912C618.731 244.201 618.723 244.499 618.656 244.786C616.898 255.71 604.997 258.754 604.493 258.868C604.328 258.914 604.159 258.936 603.988 258.934Z" fill="black"/>
<path d="M691.461 340.105H691.102C690.581 340.008 678.502 337.794 676.011 327.081C675.946 326.805 675.937 326.519 675.984 326.24C676.031 325.96 676.134 325.693 676.285 325.454C676.437 325.214 676.634 325.007 676.867 324.845C677.099 324.683 677.362 324.569 677.639 324.509C677.915 324.447 678.2 324.439 678.479 324.487C678.758 324.535 679.024 324.638 679.263 324.789C679.502 324.94 679.709 325.137 679.871 325.369C680.034 325.6 680.15 325.861 680.211 326.137C682.067 334.114 691.77 335.905 691.868 335.905C692.38 336.015 692.835 336.308 693.147 336.73C693.458 337.152 693.605 337.673 693.559 338.195C693.513 338.718 693.277 339.205 692.897 339.566C692.516 339.927 692.017 340.136 691.493 340.154L691.461 340.105Z" fill="#D2D5FF"/>
<path d="M653.3 418.591C649.572 418.65 645.946 417.374 643.076 414.994C642.837 414.823 642.636 414.604 642.485 414.351C642.334 414.099 642.237 413.818 642.2 413.526C642.163 413.234 642.187 412.938 642.27 412.656C642.353 412.374 642.494 412.112 642.683 411.887C642.872 411.661 643.106 411.478 643.37 411.347C643.633 411.217 643.921 411.142 644.215 411.128C644.508 411.114 644.802 411.161 645.077 411.266C645.351 411.371 645.602 411.531 645.811 411.738C652.112 416.98 660.952 412.584 661.049 412.535C661.555 412.276 662.142 412.228 662.682 412.403C663.223 412.577 663.672 412.958 663.931 413.463C664.19 413.968 664.238 414.556 664.064 415.096C663.89 415.637 663.508 416.086 663.003 416.345C659.97 417.788 656.659 418.554 653.3 418.591Z" fill="#D2D5FF"/>
<path d="M553.52 151.404C553.149 151.407 552.784 151.311 552.462 151.127C552.022 150.883 541.392 144.729 542.694 133.74C542.759 133.177 543.045 132.662 543.489 132.31C543.933 131.957 544.499 131.795 545.063 131.86C545.626 131.925 546.141 132.211 546.493 132.655C546.846 133.099 547.008 133.665 546.943 134.229C546.015 142.369 554.546 147.367 554.627 147.415C555.042 147.65 555.366 148.016 555.548 148.456C555.73 148.896 555.76 149.384 555.633 149.843C555.506 150.301 555.228 150.704 554.846 150.987C554.463 151.27 553.996 151.417 553.52 151.404Z" fill="#D2D5FF"/>
<path d="M128.27 160.081C127.99 160.093 127.711 160.05 127.447 159.953C127.184 159.857 126.942 159.71 126.736 159.52C126.53 159.33 126.363 159.102 126.245 158.848C126.127 158.593 126.06 158.318 126.048 158.038C126.036 157.758 126.08 157.479 126.176 157.215C126.272 156.952 126.42 156.71 126.609 156.504C126.799 156.298 127.028 156.131 127.282 156.013C127.536 155.895 127.811 155.828 128.091 155.816C136.231 155.1 139.487 145.755 139.487 145.657C139.676 145.138 140.06 144.712 140.557 144.47C141.054 144.227 141.625 144.188 142.151 144.359C142.677 144.53 143.115 144.898 143.375 145.386C143.634 145.875 143.694 146.445 143.541 146.976C143.394 147.481 139.487 159.121 128.466 160L128.27 160.081Z" fill="#D2D5FF"/>
<path d="M287.114 224.501C281.335 227.204 276.239 240.195 277.9 258.852C279.56 277.509 240.912 264.42 235.653 285.323C226.162 323.158 289.8 345.901 316.923 323.158C333.708 309.092 349.483 262.727 347.171 237.428C344.697 210.224 302.499 191.974 287.114 224.501Z" fill="#263238"/>
<path d="M348.18 272.234C348.897 272.023 349.939 271.713 350.834 271.42L353.634 270.476C355.506 269.825 357.362 269.108 359.202 268.343C362.867 266.839 366.444 265.126 369.914 263.215C376.715 259.586 382.835 254.805 388.001 249.084C392.609 243.614 395.913 236.158 398.502 228.506C399.821 224.664 400.928 220.708 401.872 216.687C402.816 212.666 403.711 208.547 404.395 204.591L411.038 204.998C411.048 213.802 410.093 222.58 408.189 231.176C407.22 235.581 405.908 239.903 404.265 244.102C402.563 248.536 400.28 252.723 397.476 256.557C391.742 263.909 384.631 270.074 376.54 274.709C372.642 277.013 368.596 279.058 364.428 280.83C362.344 281.709 360.244 282.458 358.095 283.256C357.037 283.63 355.962 283.988 354.839 284.314C353.716 284.64 352.723 284.949 351.388 285.274L348.18 272.234Z" fill="#7F3E3B"/>
<path d="M411.005 207.228L413.772 197.281L402.783 198.128C402.783 198.128 402.002 204.64 405.795 208.563L411.005 207.228Z" fill="#7F3E3B"/>
<path d="M415.417 185.706L405.388 188.327L402.784 198.128L413.773 197.281L415.417 185.706Z" fill="#7F3E3B"/>
<path d="M335.742 274.774C340.806 270.167 353.65 266.634 353.65 266.634L367.733 287.798C367.733 287.798 351.664 298.526 344.843 296.036C337.745 293.561 331.021 279.056 335.742 274.774Z" fill="#D2D5FF"/>
<path d="M289.361 575.807L298.136 585.445L323.321 567.504L314.546 557.867L289.361 575.807Z" fill="#7F3E3B"/>
<path d="M239.837 613.886L251.607 619.731L268.913 594.35L257.143 588.506L239.837 613.886Z" fill="#7F3E3B"/>
<path d="M253.48 618.282L244.396 606.642C244.243 606.439 244.021 606.299 243.772 606.248C243.523 606.197 243.265 606.238 243.044 606.365L232.804 612.226C232.551 612.381 232.333 612.587 232.166 612.833C231.998 613.078 231.884 613.356 231.832 613.648C231.78 613.94 231.79 614.24 231.862 614.528C231.934 614.816 232.067 615.086 232.251 615.319C235.507 619.324 237.249 621.098 241.254 626.227C243.696 629.369 248.677 636.695 252.063 641.041C255.45 645.388 259.943 642.279 258.917 640.162C254.326 630.671 254.033 625.038 254.196 620.512C254.229 619.707 253.975 618.917 253.48 618.282Z" fill="#263238"/>
<path d="M300.757 585.624L294.766 571.233C294.66 570.975 294.471 570.76 294.229 570.621C293.988 570.483 293.707 570.428 293.431 570.467L280.732 572.095C280.43 572.128 280.14 572.231 279.885 572.397C279.631 572.563 279.419 572.788 279.268 573.051C279.118 573.315 279.031 573.611 279.017 573.915C279.003 574.218 279.06 574.521 279.186 574.798C281.367 579.796 282.686 582.124 285.323 588.457C286.951 592.348 290.728 602.572 292.959 607.993C295.189 613.414 300.92 612.128 300.496 609.751C298.591 599.104 299.243 592.234 300.822 588.05C300.971 587.661 301.043 587.247 301.032 586.83C301.02 586.414 300.927 586.004 300.757 585.624Z" fill="#263238"/>
<path opacity="0.2" d="M323.305 567.504L310.33 576.751L300.513 567.863L314.53 557.867L323.305 567.504Z" fill="black"/>
<path opacity="0.2" d="M257.143 588.506L268.913 594.35L259.975 607.439L248.205 601.578L257.143 588.506Z" fill="black"/>
<path d="M353.471 276.418C353.471 276.418 353.862 275.832 346.731 353.618L293.496 357.346C292.877 335.628 294.505 320.293 284.363 275.669C291.842 274.163 299.422 273.205 307.041 272.804C315.108 272.266 323.204 272.309 331.265 272.934C341.668 273.927 353.471 276.418 353.471 276.418Z" fill="#D2D5FF"/>
<path d="M288.368 288.563C284.412 286.74 280.944 284.786 277.346 282.719C273.748 280.651 270.346 278.437 266.96 276.093C260.067 271.413 253.659 266.058 247.831 260.106L245.682 257.778L245.128 257.192C244.811 256.827 244.512 256.447 244.233 256.052C243.729 255.334 243.293 254.571 242.93 253.773C241.852 251.229 241.299 248.493 241.302 245.73C241.339 241.332 241.929 236.957 243.061 232.706C245.127 224.752 247.997 217.028 251.624 209.654L257.843 212.063C256.882 215.759 255.971 219.601 255.157 223.362C254.343 227.122 253.659 230.916 253.203 234.627C252.675 238.118 252.533 241.656 252.78 245.177C252.861 246.396 253.17 247.589 253.691 248.693C253.691 248.807 253.854 248.938 253.903 248.954C253.952 248.97 253.903 248.954 253.903 248.954L254.408 249.426L256.41 251.331C261.999 256.392 267.988 260.992 274.318 265.087C277.493 267.187 280.83 269.109 284.086 271.046C287.342 272.983 290.842 274.823 294.017 276.435L288.368 288.563Z" fill="#7F3E3B"/>
<path d="M305.315 278.648C299.275 270.232 287.407 270.362 287.407 270.362L273.097 291.526C273.097 291.526 289.068 302.401 295.889 299.975C303.117 297.403 309.043 283.825 305.315 278.648Z" fill="#D2D5FF"/>
<path d="M331.266 272.934L307.041 272.804C303.329 274.302 301.18 283.956 325.763 292.128C342.808 282.442 333.74 273.83 331.266 272.934Z" fill="white"/>
<path d="M309.581 245.535C311.062 253.333 312.511 267.627 307.041 272.804C307.041 272.804 309.157 280.732 325.763 292.128C337.403 280.456 331.266 272.934 331.266 272.934C322.588 270.802 322.849 264.355 324.395 258.282L309.581 245.535Z" fill="#7F3E3B"/>
<path d="M359.788 322.963H359.528C358.669 322.892 357.873 322.484 357.315 321.828C356.756 321.172 356.481 320.321 356.548 319.462C357.134 312.202 351.664 306.715 345.38 300.35C338.168 293.073 329.979 284.819 329.654 271.974C329.632 271.11 329.954 270.273 330.55 269.648C331.145 269.022 331.965 268.658 332.828 268.636C333.692 268.615 334.529 268.937 335.154 269.532C335.78 270.128 336.144 270.947 336.166 271.811C336.426 282.067 343.329 289.035 350.004 295.775C356.679 302.515 363.858 309.743 363.028 319.983C362.958 320.795 362.587 321.552 361.987 322.103C361.388 322.655 360.603 322.962 359.788 322.963Z" fill="#7D4ED4"/>
<path d="M312.202 339.438C311.938 339.437 311.676 339.404 311.42 339.34C310.583 339.133 309.862 338.601 309.417 337.862C308.971 337.124 308.837 336.238 309.043 335.401C312.185 322.637 308.067 312.609 303.704 302.059C299.796 292.584 295.759 282.784 297.713 271.323C297.881 270.493 298.367 269.761 299.066 269.283C299.765 268.805 300.623 268.618 301.457 268.762C302.292 268.906 303.037 269.37 303.536 270.055C304.034 270.739 304.246 271.591 304.127 272.43C302.499 282.035 305.999 290.566 309.711 299.585C314.074 310.15 319.007 322.132 315.36 337.029C315.173 337.722 314.762 338.335 314.191 338.771C313.62 339.207 312.92 339.441 312.202 339.438Z" fill="#7D4ED4"/>
<path opacity="0.2" d="M321.335 255.596L314.823 256.361C315.138 258.114 315.767 259.796 316.679 261.327C317.965 263.264 320.83 264.11 323.663 264.192C323.659 262.178 323.933 260.173 324.477 258.233L321.335 255.596Z" fill="black"/>
<path d="M295.173 237.688C299.943 249.833 301.685 255.075 310.004 259.405C322.507 265.917 336.377 257.436 335.336 244.119C334.408 232.12 326.772 214.277 313.048 213.268C310.026 213.032 306.993 213.573 304.239 214.838C301.484 216.103 299.098 218.052 297.307 220.498C295.517 222.944 294.381 225.807 294.007 228.816C293.634 231.824 294.035 234.878 295.173 237.688Z" fill="#7F3E3B"/>
<path d="M308.246 211.51C317.509 217.208 309.581 250.728 293.903 248.954C278.225 247.179 294.554 203.093 308.246 211.51Z" fill="#263238"/>
<path d="M307.904 211.64C300.92 216.28 305.69 224.355 329.231 219.568C329.231 219.552 319.495 203.923 307.904 211.64Z" fill="#263238"/>
<path d="M296.866 249.491C297.895 251.792 299.791 253.593 302.141 254.505C305.283 255.677 307.122 252.877 306.504 249.833C305.934 247.049 303.622 243.06 300.366 243.223C299.655 243.271 298.966 243.496 298.364 243.877C297.761 244.259 297.263 244.785 296.916 245.407C296.568 246.03 296.381 246.73 296.373 247.443C296.364 248.156 296.534 248.86 296.866 249.491Z" fill="#7F3E3B"/>
<path d="M346.764 353.618C346.764 353.618 375.254 446.625 377.55 486.642C379.926 528.27 318.111 577.663 318.111 577.663L302.727 560.781C302.727 560.781 352.95 518.127 346.064 487.228C336.54 444.639 307.692 356.353 307.692 356.353L346.764 353.618Z" fill="#7D4ED4"/>
<path opacity="0.2" d="M329.003 384.062C326.398 375.922 320.602 381.392 318.583 390.02C322.605 403.044 327.261 418.282 331.689 433.536C333.398 420.024 334.098 400.016 329.003 384.062Z" fill="black"/>
<path d="M298.559 559.967L318.079 580.105L326.414 575.498L305.787 553.048L298.559 559.967Z" fill="#D2D5FF"/>
<path d="M332.682 354.611C332.682 354.611 324.542 445.779 316.402 496.556C309.809 537.582 265.022 604.59 265.022 604.59L248.612 596.955C248.612 596.955 278.714 525.209 283.402 497.322C298.445 408.058 278.128 382.303 293.512 357.314L332.682 354.611Z" fill="#7D4ED4"/>
<path d="M247.456 597.134L265.966 606.218L272.039 598.681L250.386 588.473L247.456 597.134Z" fill="#D2D5FF"/>
<path d="M292.487 354.285L290.419 359.169C290.256 359.544 290.712 359.902 291.331 359.853L347.171 355.946C347.643 355.946 348.034 355.653 348.034 355.344L348.18 350.46C348.18 350.134 347.757 349.89 347.236 349.922L293.317 353.699C293.136 353.706 292.962 353.764 292.814 353.869C292.667 353.973 292.553 354.118 292.487 354.285Z" fill="white"/>
<path d="M300.138 359.788L298.706 359.886C298.412 359.886 298.185 359.772 298.185 359.593L298.429 353.357C298.429 353.178 298.689 352.999 298.966 352.983L300.415 352.885C300.708 352.885 300.936 352.999 300.92 353.178L300.675 359.414C300.675 359.625 300.431 359.788 300.138 359.788Z" fill="#263238"/>
<path d="M343.15 356.793L341.701 356.89C341.408 356.89 341.18 356.776 341.196 356.597L341.441 350.362C341.441 350.183 341.685 350.02 341.978 349.988L343.41 349.89C343.703 349.89 343.931 350.004 343.931 350.183L343.687 356.434C343.671 356.614 343.508 356.776 343.15 356.793Z" fill="#263238"/>
<path d="M321.644 358.307L320.195 358.404C319.918 358.404 319.69 358.29 319.69 358.111L319.935 351.86C319.935 351.681 320.179 351.518 320.472 351.501L321.921 351.404C322.197 351.404 322.425 351.518 322.425 351.697L322.181 357.932C322.181 358.16 321.937 358.274 321.644 358.307Z" fill="#263238"/>
<path d="M314.79 233.13C314.009 233.39 313.683 234.562 314.074 235.767L316.923 234.855C316.532 233.65 315.572 232.804 314.79 233.13Z" fill="#263238"/>
<path d="M327.228 229.19C326.43 229.45 326.105 230.639 326.495 231.843L329.361 230.915C328.856 229.711 327.928 228.946 327.228 229.19Z" fill="#263238"/>
<path d="M326.821 229.369L329.442 227.611C329.442 227.611 328.693 230.346 326.821 229.369Z" fill="#263238"/>
<path d="M323.972 234.106C325.609 236.117 327.515 237.892 329.637 239.381C329.244 239.915 328.739 240.357 328.156 240.675C327.574 240.992 326.93 241.179 326.268 241.221L323.972 234.106Z" fill="#630F0F"/>
<path d="M324.167 246.284C324.215 246.242 324.25 246.188 324.267 246.127C324.284 246.067 324.284 246.002 324.265 245.942C324.239 245.864 324.183 245.8 324.11 245.763C324.037 245.727 323.952 245.721 323.874 245.747C322.629 246.178 321.3 246.311 319.994 246.136C318.688 245.96 317.441 245.481 316.353 244.737C316.324 244.708 316.29 244.685 316.252 244.669C316.215 244.654 316.174 244.646 316.133 244.646C316.092 244.646 316.052 244.654 316.014 244.669C315.977 244.685 315.942 244.708 315.914 244.737C315.882 244.765 315.857 244.798 315.84 244.836C315.823 244.874 315.814 244.915 315.814 244.957C315.814 244.999 315.823 245.04 315.84 245.078C315.857 245.115 315.882 245.149 315.914 245.177C317.077 246.01 318.426 246.55 319.843 246.748C321.261 246.947 322.706 246.798 324.054 246.316L324.167 246.284Z" fill="#263238"/>
<path d="M310.671 232.397C310.754 232.328 310.816 232.238 310.85 232.137C311.074 231.379 311.478 230.687 312.029 230.12C312.579 229.553 313.258 229.127 314.009 228.881C314.088 228.861 314.162 228.827 314.228 228.779C314.294 228.731 314.349 228.67 314.392 228.601C314.434 228.531 314.462 228.454 314.475 228.373C314.487 228.293 314.484 228.211 314.465 228.132C314.445 228.053 314.411 227.978 314.363 227.912C314.315 227.847 314.254 227.791 314.184 227.749C314.115 227.706 314.038 227.678 313.957 227.666C313.877 227.653 313.795 227.657 313.716 227.676C312.772 227.973 311.913 228.492 311.211 229.188C310.509 229.885 309.983 230.74 309.678 231.681C309.627 231.836 309.639 232.006 309.712 232.152C309.785 232.299 309.914 232.41 310.069 232.462C310.166 232.507 310.273 232.525 310.379 232.514C310.485 232.502 310.586 232.462 310.671 232.397Z" fill="#263238"/>
<path d="M330.175 224.355C330.209 224.336 330.238 224.308 330.256 224.273C330.308 224.21 330.347 224.136 330.371 224.057C330.394 223.978 330.401 223.895 330.392 223.813C330.383 223.731 330.358 223.652 330.318 223.58C330.277 223.508 330.223 223.445 330.158 223.394C329.397 222.764 328.496 222.325 327.53 222.112C326.565 221.9 325.563 221.921 324.607 222.173C324.528 222.199 324.455 222.24 324.393 222.294C324.33 222.349 324.279 222.415 324.243 222.49C324.206 222.564 324.185 222.645 324.181 222.728C324.176 222.81 324.188 222.893 324.216 222.971C324.272 223.124 324.384 223.249 324.529 223.322C324.674 223.395 324.842 223.409 324.998 223.362C325.755 223.167 326.548 223.157 327.31 223.333C328.072 223.508 328.781 223.865 329.377 224.371C329.49 224.463 329.633 224.512 329.779 224.509C329.925 224.506 330.065 224.451 330.175 224.355Z" fill="#263238"/>
<path d="M264.957 214.456C264.562 214.456 264.174 214.349 263.834 214.147L214.31 183.638C213.876 183.319 213.578 182.847 213.475 182.318C213.372 181.789 213.472 181.24 213.755 180.781C214.038 180.322 214.483 179.986 215.002 179.84C215.521 179.694 216.076 179.748 216.557 179.992L266.08 210.5C266.48 210.743 266.788 211.109 266.959 211.544C267.13 211.979 267.153 212.457 267.026 212.906C266.898 213.356 266.627 213.751 266.253 214.031C265.879 214.311 265.424 214.46 264.957 214.456Z" fill="#D2D5FF"/>
<path d="M225.527 187.008C228.311 186.894 231.176 186.764 231.55 184.257C231.925 181.75 229.239 180.789 226.666 179.845L225.966 179.585C225.966 179.34 225.853 179.096 225.787 178.868L226.357 178.233C228.181 176.215 230.085 174.131 228.604 172.145C227.122 170.159 224.583 171.331 222.092 172.487L221.327 172.845C221.115 172.698 220.903 172.584 220.675 172.454C220.448 172.324 220.675 171.933 220.675 171.705C220.545 168.938 220.415 166.072 217.924 165.698C215.433 165.323 214.456 168.01 213.512 170.582C213.431 170.793 213.349 171.038 213.252 171.282L212.519 171.461L211.901 170.907C209.882 169.068 207.798 167.179 205.812 168.645C203.826 170.11 204.998 172.666 206.154 175.157L206.512 175.922C206.37 176.126 206.239 176.338 206.121 176.557H205.372C202.605 176.687 199.723 176.817 199.349 179.324C198.974 181.831 201.677 182.792 204.233 183.736L204.933 183.997C204.933 184.241 205.047 184.485 205.112 184.713C204.916 184.941 204.721 185.169 204.542 185.348C202.719 187.367 200.83 189.434 202.295 191.437C203.761 193.439 206.316 192.234 208.807 191.095L209.589 190.736L210.224 191.127C210.224 191.388 210.224 191.648 210.224 191.876C210.354 194.644 210.484 197.509 212.975 197.883C215.466 198.258 216.459 195.572 217.403 192.999C217.403 192.804 217.566 192.56 217.647 192.299C217.895 192.255 218.14 192.195 218.38 192.12L219.015 192.69C221.017 194.513 223.101 196.418 225.104 194.953C227.106 193.488 225.901 190.932 224.745 188.441C224.648 188.229 224.518 187.953 224.404 187.676L224.794 187.041L225.527 187.008Z" fill="#D2D5FF"/>
<path opacity="0.7" d="M225.527 187.008C228.311 186.894 231.176 186.764 231.55 184.257C231.925 181.75 229.239 180.789 226.666 179.845L225.966 179.585C225.966 179.34 225.853 179.096 225.787 178.868L226.357 178.233C228.181 176.215 230.085 174.131 228.604 172.145C227.122 170.159 224.583 171.331 222.092 172.487L221.327 172.845C221.115 172.698 220.903 172.584 220.675 172.454C220.448 172.324 220.675 171.933 220.675 171.705C220.545 168.938 220.415 166.072 217.924 165.698C215.433 165.323 214.456 168.01 213.512 170.582C213.431 170.793 213.349 171.038 213.252 171.282L212.519 171.461L211.901 170.907C209.882 169.068 207.798 167.179 205.812 168.645C203.826 170.11 204.998 172.666 206.154 175.157L206.512 175.922C206.37 176.126 206.239 176.338 206.121 176.557H205.372C202.605 176.687 199.723 176.817 199.349 179.324C198.974 181.831 201.677 182.792 204.233 183.736L204.933 183.997C204.933 184.241 205.047 184.485 205.112 184.713C204.916 184.941 204.721 185.169 204.542 185.348C202.719 187.367 200.83 189.434 202.295 191.437C203.761 193.439 206.316 192.234 208.807 191.095L209.589 190.736L210.224 191.127C210.224 191.388 210.224 191.648 210.224 191.876C210.354 194.644 210.484 197.509 212.975 197.883C215.466 198.258 216.459 195.572 217.403 192.999C217.403 192.804 217.566 192.56 217.647 192.299C217.895 192.255 218.14 192.195 218.38 192.12L219.015 192.69C221.017 194.513 223.101 196.418 225.104 194.953C227.106 193.488 225.901 190.932 224.745 188.441C224.648 188.229 224.518 187.953 224.404 187.676L224.794 187.041L225.527 187.008Z" fill="white"/>
<path d="M250.175 214.977L248.14 201.953L261.424 208.465C260.924 210.658 259.792 212.656 258.168 214.212C257.5 214.973 256.631 215.53 255.66 215.818C254.689 216.106 253.657 216.114 252.682 215.84L250.175 214.977Z" fill="#7F3E3B"/>
<path d="M255.596 195.572L262.401 201.546L261.424 208.384L248.14 201.937L255.596 195.572Z" fill="#7F3E3B"/>
<path d="M257.745 624.517C257.883 624.418 258.014 624.31 258.136 624.192C258.275 624.065 258.378 623.902 258.432 623.722C258.487 623.541 258.491 623.349 258.445 623.166C258.054 621.538 253.561 619.91 253.056 619.796C253.001 619.772 252.939 619.767 252.88 619.782C252.821 619.796 252.769 619.83 252.731 619.877C252.697 619.928 252.679 619.988 252.679 620.048C252.679 620.109 252.697 620.169 252.731 620.219C253.463 621.847 254.929 624.517 256.573 624.794C256.985 624.855 257.404 624.756 257.745 624.517ZM253.561 620.643C255.336 621.31 257.631 622.45 257.843 623.312C257.858 623.394 257.851 623.477 257.822 623.555C257.793 623.632 257.744 623.7 257.68 623.752C257.556 623.91 257.393 624.033 257.208 624.11C257.023 624.187 256.821 624.215 256.622 624.192C255.726 624.029 254.619 622.726 253.561 620.643Z" fill="#D2D5FF"/>
<path d="M258.575 620.17C258.682 620.106 258.775 620.024 258.852 619.926C259.011 619.734 259.098 619.492 259.098 619.242C259.098 618.993 259.011 618.751 258.852 618.559C258.731 618.353 258.566 618.176 258.369 618.041C258.172 617.906 257.948 617.816 257.713 617.777C255.84 617.435 252.829 619.747 252.715 619.845C252.672 619.88 252.64 619.925 252.62 619.977C252.6 620.028 252.593 620.083 252.601 620.138C252.61 620.189 252.631 620.238 252.662 620.281C252.693 620.323 252.733 620.358 252.78 620.382C254.673 621.016 256.733 620.941 258.575 620.17ZM253.691 619.926C254.806 619.017 256.179 618.482 257.615 618.396C257.765 618.414 257.908 618.468 258.032 618.553C258.157 618.638 258.259 618.751 258.331 618.884C258.543 619.226 258.445 619.405 258.331 619.519C257.745 620.219 255.075 620.349 253.594 619.975L253.691 619.926Z" fill="#D2D5FF"/>
<path d="M301.05 592.999C301.381 594.018 302.025 594.907 302.889 595.539C303.133 595.682 303.405 595.77 303.687 595.795C303.969 595.821 304.252 595.783 304.517 595.685C304.676 595.641 304.819 595.553 304.931 595.433C305.043 595.312 305.12 595.163 305.152 595.001C305.494 593.373 301.229 589.352 300.366 588.489C300.313 588.454 300.251 588.436 300.187 588.436C300.123 588.436 300.061 588.454 300.008 588.489C299.951 588.52 299.906 588.568 299.879 588.627C299.853 588.686 299.847 588.752 299.861 588.815C300.102 590.249 300.5 591.653 301.05 592.999ZM304.436 594.22C304.528 594.407 304.568 594.615 304.55 594.822C304.55 594.904 304.55 594.985 304.322 595.05C304.132 595.123 303.928 595.153 303.725 595.136C303.522 595.119 303.325 595.056 303.15 594.953C302.157 594.367 301.245 592.413 300.659 589.645C302.142 590.971 303.415 592.513 304.436 594.22Z" fill="#D2D5FF"/>
<path d="M299.926 588.929C299.922 588.961 299.922 588.994 299.926 589.027C301.261 590.378 305.25 592.559 306.536 591.81C306.813 591.648 307.106 591.29 306.878 590.508C306.048 587.513 300.366 588.457 300.089 588.506C300.032 588.513 299.979 588.537 299.935 588.575C299.892 588.612 299.861 588.662 299.845 588.717C299.846 588.795 299.875 588.87 299.926 588.929ZM306.276 590.476L306.357 590.671C306.357 590.997 306.357 591.192 306.357 591.273C305.608 591.697 302.596 590.296 301.001 589.027C302.336 588.88 305.559 588.75 306.276 590.476Z" fill="#D2D5FF"/>
<path d="M314.465 233.309L317.086 231.534C317.086 231.534 316.337 234.285 314.465 233.309Z" fill="#263238"/>
<path d="M527.293 659.78L514.676 659.796L511.273 630.59L523.89 630.573L527.293 659.78Z" fill="#FFC3BD"/>
<path d="M635.897 605.567L626.34 613.821L604.704 593.911L614.244 585.657L635.897 605.567Z" fill="#FFC3BD"/>
<path d="M624.484 613.495L636.108 603.434C636.298 603.277 636.537 603.191 636.784 603.191C637.031 603.191 637.27 603.277 637.46 603.434L646.316 610.5C646.532 610.682 646.705 610.909 646.824 611.164C646.943 611.42 647.005 611.699 647.005 611.981C647.005 612.264 646.943 612.542 646.824 612.798C646.705 613.054 646.532 613.281 646.316 613.463C642.523 616.638 639.609 618.77 634.92 622.84C632.022 625.347 623.524 633.227 619.519 636.694C615.514 640.162 611.721 636.499 613.007 634.708C619.031 626.699 622.775 619.6 623.361 615.384C623.505 614.643 623.903 613.976 624.484 613.495Z" fill="#263238"/>
<path d="M514.757 658.331H528.546C528.797 658.332 529.039 658.418 529.234 658.574C529.429 658.731 529.566 658.949 529.621 659.193L532.128 670.41C532.189 670.681 532.189 670.962 532.126 671.232C532.064 671.502 531.941 671.754 531.767 671.97C531.594 672.186 531.373 672.36 531.123 672.479C530.872 672.598 530.598 672.659 530.321 672.657C525.339 672.576 518.16 672.299 511.908 672.299C504.615 672.299 500.333 672.494 491.77 672.51C486.593 672.51 485.144 667.285 487.309 666.812C497.175 664.631 503.198 664.615 511.729 659.34C512.625 658.728 513.674 658.379 514.757 658.331Z" fill="#263238"/>
<path d="M473.748 297.126C471.208 296.149 469.027 295.254 466.748 294.212C464.468 293.17 462.271 292.144 460.056 291.054C455.639 288.883 451.298 286.463 447.032 283.793C442.74 281.162 438.613 278.27 434.676 275.132C433.683 274.318 432.674 273.504 431.697 272.674L428.799 270.02C427.838 269.141 426.927 268.131 425.999 267.187C425.527 266.666 425.12 266.292 424.582 265.673C424.045 265.054 423.524 264.452 423.052 263.833C421.272 261.48 419.759 258.935 418.542 256.247C417.411 253.792 416.448 251.263 415.661 248.677C414.165 243.794 413.076 238.795 412.405 233.732C411.121 223.985 410.875 214.129 411.672 204.33H421.147C421.798 208.742 422.482 213.382 423.378 217.842C424.273 222.303 425.217 226.764 426.373 231.062C427.466 235.26 428.848 239.378 430.508 243.386C431.886 246.93 433.827 250.228 436.255 253.154L437.053 253.968C437.297 254.228 437.785 254.619 438.144 254.945C438.925 255.612 439.641 256.312 440.472 256.947C442.1 258.249 443.728 259.536 445.551 260.773C449.067 263.215 452.779 265.543 456.654 267.724C460.529 269.906 464.485 271.973 468.506 273.927C470.524 274.92 472.559 275.897 474.594 276.809C476.629 277.72 478.762 278.681 480.586 279.462L473.748 297.126Z" fill="#FFC3BD"/>
<path d="M475.767 307.871C468.582 303.405 461.796 298.328 455.482 292.698L460.512 266.992C469.866 269.653 479.375 271.73 488.986 273.211C504.859 275.262 487.081 314.611 475.767 307.871Z" fill="#7D4ED4"/>
<path d="M421.473 206.544L422.368 190.476L409.019 194.758C409.019 194.758 405.909 206.268 414.57 209.296L421.473 206.544Z" fill="#FFC3BD"/>
<path d="M420.757 181.831L409.735 186.422L409.019 194.757L422.368 190.476L420.757 181.831Z" fill="#FFC3BD"/>
<path opacity="0.2" d="M511.29 630.59L513.032 645.649L525.649 645.632L523.907 630.573L511.29 630.59Z" fill="black"/>
<path opacity="0.2" d="M614.261 585.657L604.704 593.911L615.872 604.167L625.412 595.913L614.261 585.657Z" fill="black"/>
<path d="M537.501 272.69C537.529 271.796 537.38 270.906 537.062 270.071C536.745 269.235 536.265 268.47 535.65 267.821C535.036 267.172 534.299 266.651 533.482 266.288C532.665 265.925 531.785 265.727 530.891 265.706C494.88 265.038 471.453 275.132 469.841 275.783C469.24 276.026 468.71 276.418 468.303 276.922C467.896 277.426 467.624 278.026 467.513 278.665C466.015 287.684 461.766 325.486 482.588 384.647L549.336 375.091C548.441 365.242 536.003 320.048 537.501 272.69Z" fill="#7D4ED4"/>
<path d="M483.516 271.241C479.56 276.532 477.769 288.726 490.875 297.647C506.992 285.616 515.295 272.674 517.753 265.934C506.188 266.514 494.714 268.292 483.516 271.241Z" fill="white"/>
<path d="M480.521 276.19C479.657 276.19 478.829 275.847 478.218 275.236C477.608 274.626 477.265 273.798 477.265 272.934C477.265 270.248 479.593 267.936 481.562 266.422C488.172 261.538 501.098 257.81 517.378 262.515C518.178 262.779 518.845 263.343 519.238 264.088C519.631 264.833 519.72 265.702 519.486 266.511C519.252 267.32 518.714 268.008 517.984 268.428C517.253 268.849 516.389 268.97 515.571 268.766C496.687 263.313 485.046 271.062 483.793 273.292C483.704 274.095 483.32 274.836 482.715 275.372C482.11 275.907 481.328 276.199 480.521 276.19Z" fill="#D2D5FF"/>
<path d="M507.578 234.985C507.089 244.379 507.692 261.375 514.953 266.552C510.687 272.202 505.006 278.828 494.212 280.765C487.7 281.921 485.47 279.511 485.193 276.467C485.101 274.998 485.426 273.534 486.128 272.241C486.831 270.948 487.883 269.879 489.165 269.157C496.182 265.087 494.782 258.543 492.258 252.356L507.578 234.985Z" fill="#FFC3BD"/>
<path d="M479.527 350.883C479.16 350.881 478.797 350.815 478.453 350.687C477.639 350.4 476.973 349.801 476.601 349.023C476.228 348.244 476.18 347.35 476.467 346.536C476.919 345.397 477.129 344.176 477.084 342.951C477.039 341.727 476.74 340.525 476.206 339.422L475.864 338.494C475.309 337.4 474.571 336.409 473.683 335.563C471.778 334.035 470.46 331.896 469.953 329.507C469.445 327.119 469.78 324.628 470.899 322.458C471.3 321.529 471.536 320.537 471.599 319.527C471.288 318.368 470.788 317.268 470.118 316.271C468.774 314.35 467.98 312.099 467.822 309.759C468.006 307.313 468.894 304.973 470.378 303.02C470.938 302.279 471.377 301.455 471.68 300.578C471.692 299.672 471.515 298.774 471.159 297.94C470.377 296.09 470.183 294.043 470.606 292.079C471.267 289.865 472.626 287.923 474.481 286.544C475.004 286.148 475.461 285.67 475.832 285.128C476.064 284.342 476.064 283.505 475.832 282.718C475.337 280.833 475.6 278.828 476.564 277.134C477.704 275.344 477.59 274.888 477.492 274.513C477.328 273.942 477.256 273.349 477.281 272.755C477.281 271.891 477.624 271.063 478.234 270.453C478.845 269.842 479.673 269.499 480.537 269.499C481.4 269.499 482.228 269.842 482.839 270.453C483.45 271.063 483.793 271.891 483.793 272.755V272.853C484.249 274.692 484.379 276.89 482.165 280.488C482.192 280.87 482.24 281.251 482.311 281.628C482.802 283.418 482.729 285.316 482.103 287.064C481.477 288.812 480.327 290.324 478.811 291.396C477.769 292.307 477.183 292.861 476.955 293.659C476.922 294.411 477.073 295.16 477.395 295.84C478.086 297.581 478.36 299.46 478.192 301.326C477.832 303.197 477.053 304.961 475.913 306.487C475.158 307.439 474.634 308.554 474.383 309.743C474.646 310.883 475.127 311.961 475.799 312.918C476.97 314.667 477.763 316.641 478.127 318.713C478.218 320.673 477.879 322.629 477.134 324.444C476.604 325.602 476.353 326.867 476.402 328.14C476.915 329.269 477.651 330.282 478.567 331.119C480.074 332.592 481.269 334.352 482.083 336.296L482.376 337.142C483.979 340.782 484.078 344.907 482.653 348.62C482.441 349.281 482.024 349.857 481.462 350.264C480.899 350.671 480.222 350.888 479.527 350.883Z" fill="#D2D5FF"/>
<path d="M536.898 272.153C538.672 273.781 540.154 275.148 541.652 276.711C543.149 278.274 544.615 279.788 546.064 281.351C548.961 284.477 551.696 287.765 554.334 291.119C559.828 298.07 564.428 305.683 568.025 313.781C568.932 315.946 569.725 318.158 570.402 320.407C570.744 321.546 571.037 322.735 571.314 323.939L571.412 324.379L571.558 325.144C571.656 325.649 571.705 326.186 571.753 326.772C571.832 327.858 571.799 328.949 571.656 330.028C571.415 331.974 570.825 333.86 569.914 335.596C569.152 337.041 568.229 338.396 567.162 339.633C565.398 341.648 563.366 343.412 561.123 344.875C557.295 347.381 553.172 349.404 548.847 350.899C546.796 351.648 544.729 352.283 542.645 352.82C540.561 353.357 538.542 353.862 536.279 354.236L533.349 345.234C534.977 344.322 536.719 343.361 538.363 342.385C540.007 341.408 541.619 340.382 543.247 339.356C546.274 337.444 549.123 335.264 551.762 332.844C552.773 331.869 553.664 330.776 554.415 329.588C554.985 328.66 554.936 328.042 554.773 328.237C554.761 328.291 554.761 328.346 554.773 328.4L554.676 328.107C554.432 327.358 554.204 326.593 553.878 325.811C553.275 324.223 552.585 322.668 551.81 321.155C550.176 317.94 548.315 314.844 546.243 311.892C544.175 308.831 541.896 305.836 539.486 302.906C537.077 299.975 534.602 297.094 531.981 294.245C530.695 292.828 529.377 291.444 528.042 290.077C526.707 288.709 525.307 287.277 524.118 286.137L536.898 272.153Z" fill="#FFC3BD"/>
<path d="M532.698 265.983C540.056 267.073 551.599 285.519 551.599 285.519L532.861 310.639C532.861 310.639 522.865 301.115 519.951 292.731C514.448 276.646 518.241 263.866 532.698 265.983Z" fill="#7D4ED4"/>
<path d="M522.881 329.214C522.316 329.208 521.762 329.054 521.273 328.769C520.785 328.483 520.38 328.076 520.097 327.586C518.978 325.397 518.493 322.938 518.697 320.488C518.784 319.476 518.696 318.458 518.437 317.476C517.784 316.465 516.964 315.573 516.011 314.839C514.136 313.444 512.678 311.564 511.794 309.401C511.19 307.024 511.298 304.522 512.104 302.206C512.4 301.323 512.559 300.401 512.576 299.47C512.166 298.354 511.572 297.313 510.818 296.394C509.14 294.67 508.158 292.387 508.059 289.984C507.96 287.581 508.751 285.226 510.28 283.37C510.722 282.706 511.078 281.99 511.339 281.237C511.254 280.001 510.956 278.79 510.459 277.655C509.529 275.735 509.211 273.576 509.548 271.469C510.155 268.472 511.667 265.734 513.878 263.622L514.09 263.41C514.698 262.833 515.504 262.513 516.342 262.515C517.18 262.518 517.985 262.843 518.589 263.424C519.193 264.005 519.55 264.797 519.585 265.634C519.62 266.471 519.332 267.29 518.778 267.92L518.404 268.294C517.073 269.577 516.179 271.246 515.848 273.064C516.024 273.881 516.269 274.682 516.581 275.457C517.435 277.43 517.862 279.56 517.834 281.709C517.581 283.492 516.918 285.191 515.897 286.674C515.192 287.635 514.728 288.752 514.546 289.93C514.929 290.938 515.48 291.873 516.174 292.698C517.489 294.332 518.449 296.223 518.99 298.249C519.239 300.138 519.055 302.059 518.453 303.866C518.04 305.012 517.89 306.236 518.013 307.448C518.632 308.446 519.432 309.318 520.374 310.02C522.029 311.322 523.398 312.951 524.395 314.806C525.099 316.636 525.388 318.598 525.242 320.553C525.121 321.821 525.282 323.099 525.714 324.297C526.155 325.038 526.285 325.924 526.075 326.76C525.864 327.596 525.33 328.315 524.59 328.758C524.074 329.065 523.482 329.223 522.881 329.214Z" fill="#D2D5FF"/>
<path opacity="0.2" d="M501.326 242.067L492.275 252.34C492.957 253.918 493.502 255.552 493.903 257.224C497.712 256.101 502.45 251.07 502.287 246.935C502.261 245.268 501.936 243.619 501.326 242.067Z" fill="black"/>
<path d="M482.295 208.27C478.274 215.27 480.846 225.234 480.846 225.234C481.925 225.935 483.171 226.335 484.457 226.392C485.742 226.449 487.019 226.162 488.156 225.559L487.016 207L482.295 208.27Z" fill="#263238"/>
<path d="M513.992 226.048C510.915 238.193 509.727 245.454 502.336 250.582C491.216 258.298 477.118 249.8 476.516 236.988C475.962 225.445 481.09 207.537 494.049 204.933C496.9 204.342 499.854 204.491 502.631 205.364C505.408 206.238 507.915 207.808 509.914 209.924C511.913 212.041 513.337 214.633 514.051 217.455C514.764 220.278 514.744 223.236 513.992 226.048Z" fill="#FFC3BD"/>
<path d="M478.534 240.179H478.095L450.5 234.334C449 234.017 447.687 233.117 446.85 231.831C446.014 230.546 445.722 228.981 446.039 227.48C446.357 225.98 447.257 224.667 448.542 223.831C449.828 222.994 451.393 222.702 452.893 223.02C453.166 223.078 453.425 223.189 453.655 223.347C453.885 223.506 454.081 223.708 454.232 223.943C454.384 224.177 454.487 224.439 454.537 224.714C454.586 224.989 454.581 225.27 454.521 225.543C454.4 226.092 454.067 226.572 453.595 226.877C453.122 227.181 452.548 227.287 451.998 227.171C451.804 227.124 451.602 227.119 451.405 227.155C451.209 227.191 451.023 227.269 450.858 227.383C450.693 227.49 450.55 227.628 450.439 227.79C450.327 227.952 450.248 228.135 450.207 228.327C450.135 228.72 450.211 229.126 450.419 229.467C450.644 229.791 450.98 230.022 451.363 230.118L478.958 235.962C479.47 236.074 479.924 236.371 480.232 236.796C480.54 237.221 480.68 237.745 480.625 238.267C480.571 238.789 480.326 239.273 479.937 239.626C479.548 239.978 479.043 240.175 478.518 240.179H478.534Z" fill="#D2D5FF"/>
<path d="M478.42 240.667L475.083 239.951L476.141 235.067L479.397 235.767C480.055 235.907 480.631 236.304 480.997 236.868C481.364 237.433 481.491 238.12 481.351 238.779C481.189 239.404 480.797 239.945 480.254 240.295C479.711 240.645 479.057 240.778 478.42 240.667Z" fill="white"/>
<path d="M506.454 219.373C506.454 214.749 502.971 211.38 491.347 212.275C481.855 212.991 477.232 208.563 479.951 202.393C487.635 206.398 486.365 201.156 501.017 200.521C515.669 199.886 519.918 205.405 521.465 213.984C530.435 227.285 514.953 232.804 514.953 232.804L508.896 238.095C507.642 238.38 506.333 238.324 505.108 237.931C503.882 237.539 502.785 236.825 501.929 235.865C501.929 235.865 500.74 225.071 506.454 219.373Z" fill="#263238"/>
<path d="M490.891 198.225L490.516 198.421C490.168 198.606 489.875 198.88 489.666 199.215C489.457 199.55 489.34 199.934 489.327 200.328C489.314 200.723 489.405 201.114 489.591 201.462C489.777 201.81 490.051 202.103 490.386 202.311L524.379 223.329C524.698 223.525 525.062 223.638 525.437 223.657C525.811 223.677 526.184 223.602 526.523 223.44C526.861 223.278 527.153 223.034 527.373 222.731C527.593 222.427 527.733 222.073 527.781 221.701C527.94 220.651 527.787 219.578 527.342 218.614C526.896 217.65 526.177 216.839 525.274 216.28L496.296 198.372C495.486 197.878 494.561 197.605 493.613 197.579C492.665 197.553 491.726 197.776 490.891 198.225Z" fill="#D2D5FF"/>
<path d="M497.012 200.472L505.706 187.741C505.954 187.378 506.332 187.124 506.761 187.03C507.191 186.936 507.64 187.01 508.017 187.236L532.014 201.611C532.224 201.734 532.406 201.9 532.546 202.099C532.687 202.297 532.784 202.524 532.83 202.763C532.876 203.001 532.871 203.247 532.814 203.484C532.758 203.721 532.652 203.943 532.503 204.135L522.1 217.875L497.012 200.472Z" fill="#D2D5FF"/>
<path d="M497.012 200.472L500.48 194.269L527.277 211.982L522.1 217.875L497.012 200.472Z" fill="#D2D5FF"/>
<path opacity="0.6" d="M497.012 200.472L500.48 194.269L527.277 211.982L522.1 217.875L497.012 200.472Z" fill="white"/>
<path d="M515.539 240.944C513.158 242.569 510.237 243.199 507.399 242.702C503.703 241.986 503.703 238.241 506.259 235.588C508.555 233.195 513.259 230.704 516.222 232.771C519.185 234.839 518.485 238.909 515.539 240.944Z" fill="#FFC3BD"/>
<path d="M508.294 642.751H529.653C529.653 642.751 526.3 566.788 521.693 527.749C520.292 515.864 521.806 499.584 521.953 481.4C522.148 458.494 523.207 433.536 524.248 413.951C525.355 393.325 526.283 378.461 526.283 378.461L482.588 384.696C482.588 384.696 478.257 492.844 485.046 530.744C492.112 570.109 508.294 642.751 508.294 642.751Z" fill="#D2D5FF"/>
<path opacity="0.2" d="M521.953 481.351C522.148 458.445 523.207 433.487 524.249 413.903L517.737 405.193C509.694 420.252 515.278 460.349 521.953 481.351Z" fill="black"/>
<path d="M503.41 381.668C503.41 381.668 530.549 488.839 543.443 523.5C557.557 561.432 609.539 605.779 609.539 605.779L622.677 591.322C622.677 591.322 595.181 548.457 574.912 507.22C565.225 453.675 549.401 375.091 549.401 375.091L503.41 381.668Z" fill="#D2D5FF"/>
<path d="M607.781 607.96L628.375 590.166L623.052 584.029L599.69 603.516L607.781 607.96Z" fill="#263238"/>
<path d="M505.608 643.239L531.07 643.206L531.054 634.985L502.612 634.594L505.608 643.239Z" fill="#263238"/>
<path d="M495.238 223.671C494.424 223.427 493.463 224.208 493.072 225.429L495.97 226.357C496.361 225.136 496.035 223.931 495.238 223.671Z" fill="#263238"/>
<path d="M482.539 221.278C481.709 221.278 480.911 222.222 480.911 223.508L483.939 223.703C483.988 222.417 483.386 221.408 482.539 221.278Z" fill="#263238"/>
<path d="M486.919 224.99C485.145 227.82 482.993 230.395 480.521 232.641C481.115 233.258 481.836 233.737 482.635 234.046C483.433 234.356 484.29 234.487 485.144 234.432L486.919 224.99Z" fill="#ED847E"/>
<path d="M499.373 222.368C499.474 222.393 499.58 222.393 499.682 222.368C499.832 222.32 499.958 222.214 500.031 222.074C500.104 221.934 500.119 221.771 500.073 221.619C499.82 220.706 499.35 219.866 498.704 219.172C498.058 218.478 497.254 217.949 496.361 217.631C496.286 217.606 496.207 217.597 496.129 217.605C496.05 217.612 495.974 217.636 495.905 217.674C495.837 217.712 495.776 217.764 495.729 217.827C495.681 217.889 495.647 217.961 495.628 218.038C495.606 218.113 495.599 218.191 495.607 218.269C495.616 218.346 495.64 218.422 495.678 218.49C495.716 218.558 495.767 218.618 495.828 218.666C495.89 218.714 495.96 218.75 496.035 218.77C496.743 219.043 497.375 219.48 497.879 220.047C498.384 220.613 498.745 221.292 498.933 222.026C498.976 222.113 499.037 222.189 499.114 222.248C499.19 222.307 499.278 222.348 499.373 222.368Z" fill="#263238"/>
<path d="M478.779 219.568C478.876 219.585 478.976 219.577 479.07 219.546C479.163 219.515 479.248 219.461 479.316 219.389C479.806 218.824 480.423 218.382 481.116 218.099C481.809 217.817 482.558 217.701 483.304 217.761C483.462 217.785 483.622 217.745 483.75 217.65C483.879 217.556 483.964 217.414 483.988 217.257C484.012 217.103 483.973 216.947 483.882 216.822C483.79 216.697 483.653 216.613 483.5 216.589C482.556 216.496 481.603 216.631 480.722 216.982C479.841 217.333 479.057 217.891 478.437 218.608C478.38 218.663 478.334 218.728 478.303 218.801C478.272 218.874 478.256 218.952 478.256 219.031C478.256 219.11 478.272 219.189 478.303 219.261C478.334 219.334 478.38 219.4 478.437 219.454C478.538 219.523 478.656 219.562 478.779 219.568Z" fill="#263238"/>
<path d="M622.694 617.956C623.522 617.199 624.265 616.353 624.908 615.433C624.94 615.385 624.957 615.328 624.957 615.27C624.957 615.212 624.94 615.155 624.908 615.107C624.883 615.053 624.841 615.009 624.787 614.982C624.734 614.955 624.673 614.948 624.615 614.961C624.094 614.961 619.454 615.726 618.852 617.207C618.785 617.37 618.762 617.547 618.785 617.721C618.808 617.895 618.876 618.061 618.982 618.2C619.136 618.451 619.351 618.659 619.608 618.804C619.864 618.95 620.153 619.027 620.447 619.031C621.298 618.943 622.092 618.563 622.694 617.956ZM623.996 615.677C622.645 617.419 621.343 618.428 620.463 618.428C620.264 618.423 620.069 618.367 619.898 618.264C619.727 618.161 619.585 618.016 619.487 617.842C619.449 617.784 619.429 617.716 619.429 617.647C619.429 617.578 619.449 617.51 619.487 617.452C619.715 616.686 622.14 616.003 623.996 615.677Z" fill="#D2D5FF"/>
<path d="M624.859 615.498C624.902 615.457 624.936 615.407 624.957 615.351C624.981 615.303 624.994 615.25 624.994 615.197C624.994 615.143 624.981 615.09 624.957 615.042C624.843 614.928 622.352 612.274 620.496 612.291C620.269 612.291 620.044 612.339 619.837 612.432C619.629 612.524 619.443 612.659 619.291 612.828C619.119 612.978 619.002 613.182 618.961 613.407C618.92 613.631 618.956 613.864 619.063 614.065C619.731 615.335 623.361 615.856 624.794 615.563L624.859 615.498ZM619.747 613.153C619.937 612.99 620.181 612.903 620.431 612.909C621.619 612.909 623.247 614.293 624.029 615.026C622.401 615.107 619.91 614.521 619.503 613.772C619.503 613.691 619.389 613.528 619.649 613.251L619.747 613.153Z" fill="#D2D5FF"/>
<path d="M513.52 660.089C513.572 660.071 513.618 660.038 513.653 659.995C513.688 659.952 513.709 659.9 513.715 659.845C513.729 659.784 513.722 659.721 513.696 659.665C513.669 659.608 513.624 659.563 513.569 659.535C512.983 659.242 507.92 656.67 506.389 657.533C506.243 657.61 506.119 657.724 506.03 657.864C505.942 658.004 505.891 658.165 505.885 658.331C505.851 658.6 505.886 658.874 505.985 659.127C506.085 659.381 506.246 659.605 506.454 659.779C507.838 661 511.452 660.496 513.487 660.089H513.52ZM506.78 658.005C507.741 657.679 510.492 658.721 512.494 659.633C509.71 660.105 507.61 659.991 506.845 659.291C506.709 659.174 506.605 659.025 506.542 658.857C506.479 658.689 506.46 658.508 506.487 658.331C506.487 658.266 506.505 658.202 506.54 658.148C506.574 658.093 506.624 658.049 506.682 658.021L506.78 658.005Z" fill="#D2D5FF"/>
<path d="M513.52 660.089H513.601C513.643 660.056 513.677 660.014 513.699 659.966C513.722 659.918 513.733 659.865 513.732 659.812C513.732 659.682 513.357 656.279 511.762 654.928C511.539 654.738 511.279 654.595 511 654.509C510.72 654.422 510.425 654.393 510.134 654.423C509.304 654.423 509.076 654.928 509.027 655.254C508.799 656.686 511.811 659.405 513.341 660.138C513.404 660.139 513.466 660.122 513.52 660.089ZM509.857 655.058H510.166C510.383 655.034 510.603 655.056 510.811 655.123C511.019 655.19 511.21 655.302 511.371 655.449C512.3 656.542 512.869 657.895 512.999 659.324C511.452 658.396 509.385 656.263 509.531 655.4C509.564 655.286 509.564 655.14 509.857 655.058Z" fill="#D2D5FF"/>
<path d="M534.879 344.387L522.734 348.229L532.161 357.606C532.161 357.606 543.166 352.836 539.715 347.985L534.879 344.387Z" fill="#FFC3BD"/>
<path d="M517.737 358.941L526.381 364.183L532.161 357.606L522.735 348.229L517.737 358.941Z" fill="#FFC3BD"/>
</svg>
