<svg width="284" height="579" viewBox="0 0 284 579" fill="none" xmlns="http://www.w3.org/2000/svg">
<path d="M142.461 565.146V548.466L111.336 548.099L110.953 572.401L112.871 572.552C121.461 573.135 156.556 574.887 162.31 573.219C168.832 571.434 142.461 565.146 142.461 565.146Z" fill="#ECEFF1"/>
<g opacity="0.4">
<path opacity="0.4" d="M122.312 572.351C121.894 569.72 120.508 567.34 118.425 565.679C116.394 564.012 113.809 563.173 111.186 563.327L111.069 572.018L122.312 572.351Z" fill="black"/>
</g>
<g opacity="0.4">
<path opacity="0.4" d="M155.338 568.682C155.338 568.682 164.562 571.467 163.395 572.968C162.227 574.47 126.699 574.036 111.036 572.468V571.768L152.486 572.652C152.486 572.652 153.52 568.732 155.338 568.682Z" fill="black"/>
</g>
<path d="M110.602 571.751H111.136L112.671 571.851L118.325 572.168C123.096 572.401 129.701 572.635 136.99 572.735C144.279 572.835 150.901 572.735 155.672 572.735L161.343 572.585L162.877 572.502H163.411H161.343H155.672C150.901 572.502 144.296 572.502 137.007 572.502C129.718 572.502 123.112 572.201 118.342 572.034L112.671 571.834H111.136L110.602 571.751Z" fill="#263238"/>
<path d="M152.519 573.135C152.778 572.202 153.141 571.301 153.603 570.45C154.165 569.657 154.827 568.94 155.572 568.315C154.632 568.712 153.836 569.386 153.291 570.247C152.745 571.109 152.476 572.117 152.519 573.135Z" fill="#263238"/>
<path d="M143.395 568.365C143.395 568.365 143.929 567.881 144.396 567.181C144.863 566.48 145.163 565.846 145.063 565.796C144.963 565.746 144.529 566.263 144.079 566.964C143.629 567.664 143.312 568.298 143.395 568.365Z" fill="#263238"/>
<path d="M140.893 566.997C140.893 567.08 141.46 566.747 141.994 566.28C142.528 565.813 142.928 565.346 142.861 565.279C142.795 565.212 142.294 565.513 141.744 565.996C141.193 566.48 140.826 566.914 140.893 566.997Z" fill="#263238"/>
<path d="M139.342 564.045C139.873 564.246 140.445 564.32 141.01 564.262C141.57 564.333 142.139 564.282 142.678 564.111C142.145 563.917 141.575 563.843 141.01 563.895C140.059 563.928 139.342 563.928 139.342 564.045Z" fill="#263238"/>
<path d="M138.808 561.96C139.345 562.323 139.979 562.515 140.626 562.51C141.258 562.631 141.912 562.549 142.495 562.277C141.888 562.179 141.274 562.129 140.66 562.127C140.049 562.015 139.429 561.959 138.808 561.96Z" fill="#263238"/>
<path d="M144.479 565.596C145.142 565.702 145.818 565.702 146.481 565.596C147.205 565.524 147.921 565.379 148.616 565.162C149.044 565.047 149.458 564.884 149.85 564.679C150.088 564.542 150.267 564.322 150.351 564.061C150.386 563.913 150.376 563.758 150.322 563.615C150.269 563.473 150.174 563.349 150.05 563.261C149.294 562.874 148.427 562.764 147.598 562.95C146.769 563.135 146.032 563.606 145.514 564.278C145.202 564.669 144.97 565.116 144.83 565.596C144.786 565.771 144.786 565.955 144.83 566.13C145.045 565.525 145.36 564.961 145.764 564.462C146.201 563.944 146.781 563.567 147.432 563.378C147.822 563.25 148.233 563.2 148.643 563.232C149.052 563.263 149.451 563.375 149.817 563.561C150.134 563.811 150 564.178 149.65 564.378C149.29 564.575 148.91 564.732 148.516 564.845C147.84 565.069 147.149 565.242 146.448 565.362C145.18 565.596 144.479 565.596 144.479 565.596Z" fill="#263238"/>
<path d="M144.997 565.763C145.251 565.349 145.34 564.855 145.247 564.378C145.192 563.855 145.015 563.352 144.73 562.911C144.564 562.609 144.323 562.356 144.031 562.175C143.739 561.994 143.405 561.891 143.062 561.876C142.862 561.917 142.686 562.033 142.57 562.202C142.455 562.37 142.41 562.576 142.444 562.777C142.483 563.099 142.598 563.408 142.778 563.678C143.033 564.125 143.341 564.539 143.695 564.912C144.002 565.272 144.391 565.552 144.83 565.729C144.83 565.729 144.446 565.363 143.896 564.729C143.579 564.354 143.305 563.946 143.078 563.511C142.811 563.094 142.628 562.327 143.078 562.243C143.529 562.16 144.079 562.71 144.379 563.111C144.661 563.496 144.849 563.941 144.93 564.412C144.998 564.859 145.02 565.311 144.997 565.763Z" fill="#263238"/>
<path d="M111.353 563.244C111.353 563.244 112.237 563.244 113.638 563.344C115.477 563.578 117.213 564.329 118.642 565.51C120.071 566.691 121.135 568.254 121.711 570.016C122.162 571.351 122.195 572.251 122.278 572.251C122.311 572.041 122.311 571.827 122.278 571.617C122.234 571.051 122.128 570.492 121.961 569.949C121.424 568.119 120.349 566.492 118.876 565.279C117.389 564.073 115.578 563.335 113.671 563.161C113.117 563.102 112.558 563.102 112.003 563.161C111.553 563.161 111.336 563.211 111.353 563.244Z" fill="#263238"/>
<path d="M114.739 550.334C114.383 554.583 114.272 558.849 114.405 563.111C114.659 560.991 114.776 558.857 114.756 556.722C114.876 554.594 114.871 552.461 114.739 550.334Z" fill="#263238"/>
<path d="M126.265 569.366C127.753 569.738 129.284 569.912 130.819 569.883C132.343 569.973 133.873 569.872 135.372 569.582C135.372 569.466 133.321 569.582 130.819 569.499C128.317 569.416 126.282 569.266 126.265 569.366Z" fill="#263238"/>
<path d="M120.16 569.282C120.077 569.366 120.31 569.716 120.527 570.183C120.744 570.65 120.827 571.067 120.944 571.067C121.061 571.067 121.111 570.583 120.944 570.033C120.777 569.482 120.243 569.215 120.16 569.282Z" fill="#263238"/>
<path d="M117.908 566.397C117.908 566.397 118.025 566.797 118.359 567.131C118.692 567.464 118.992 567.664 119.059 567.598C119.126 567.531 118.942 567.197 118.625 566.864C118.309 566.53 117.992 566.33 117.908 566.397Z" fill="#263238"/>
<path d="M114.639 565.046C114.639 565.146 115.073 565.162 115.523 565.329C115.973 565.496 116.307 565.729 116.39 565.663C116.474 565.596 116.223 565.162 115.656 564.962C115.089 564.762 114.605 564.945 114.639 565.046Z" fill="#263238"/>
<path d="M112.304 564.395C112.304 564.495 112.437 564.662 112.704 564.762C112.971 564.862 113.204 564.879 113.238 564.762C113.271 564.645 113.104 564.495 112.837 564.395C112.571 564.295 112.337 564.312 112.304 564.395Z" fill="#263238"/>
<path d="M48.7029 566.997L51.2049 550.567L20.4636 545.697L16.5438 569.683L18.4287 570.1C26.8521 571.918 61.313 578.756 67.251 577.939C73.8897 577.022 48.7029 566.997 48.7029 566.997Z" fill="#ECEFF1"/>
<g opacity="0.4">
<path opacity="0.4" d="M27.7361 571.217C27.6924 568.547 26.6649 565.987 24.8505 564.028C23.0718 562.105 20.6387 560.915 18.0284 560.692L16.6439 569.282L27.7361 571.217Z" fill="black"/>
</g>
<g opacity="0.4">
<path opacity="0.4" d="M60.9293 572.351C60.9293 572.351 69.6696 576.438 68.2851 577.772C66.9007 579.107 31.806 573.502 16.5771 569.683L16.7439 568.932L57.6266 575.804C57.6266 575.804 59.1278 572.135 60.9293 572.351Z" fill="black"/>
</g>
<path d="M16.2269 568.932L16.744 569.082L18.2452 569.416L23.7997 570.55C28.4867 571.467 34.9919 572.652 42.1477 573.803C49.3034 574.953 55.892 575.871 60.6291 576.455L66.2669 577.105L67.7848 577.255H68.3353L67.8015 577.155L66.2836 576.938L60.6791 576.154C55.942 575.504 49.4035 574.486 42.1977 573.402C34.9919 572.318 28.5034 571.1 23.8497 570.25L18.2786 569.232L16.744 568.932H16.2269Z" fill="#263238"/>
<path d="M57.5099 576.355C57.8933 575.463 58.3863 574.622 58.9777 573.853C59.6487 573.156 60.3988 572.54 61.2128 572.018C60.2274 572.278 59.3449 572.832 58.6831 573.607C58.0214 574.382 57.6121 575.341 57.5099 576.355Z" fill="#263238"/>
<path d="M49.1699 570.3C49.1699 570.3 49.7704 569.916 50.3209 569.282C50.8713 568.648 51.2716 568.081 51.2049 567.998C51.1382 567.914 50.6044 568.398 50.0373 569.032C49.4702 569.666 49.0865 570.233 49.1699 570.3Z" fill="#263238"/>
<path d="M46.8848 568.598C46.8848 568.682 47.4852 568.432 48.0857 568.048C48.6862 567.664 49.1366 567.264 49.0865 567.181C49.0365 567.097 48.486 567.331 47.8856 567.731C47.2851 568.131 46.768 568.498 46.8848 568.598Z" fill="#263238"/>
<path d="M45.7838 565.446C45.7838 565.546 46.4677 565.746 47.3517 565.896C47.8937 566.051 48.4631 566.085 49.0197 565.996C49.0197 565.88 48.3358 565.679 47.4518 565.529C46.9095 565.374 46.3389 565.346 45.7838 565.446Z" fill="#263238"/>
<path d="M45.567 563.311C46.0274 563.743 46.6099 564.022 47.235 564.111C47.8483 564.306 48.5066 564.306 49.1199 564.111C48.5329 563.919 47.9301 563.78 47.3184 563.694C46.7491 563.508 46.1623 563.379 45.567 563.311Z" fill="#263238"/>
<path d="M50.6377 567.798C51.2727 568.006 51.9378 568.107 52.6059 568.098C53.3367 568.115 54.0677 568.07 54.791 567.965C55.2276 567.905 55.6576 567.804 56.0754 567.664C56.3312 567.568 56.5401 567.377 56.6592 567.131C56.712 566.987 56.7244 566.832 56.695 566.682C56.6656 566.532 56.5955 566.393 56.4924 566.28C55.7954 565.792 54.9512 565.561 54.103 565.625C53.2549 565.689 52.4549 566.044 51.8387 566.63C51.4717 566.971 51.1817 567.386 50.988 567.848C50.8545 568.165 50.8212 568.365 50.8545 568.365C51.147 567.787 51.5427 567.266 52.0221 566.83C52.5486 566.384 53.1903 566.095 53.8736 565.996C54.6941 565.865 55.5334 566.063 56.2088 566.547C56.4757 566.814 56.3089 567.164 55.9253 567.331C55.5415 567.466 55.1445 567.561 54.741 567.614C54.0418 567.743 53.3334 567.815 52.6226 567.831C51.405 567.848 50.6377 567.731 50.6377 567.798Z" fill="#263238"/>
<path d="M51.1382 567.965C51.4363 567.585 51.59 567.112 51.5718 566.63C51.6008 566.107 51.4976 565.585 51.2716 565.112C51.1539 564.79 50.9558 564.502 50.696 564.277C50.4362 564.053 50.1234 563.898 49.7871 563.828C49.5821 563.845 49.3909 563.938 49.2518 564.09C49.1127 564.241 49.0358 564.439 49.0365 564.645C49.0309 564.966 49.0934 565.284 49.22 565.579C49.4069 566.062 49.6595 566.517 49.9706 566.93C50.4876 567.631 50.938 567.948 50.9714 567.915C51.0047 567.881 50.6378 567.497 50.1874 566.78C49.9304 566.364 49.7179 565.923 49.5536 565.463C49.3534 564.995 49.2867 564.228 49.7871 564.212C50.2875 564.195 50.7212 564.812 50.9547 565.262C51.1797 565.683 51.2999 566.153 51.305 566.63C51.2922 567.079 51.2363 567.526 51.1382 567.965Z" fill="#263238"/>
<path d="M18.1951 560.592C18.1951 560.675 19.0958 560.592 20.4469 561.042C22.2302 561.556 23.8357 562.555 25.0839 563.928C26.3154 565.294 27.1465 566.974 27.4858 568.782C27.736 570.183 27.6526 571.067 27.7194 571.084C27.7837 570.879 27.8174 570.665 27.8194 570.45C27.877 569.895 27.877 569.336 27.8194 568.782C27.5655 566.883 26.7379 565.107 25.4473 563.691C24.1566 562.275 22.4644 561.287 20.597 560.859C20.051 560.724 19.4914 560.651 18.929 560.642C18.6901 560.577 18.4406 560.56 18.1951 560.592Z" fill="#263238"/>
<path d="M23.416 548.316C22.4487 552.473 21.7247 556.684 21.2476 560.926C21.7878 558.861 22.211 556.767 22.5152 554.654C22.9379 552.56 23.2387 550.444 23.416 548.316Z" fill="#263238"/>
<path d="M32.0729 568.832C33.4942 569.393 34.9785 569.78 36.4931 569.983C37.9883 570.304 39.5193 570.427 41.0467 570.35C41.0467 570.233 39.0284 570.033 36.5598 569.616C34.0911 569.199 32.1062 568.732 32.0729 568.832Z" fill="#263238"/>
<path d="M26.0514 567.864C26.0514 567.864 26.1515 568.315 26.2849 568.799C26.4183 569.282 26.4684 569.716 26.5685 569.733C26.6685 569.749 26.802 569.266 26.5685 568.698C26.3349 568.131 26.1348 567.798 26.0514 567.864Z" fill="#263238"/>
<path d="M24.2333 564.679C24.1499 564.679 24.2333 565.079 24.5669 565.463C24.9005 565.846 25.1174 566.08 25.2008 566.03C25.2842 565.98 25.2008 565.613 24.8672 565.246C24.5336 564.879 24.3167 564.612 24.2333 564.679Z" fill="#263238"/>
<path d="M21.1975 562.86C21.1975 562.977 21.6145 563.027 22.0315 563.261C22.4485 563.494 22.7488 563.795 22.8322 563.728C22.9156 563.661 22.8321 563.211 22.215 562.927C21.5978 562.644 21.1808 562.76 21.1975 562.86Z" fill="#263238"/>
<path d="M18.9791 561.893C18.9791 561.976 19.0792 562.16 19.3127 562.31C19.5462 562.46 19.7964 562.477 19.8465 562.393C19.8965 562.31 19.7464 562.11 19.5129 561.976C19.2794 561.843 19.0292 561.793 18.9791 561.893Z" fill="#263238"/>
<path d="M66.0667 265.573L15.5597 559.491L55.3915 564.328L111.953 302.152L107.233 560.559H145.38L160.459 262.987L66.0667 265.573Z" fill="#7D4ED4"/>
<path d="M272.548 112.701C272.548 112.701 275.884 109.732 272.332 107.813C272.332 107.813 275.517 104.477 272.548 103.343C272.548 103.343 274.85 99.5401 270.88 99.5735C270.213 99.5735 257.67 100.357 257.67 100.357L243.475 115.036L212.3 157.803L166.18 142.224L160.192 182.74L204.611 194.416C208.947 195.549 213.541 195.177 217.638 193.358C221.735 191.54 225.093 188.384 227.162 184.408L255.835 129.164L273.316 117.188C273.706 116.914 274.01 116.535 274.194 116.095C274.377 115.654 274.432 115.171 274.351 114.701C274.271 114.231 274.059 113.794 273.74 113.44C273.421 113.086 273.007 112.829 272.548 112.701Z" fill="#FFBE9D"/>
<path d="M277.836 71.7179L283.023 41.0434L266.66 38.2745L261.473 68.949C261.159 70.8949 261.545 72.889 262.562 74.5775C263.579 76.266 265.161 77.5398 267.027 78.173L259.888 120.423C256.102 119.856 253.216 119.69 253.083 120.073C252.949 120.457 256.502 121.458 260.872 122.208C265.243 122.959 268.845 123.192 268.912 122.759C268.979 122.325 266.143 121.558 262.39 120.857L269.546 78.54C271.51 78.561 273.418 77.8882 274.935 76.6402C276.451 75.3922 277.479 73.6491 277.836 71.7179Z" fill="#E0E0E0"/>
<path d="M253.083 105.228L267.478 98.7061C267.766 99.4297 267.882 100.211 267.815 100.987C267.748 101.763 267.502 102.513 267.094 103.176C266.252 104.49 265.158 105.624 263.875 106.512C262.603 107.382 261.398 108.346 260.272 109.398C260.79 110.824 260.982 112.349 260.831 113.859C260.681 115.369 260.194 116.825 259.405 118.122C258.562 119.383 257.315 120.321 255.869 120.778C254.422 121.236 252.863 121.188 251.448 120.64" fill="#FFBE9D"/>
<path d="M265.092 54.3206C265.909 54.2747 266.722 54.4544 267.442 54.8398C268.163 55.2252 268.764 55.8015 269.179 56.5057C269.691 57.8033 270.633 58.8858 271.848 59.572C273.062 60.2582 274.475 60.5065 275.851 60.2754C276.952 60.2754 277.219 59.8584 278.003 60.6424C278.003 60.6424 276.568 71.4677 274.934 74.2866C272.482 78.4899 263.258 77.339 262.774 71.1508C262.474 67.5479 265.092 54.3206 265.092 54.3206Z" fill="#ECEFF1"/>
<path d="M254.384 104.611C255.52 103.871 256.72 103.235 257.97 102.709C260.272 101.592 263.541 100.057 267.344 98.3058L267.811 98.0889L267.928 98.5893C268.11 99.7209 268.034 100.879 267.705 101.977C267.375 103.074 266.802 104.083 266.027 104.928C265.043 106 263.921 106.936 262.691 107.713C261.556 108.497 260.205 109.031 260.372 110.082C260.372 110.599 260.606 111.249 260.672 111.867C260.731 112.46 260.731 113.058 260.672 113.651C260.583 114.714 260.324 115.756 259.905 116.737C259.322 118.156 258.4 119.41 257.22 120.39C256.811 120.778 256.321 121.068 255.785 121.241C255.785 121.241 256.252 120.857 256.986 120.14C258.026 119.114 258.829 117.873 259.338 116.504C259.685 115.572 259.892 114.594 259.955 113.601C260.005 113.046 260.005 112.488 259.955 111.933C259.955 111.383 259.705 110.849 259.621 110.115C259.575 109.726 259.644 109.331 259.822 108.981C260.007 108.651 260.256 108.362 260.556 108.13C261.139 107.68 261.69 107.38 262.224 106.996C263.373 106.256 264.417 105.364 265.326 104.344C266.003 103.596 266.504 102.706 266.792 101.739C267.081 100.772 267.15 99.7529 266.994 98.7561L267.578 99.0397C263.741 100.708 260.422 102.176 258.07 103.16C256.884 103.745 255.651 104.23 254.384 104.611Z" fill="#EB996E"/>
<path d="M269.312 118.956C269.312 118.956 269.212 119.373 268.562 119.423C268.371 119.44 268.178 119.416 267.997 119.352C267.816 119.289 267.65 119.188 267.511 119.056C267.326 118.87 267.187 118.644 267.106 118.394C267.025 118.145 267.004 117.88 267.044 117.621C267.104 116.991 267.382 116.402 267.828 115.953C268.296 115.493 268.804 115.074 269.346 114.702L272.949 112.067L273.432 112.751C272.518 113.436 271.534 114.023 270.497 114.502C269.579 114.937 268.617 115.272 267.628 115.503C267.339 115.56 267.042 115.557 266.755 115.493C266.468 115.43 266.198 115.309 265.96 115.136C265.718 114.942 265.547 114.672 265.474 114.37C265.402 114.068 265.432 113.751 265.559 113.468C265.797 113.054 266.122 112.695 266.51 112.417L267.444 111.65L269.112 110.315C270.174 109.357 271.337 108.518 272.582 107.813C271.656 108.899 270.629 109.894 269.513 110.782L267.845 112.2C267.311 112.717 266.493 113.251 266.177 113.868C265.86 114.485 266.577 114.936 267.378 114.736C268.288 114.515 269.172 114.196 270.013 113.785C270.999 113.32 271.937 112.762 272.815 112.117L273.316 112.801L269.646 115.353C268.512 116.087 267.578 116.787 267.461 117.688C267.416 117.849 267.407 118.017 267.434 118.182C267.462 118.346 267.524 118.503 267.618 118.641C267.711 118.779 267.834 118.895 267.977 118.981C268.119 119.067 268.279 119.121 268.445 119.139C269.062 119.189 269.279 118.906 269.312 118.956Z" fill="#EB996E"/>
<path d="M267.795 112.05C267.795 112.05 267.578 112.05 267.261 112.05C266.777 111.974 266.325 111.759 265.96 111.433C265.67 111.172 265.482 110.818 265.426 110.432C265.392 109.994 265.497 109.556 265.726 109.181C266.214 108.479 266.811 107.86 267.494 107.346C268.981 105.871 270.665 104.608 272.498 103.593C271.219 105.26 269.721 106.747 268.045 108.014C267.417 108.493 266.856 109.054 266.377 109.682C266.213 109.881 266.123 110.132 266.123 110.39C266.123 110.649 266.213 110.9 266.377 111.099C267.061 111.717 267.861 111.9 267.795 112.05Z" fill="#EB996E"/>
<path d="M267.294 108.564C267.294 108.564 267.194 108.747 266.861 108.798C266.625 108.822 266.388 108.795 266.163 108.721C265.939 108.646 265.733 108.524 265.56 108.364C265.299 108.123 265.099 107.823 264.977 107.489C264.856 107.156 264.815 106.798 264.859 106.446C264.953 105.631 265.29 104.864 265.826 104.244C267.008 102.739 268.428 101.437 270.03 100.391C269.071 102.018 267.886 103.501 266.51 104.794C266.071 105.174 265.78 105.696 265.685 106.269C265.591 106.842 265.7 107.429 265.993 107.93C266.594 108.564 267.278 108.364 267.294 108.564Z" fill="#EB996E"/>
<path d="M32.0896 105.311L36.9434 35.172H37.0769L37.2937 34.0044C37.8942 32.8869 38.6615 31.5858 39.5956 30.118C40.4208 28.8391 41.4589 27.7108 42.6647 26.782C43.9971 25.708 45.4331 24.7693 46.9514 23.9797L47.3017 23.863C47.5406 23.8012 47.7627 23.6873 47.9522 23.5294C48.2471 23.3856 48.4931 23.1581 48.6593 22.8754C48.8256 22.5926 48.9048 22.267 48.887 21.9395C48.8692 21.6119 48.7552 21.2969 48.5592 21.0338C48.3633 20.7707 48.0942 20.5712 47.7854 20.4602C46.401 20.0099 42.3978 21.1608 38.5614 24.3133L38.3779 24.4634C34.4081 27.5492 36.2429 19.9265 36.86 17.1409C37.4772 14.3554 39.0118 5.64841 38.2945 4.81441C37.2604 3.56341 35.6924 4.4808 35.142 7.26636C34.5916 10.0519 32.3231 18.3419 30.8552 17.9916C29.3874 17.6413 32.7734 3.48001 32.7734 3.48001C32.7734 3.48001 33.9911 0.561008 32.3231 0.144008C29.2873 -0.723352 26.8354 14.5555 26.6352 16.0234C26.5018 17.0408 24.9672 16.6906 25.1006 15.623C25.2341 14.5555 28.7869 1.57849 25.7178 0.611046C23.3659 -0.0895139 23.5828 13.1544 21.3643 15.4729C19.1459 17.7915 22.2317 5.46492 19.9465 4.83108C19.1125 4.61424 18.4453 4.58089 17.6947 11.9368C17.3829 17.715 17.3829 23.5058 17.6947 29.284V30.952C17.6947 30.952 -3.40548 113.118 1.71528 124.36C6.83604 135.602 65.2828 160.472 65.2828 160.472L77.7427 124.493L32.0896 105.311Z" fill="#FFBE9D"/>
<path d="M257.186 15.9066C253.716 15.582 250.279 14.9683 246.911 14.0718C243.477 13.457 240.101 12.5531 236.82 11.3696C240.29 11.7053 243.726 12.3245 247.095 13.2211C250.526 13.8382 253.902 14.7364 257.186 15.9066Z" fill="#263238"/>
<path d="M257.82 28.7001C256.219 29.8876 254.455 30.8371 252.582 31.5191C250.806 32.4566 248.901 33.1255 246.928 33.504C248.529 32.3165 250.293 31.367 252.165 30.6851C253.946 29.7565 255.85 29.0881 257.82 28.7001Z" fill="#263238"/>
<path d="M114.422 37.5239C109.862 36.7336 105.216 36.5652 100.611 37.0235C98.3041 37.2589 96.0683 37.9561 94.0365 39.0737C92.0048 40.1913 90.2188 41.7064 88.7849 43.5287C87.1169 45.8639 86.2495 48.7495 84.1979 50.7345C81.6458 53.2031 77.2923 54.3874 76.6919 57.8902C76.0914 61.393 80.1279 64.3954 80.2447 68.0316C80.0439 70.1181 79.2959 72.1147 78.0763 73.8196C77.0755 75.6544 76.2582 77.8895 77.1756 79.7743C77.9095 81.2922 79.5942 82.1262 80.5116 83.544C81.9294 85.7124 81.2622 88.548 81.8793 91.1334C82.7967 94.8197 86.5331 97.2716 90.2193 97.8054C94.0214 98.1685 97.8578 97.7831 101.512 96.6711" fill="#263238"/>
<path d="M118.042 38.7749C121.013 37.6655 124.184 37.1938 127.349 37.3905C128.925 37.5275 130.427 38.1189 131.674 39.093C132.92 40.0671 133.857 41.382 134.371 42.8782C134.838 44.7797 134.371 46.9981 135.672 48.4827C136.973 49.9672 139.809 50.0339 141.377 51.5518C144.713 54.8878 139.592 61.5598 142.945 64.8958C143.846 65.7798 145.163 66.1134 146.131 66.9307C146.904 67.6848 147.402 68.6768 147.544 69.7475C147.686 70.8182 147.464 71.9057 146.915 72.8355C146.331 73.7478 145.552 74.5198 144.636 75.0965C143.719 75.6732 142.686 76.0402 141.61 76.1715C139.463 76.4021 137.292 76.2036 135.222 75.5877C128.027 73.932 121.72 69.6261 117.558 63.528C113.671 57.3731 113.138 48.8997 117.274 42.8949" fill="#263238"/>
<path d="M91.5204 65.8132L96.8413 127.529L127.749 125.061C127.933 121.458 127.749 107.496 127.749 107.496C127.749 107.496 140.61 105.495 140.76 92.6346C140.843 86.3963 139.942 73.486 139.008 61.86C138.509 55.6766 135.613 49.933 130.939 45.8541C126.265 41.7752 120.183 39.6838 113.988 40.0259C110.801 40.191 107.68 40.9958 104.811 42.3923C101.941 43.7888 99.3819 45.7484 97.2855 48.1546C95.189 50.5607 93.5983 53.3641 92.6078 56.3978C91.6174 59.4315 91.2476 62.6335 91.5204 65.8132Z" fill="#FFBE9D"/>
<path d="M127.699 107.296C121.791 107.382 115.989 105.723 111.019 102.526C111.019 102.526 114.989 111.783 127.816 110.616L127.699 107.296Z" fill="#EB996E"/>
<path d="M135.789 70.4002C135.794 70.8783 135.612 71.3394 135.281 71.6853C134.951 72.0311 134.499 72.2343 134.021 72.2517C133.787 72.2675 133.553 72.2367 133.331 72.1612C133.11 72.0857 132.905 71.9668 132.73 71.8117C132.555 71.6565 132.412 71.468 132.31 71.2572C132.208 71.0464 132.149 70.8175 132.136 70.5836C132.132 70.1055 132.314 69.6444 132.644 69.2986C132.974 68.9528 133.426 68.7495 133.904 68.7322C134.138 68.714 134.374 68.7432 134.596 68.8178C134.819 68.8925 135.024 69.0112 135.2 69.1668C135.376 69.3224 135.519 69.5118 135.62 69.7237C135.721 69.9355 135.779 70.1656 135.789 70.4002Z" fill="#263238"/>
<path d="M136.189 68.3318C135.973 68.5654 134.521 67.5312 132.603 67.5479C130.685 67.5646 129.167 68.532 128.967 68.2985C128.767 68.065 129.084 67.748 129.718 67.2977C130.573 66.7005 131.594 66.3856 132.637 66.397C133.66 66.3943 134.659 66.7154 135.489 67.3144C136.106 67.7814 136.306 68.2151 136.189 68.3318Z" fill="#263238"/>
<path d="M116.44 70.8505C116.445 71.3287 116.263 71.7898 115.933 72.1356C115.602 72.4814 115.15 72.6846 114.672 72.702C114.436 72.733 114.195 72.713 113.967 72.6431C113.739 72.5733 113.529 72.4554 113.35 72.2973C113.171 72.1392 113.029 71.9446 112.932 71.7267C112.835 71.5088 112.785 71.2726 112.787 71.034C112.783 70.5559 112.965 70.0948 113.295 69.749C113.625 69.4031 114.078 69.1999 114.556 69.1825C114.79 69.1644 115.025 69.1935 115.248 69.2682C115.47 69.3429 115.676 69.4615 115.851 69.6171C116.027 69.7728 116.17 69.9621 116.271 70.174C116.372 70.3859 116.43 70.616 116.44 70.8505Z" fill="#263238"/>
<path d="M116.824 68.6988C116.59 68.9323 115.156 67.8981 113.221 67.9148C111.286 67.9315 109.885 68.8989 109.585 68.6654C109.285 68.4319 109.718 68.1316 110.352 67.6646C111.196 67.0687 112.204 66.7488 113.238 66.7488C114.271 66.7488 115.279 67.0687 116.123 67.6646C116.674 68.1483 116.824 68.532 116.824 68.6988Z" fill="#263238"/>
<path d="M123.946 83.3439C124.988 83.0298 126.063 82.8394 127.149 82.7767C127.649 82.7767 128.133 82.6099 128.216 82.2763C128.263 81.7535 128.147 81.2289 127.883 80.7751L126.398 76.9387C125.007 73.7022 123.892 70.3544 123.062 66.9307C124.698 70.0707 126.086 73.3331 127.216 76.6885C127.699 78.0396 128.183 79.324 128.633 80.5583C128.955 81.1673 129.05 81.8708 128.9 82.5432C128.827 82.7215 128.714 82.8805 128.569 83.0078C128.425 83.1351 128.252 83.2273 128.066 83.2771C127.789 83.3525 127.503 83.3918 127.216 83.3939C126.128 83.5164 125.029 83.4996 123.946 83.3439Z" fill="#263238"/>
<path d="M118.125 84.7116C118.442 84.7116 118.459 86.8467 120.293 88.3645C122.128 89.8824 124.413 89.6489 124.43 90.0325C124.447 90.4162 123.913 90.4495 122.946 90.4829C121.688 90.4925 120.466 90.0617 119.493 89.2652C118.556 88.5074 117.957 87.4104 117.825 86.2128C117.741 85.212 117.975 84.7116 118.125 84.7116Z" fill="#263238"/>
<path d="M117.274 60.9593C117.091 61.4931 115.123 61.2428 112.804 61.5097C110.486 61.7766 108.601 62.4271 108.3 61.9434C108 61.4597 108.484 61.2095 109.235 60.6924C110.238 60.0438 111.382 59.6436 112.571 59.5248C113.759 59.3838 114.964 59.5208 116.09 59.9251C116.941 60.2754 117.374 60.6924 117.274 60.9593Z" fill="#263238"/>
<path d="M135.472 62.6106C135.122 63.0609 133.804 62.6106 132.136 62.6106C130.468 62.6106 129.117 62.9108 128.8 62.4438C128.483 61.9767 128.8 61.7599 129.484 61.3262C130.298 60.8185 131.244 60.5633 132.203 60.593C133.162 60.6227 134.091 60.9359 134.872 61.493C135.439 61.86 135.622 62.3937 135.472 62.6106Z" fill="#263238"/>
<path d="M95.8572 75.4542C95.6236 75.3541 87.0168 72.8354 87.3003 81.6258C87.5839 90.4162 96.3409 88.2978 96.3576 88.081C96.3742 87.8641 95.8572 75.4542 95.8572 75.4542Z" fill="#FFBE9D"/>
<path d="M93.5554 84.8284C93.5554 84.8284 93.4053 84.9452 93.1551 85.0619C92.7915 85.2103 92.3844 85.2103 92.0208 85.0619C91.4379 84.7257 90.9565 84.2382 90.6277 83.651C90.2989 83.0638 90.1348 82.3987 90.1527 81.7259C90.1098 80.9699 90.2292 80.2135 90.503 79.5075C90.5783 79.2319 90.7194 78.9787 90.914 78.7695C91.1086 78.5604 91.3511 78.4015 91.6205 78.3065C91.7941 78.2511 91.9817 78.2593 92.1498 78.3296C92.3179 78.3999 92.4554 78.5277 92.5379 78.6901C92.5977 78.8283 92.637 78.9744 92.6547 79.1238C92.6547 79.1238 92.8548 78.9737 92.7714 78.6067C92.7094 78.3941 92.5808 78.207 92.4045 78.073C92.283 77.985 92.1452 77.9221 91.9992 77.8877C91.8532 77.8533 91.7018 77.8483 91.5538 77.8728C91.1938 77.9572 90.8612 78.1315 90.587 78.3795C90.3128 78.6275 90.1059 78.941 89.9859 79.2906C89.6423 80.0662 89.488 80.9123 89.5355 81.7593C89.5148 82.5426 89.7273 83.3143 90.146 83.9766C90.5648 84.6389 91.1709 85.1618 91.8874 85.4789C92.1274 85.5385 92.3776 85.5439 92.6199 85.4949C92.8622 85.4458 93.0906 85.3435 93.2885 85.1954C93.5554 85.0453 93.5888 84.8451 93.5554 84.8284Z" fill="#EB996E"/>
<path d="M122.162 39.7257C121.002 38.482 119.622 37.464 118.092 36.7233C116.31 35.9299 114.369 35.5588 112.42 35.6391C108.472 35.669 104.564 36.4325 100.895 37.8909C97.1753 39.3588 94.1806 42.2277 92.5546 45.8806C91.4203 48.7496 91.3703 52.1189 89.4187 54.4875C87.8341 56.4224 85.132 57.5233 84.4147 59.8918C83.0303 64.0952 88.8349 68.2318 87.5172 72.3851C87.1669 73.0905 86.9465 73.8533 86.8667 74.6369C86.9423 75.0997 87.1491 75.5311 87.4625 75.88C87.7759 76.2288 88.1827 76.4805 88.6348 76.6051C89.5464 76.8281 90.4932 76.8678 91.4203 76.7219C94.7563 76.4217 98.6594 75.5877 99.7603 72.4685C100.861 69.3494 98.7095 66.0968 100.327 63.528C101.745 61.3096 104.547 61.86 106.683 60.3255C107.582 59.6814 108.395 58.9247 109.101 58.0737C110.581 57.8394 112.026 57.4249 113.405 56.8394C115.155 56.1274 116.573 54.7812 117.374 53.0697C118.175 51.1682 117.925 48.833 119.243 47.2484C120.56 45.6638 123.429 45.08 123.946 42.995C124.054 42.3292 123.937 41.6464 123.614 41.0544C123.291 40.4624 122.78 39.9949 122.162 39.7257Z" fill="#263238"/>
<path d="M117.641 35.6224C117.641 35.6224 89.7356 6.68258 86.8 10.4022C84.0478 13.8383 86.9501 47.3317 86.9501 47.3317C86.9501 47.3317 110.686 46.3142 117.641 35.6224Z" fill="#D2D5FF"/>
<path d="M105.248 24.6803C105.715 24.6803 106.266 25.8479 105.999 26.6318C105.924 26.8193 105.812 26.99 105.67 27.1338C105.529 27.2776 105.359 27.3917 105.173 27.4694C104.987 27.5471 104.787 27.5868 104.585 27.5861C104.383 27.5855 104.183 27.5446 103.997 27.4658C103.633 27.2769 103.357 26.9527 103.23 26.5629C103.102 26.1731 103.132 25.7488 103.313 25.3808C103.534 25.0365 103.873 24.7851 104.266 24.6744C104.66 24.5637 105.081 24.6014 105.448 24.7804" fill="#FAFAFA"/>
<path d="M100.628 38.508C101.095 38.508 101.645 39.6589 101.378 40.4429C101.305 40.6318 101.194 40.8042 101.053 40.9498C100.912 41.0954 100.744 41.2112 100.557 41.2905C100.37 41.3698 100.17 41.4109 99.9671 41.4114C99.7644 41.412 99.5636 41.3719 99.3767 41.2935C99.0258 41.087 98.7626 40.7593 98.6367 40.3722C98.5107 39.9851 98.5307 39.5653 98.6928 39.1919C98.9132 38.8475 99.2524 38.5961 99.646 38.4854C100.04 38.3747 100.46 38.4124 100.828 38.5914" fill="#FAFAFA"/>
<path d="M91.8039 30.6517C92.271 30.6517 92.8214 31.8027 92.5545 32.5866C92.4794 32.7762 92.3673 32.9489 92.2247 33.0947C92.0821 33.2404 91.9118 33.3563 91.7239 33.4355C91.536 33.5147 91.3342 33.5556 91.1303 33.5559C90.9263 33.5562 90.7244 33.5159 90.5363 33.4373C90.1884 33.2282 89.9287 32.8993 89.8059 32.5124C89.683 32.1255 89.7055 31.7071 89.8691 31.3356C90.0895 30.9912 90.4287 30.7398 90.8223 30.6291C91.2159 30.5184 91.6365 30.5562 92.0041 30.7351" fill="#FAFAFA"/>
<path d="M89.2686 12.6207C89.7356 12.6207 90.286 13.7716 90.0192 14.5555C89.944 14.7451 89.8319 14.9178 89.6893 15.0636C89.5467 15.2093 89.3764 15.3252 89.1885 15.4044C89.0006 15.4836 88.7988 15.5245 88.5949 15.5248C88.391 15.5252 88.189 15.4848 88.0009 15.4062C87.653 15.1971 87.3933 14.8682 87.2704 14.4813C87.1476 14.0945 87.1701 13.6761 87.3337 13.3045C87.5541 12.9602 87.8933 12.7088 88.2869 12.5981C88.6805 12.4874 89.1011 12.5251 89.4687 12.7041" fill="#FAFAFA"/>
<path d="M97.2749 18.3085C97.742 18.3085 98.2758 19.4595 98.0089 20.2434C97.9355 20.4324 97.825 20.6048 97.684 20.7504C97.5429 20.896 97.3741 21.0118 97.1876 21.0911C97.001 21.1704 96.8004 21.2115 96.5977 21.212C96.395 21.2125 96.1942 21.1724 96.0073 21.0941C95.6564 20.8876 95.3933 20.5599 95.2673 20.1728C95.1413 19.7857 95.1613 19.3659 95.3234 18.9924C95.5438 18.6481 95.8831 18.3966 96.2767 18.2859C96.6703 18.1752 97.0908 18.213 97.4584 18.3919" fill="#FAFAFA"/>
<path d="M109.018 36.84C109.301 36.84 109.651 37.5739 109.485 38.0743C109.437 38.193 109.366 38.3011 109.277 38.3923C109.187 38.4835 109.08 38.5561 108.962 38.6057C108.844 38.6553 108.718 38.6811 108.59 38.6815C108.462 38.6819 108.335 38.6569 108.217 38.608C107.985 38.4902 107.81 38.2855 107.729 38.0386C107.647 37.7917 107.667 37.5227 107.783 37.2903C107.916 37.065 108.13 36.8994 108.382 36.828C108.634 36.7566 108.903 36.7847 109.134 36.9067" fill="#FAFAFA"/>
<path d="M92.6713 41.427C92.9549 41.427 93.3052 42.1609 93.1384 42.6613C93.0908 42.78 93.0201 42.8881 92.9304 42.9793C92.8407 43.0706 92.7338 43.1431 92.6159 43.1927C92.498 43.2424 92.3715 43.2681 92.2436 43.2685C92.1156 43.269 91.9889 43.244 91.8707 43.1951C91.6391 43.0772 91.4635 42.8725 91.3822 42.6256C91.301 42.3787 91.3207 42.1098 91.437 41.8774C91.5698 41.652 91.7842 41.4865 92.0358 41.415C92.2873 41.3436 92.5568 41.3718 92.7881 41.4937" fill="#FAFAFA"/>
<path d="M110.552 31.2021C110.853 31.2021 111.186 31.9361 111.019 32.4198C110.976 32.5415 110.907 32.6528 110.818 32.7466C110.729 32.8404 110.622 32.9148 110.503 32.965C110.384 33.0152 110.255 33.0401 110.126 33.0381C109.997 33.0361 109.869 33.0073 109.752 32.9535C109.523 32.8328 109.351 32.6268 109.273 32.3802C109.195 32.1336 109.217 31.8662 109.335 31.6358C109.47 31.4135 109.685 31.2506 109.935 31.1795C110.186 31.1084 110.454 31.1343 110.686 31.2522" fill="#FAFAFA"/>
<path d="M99.4768 30.2514C99.7603 30.2514 100.111 30.9853 99.9438 31.469C99.8981 31.5892 99.8285 31.6989 99.7391 31.7914C99.6498 31.8838 99.5427 31.9573 99.4242 32.0072C99.3057 32.057 99.1783 32.0824 99.0497 32.0816C98.9211 32.0809 98.7941 32.0541 98.6761 32.0028C98.4445 31.8849 98.2689 31.6802 98.1876 31.4333C98.1064 31.1865 98.1261 30.9175 98.2425 30.6851C98.378 30.4628 98.5924 30.2998 98.8429 30.2287C99.0933 30.1576 99.3614 30.1836 99.5935 30.3014" fill="#FAFAFA"/>
<path d="M89.9524 22.7454C90.2527 22.7454 90.5863 23.4793 90.4362 23.9797C90.3993 24.1102 90.3345 24.2311 90.2462 24.334C90.158 24.4369 90.0484 24.5194 89.925 24.5757C89.8017 24.632 89.6676 24.6607 89.532 24.66C89.3964 24.6592 89.2626 24.6289 89.1399 24.5713C89.0172 24.5136 88.9085 24.4299 88.8214 24.326C88.7343 24.2221 88.6709 24.1005 88.6355 23.9696C88.6001 23.8387 88.5937 23.7017 88.6166 23.5681C88.6395 23.4344 88.6912 23.3074 88.7682 23.1958C88.8979 22.9672 89.1123 22.7989 89.3651 22.7272C89.6179 22.6554 89.8888 22.6859 90.1192 22.8121" fill="#FAFAFA"/>
<path d="M128.25 107.547C128.002 107.668 127.738 107.752 127.466 107.797C126.7 107.998 125.919 108.137 125.131 108.214C122.221 108.51 119.282 108.133 116.54 107.113C109.485 104.694 101.795 96.938 97.5085 86.5631C95.6004 81.6473 94.4312 76.476 94.0391 71.2175C93.6657 66.9527 93.5432 62.6697 93.6722 58.3906C93.7722 54.7377 93.9557 51.802 94.0892 49.767C94.0892 48.8329 94.2226 48.099 94.2726 47.4318C94.283 47.1549 94.3278 46.8803 94.4061 46.6145C94.4491 46.8852 94.4491 47.1611 94.4061 47.4318C94.4061 48.0657 94.4061 48.8496 94.4061 49.7837C94.4061 51.8187 94.2893 54.7877 94.2726 58.3906C94.2296 62.6452 94.4134 66.899 94.8231 71.1341C95.2506 76.3061 96.419 81.3898 98.2925 86.2295C102.496 96.4043 109.969 104.06 116.741 106.546C119.396 107.571 122.238 108.026 125.081 107.88C127.132 107.763 128.233 107.446 128.25 107.547Z" fill="#455A64"/>
<path d="M71.9714 175.284L62.7307 272.445H162.444C162.694 262.12 158.074 185.325 158.074 185.325L178.09 189.762L197.538 148.062L165.663 132.333C151.118 125.244 147.999 122.492 135.639 120.79C131.986 120.29 129.217 120.057 127.416 119.823C117.033 123.109 105.889 123.109 95.5069 119.823C94.2559 119.823 93.0549 119.973 91.8707 120.107L64.5989 113.902L42.598 108.114L28.6201 152.349L71.9714 175.284Z" fill="#D2D5FF"/>
<path d="M73.7896 157.17C73.9884 158.742 73.9884 160.334 73.7896 161.907C73.6561 164.809 73.3225 168.812 72.8055 173.232C72.2884 177.653 71.6879 181.572 71.1375 184.491C70.9547 186.062 70.5736 187.603 70.0032 189.078C69.961 187.502 70.084 185.925 70.3702 184.375C70.7538 181.039 71.2042 177.269 71.7046 173.099C72.205 168.929 72.622 165.159 72.9889 161.84C73.0883 160.259 73.3567 158.693 73.7896 157.17Z" fill="#263238"/>
<path d="M158.224 200.304C157.851 198.042 157.639 195.757 157.59 193.465C157.323 189.228 156.939 183.457 156.406 176.952C155.872 170.447 155.305 164.692 154.888 160.472C154.557 158.202 154.389 155.911 154.387 153.617C155.004 155.799 155.428 158.032 155.655 160.289C156.272 164.492 156.973 170.297 157.506 176.768C158.04 183.24 158.29 189.095 158.374 193.348C158.536 195.667 158.486 197.995 158.224 200.304Z" fill="#263238"/>
<path d="M156.372 197.285C155.878 197.092 155.403 196.851 154.954 196.568L151.051 194.316L137.124 186.093H137.491L113.288 199.437L113.054 199.57L112.854 199.437L91.8374 186.093H92.221L76.2082 194.533L71.6546 196.968C71.1185 197.26 70.5609 197.511 69.9866 197.719C70.4591 197.351 70.9677 197.033 71.5045 196.768L75.9247 194.266L91.804 185.459L91.9875 185.359L92.171 185.475C98.3259 189.329 105.515 193.815 113.238 198.669H112.837L137.107 185.509L137.29 185.409L137.457 185.509L151.235 193.999L155.038 196.401C155.508 196.655 155.955 196.951 156.372 197.285Z" fill="white"/>
<path d="M155.288 207.627C154.796 207.422 154.322 207.176 153.87 206.893L149.95 204.658L136.039 196.434H136.39L112.204 209.778L111.97 209.895L111.753 209.762L90.7532 196.418H91.1368L75.124 204.908L70.6204 207.226C70.087 207.524 69.529 207.775 68.9524 207.977C69.438 207.615 69.9511 207.292 70.4869 207.009L74.9072 204.524L90.7698 195.8L90.97 195.684L91.1535 195.8L112.22 208.994H111.82L136.089 195.834L136.273 195.734L136.44 195.85L150.201 204.324L154.02 206.743C154.468 207 154.892 207.295 155.288 207.627Z" fill="white"/>
<path d="M164.245 186.66C164.071 186.302 163.953 185.919 163.895 185.526L163.144 182.306C162.527 179.354 161.693 175.434 160.726 170.814V170.514L161.009 170.397L174.353 164.425L181.592 161.223L181.342 161.656C180.592 155.118 179.958 149.43 179.557 145.393C179.368 143.492 179.218 141.907 179.107 140.64C179.051 140.085 179.051 139.526 179.107 138.972C179.289 139.512 179.407 140.072 179.457 140.64C179.641 141.891 179.874 143.475 180.158 145.36C180.708 149.38 181.442 155.051 182.243 161.59V161.89L181.943 162.023L174.553 165.276L161.209 171.147L161.443 170.714C162.294 175.367 163.011 179.304 163.561 182.273C163.778 183.574 163.945 184.641 164.095 185.609C164.185 185.952 164.235 186.305 164.245 186.66Z" fill="white"/>
<path d="M55.108 111.566C55.2738 111.923 55.397 112.298 55.4749 112.684L56.3256 115.887C57.0429 118.839 57.9936 122.725 59.0945 127.296V127.596L58.8109 127.729L46.401 133.767L38.5948 137.504L38.8283 137.103C39.262 143.292 39.6123 148.613 39.8291 152.416C39.8291 154.184 39.9792 155.752 40.0459 156.853C40.1008 157.407 40.1008 157.966 40.0459 158.521C39.8894 158.006 39.7997 157.473 39.7791 156.936C39.6623 155.752 39.5122 154.284 39.3287 152.516C38.9617 148.729 38.5114 143.409 38.011 137.237V136.92L38.2612 136.787L46.0507 133.017L58.5107 127.079L58.2939 127.496C57.3097 122.892 56.4757 118.989 55.8252 116.02C55.575 114.736 55.3749 113.668 55.1914 112.767C55.0967 112.375 55.0685 111.969 55.108 111.566Z" fill="white"/>
</svg>
