<svg width="443" height="620" viewBox="0 0 443 620" fill="none" xmlns="http://www.w3.org/2000/svg">
<g filter="url(#filter0_d)">
<path d="M131.393 152.039C131.393 152.039 72.0117 92.8751 67.5415 88.6551C67.0025 88.1664 66.4093 87.741 65.7734 87.3874L56.7495 78.0633C56.7495 78.0633 44.2062 77.2626 43.539 77.2626C39.5525 77.2626 41.871 81.0323 41.871 81.0323C38.8853 82.0999 42.0878 85.5026 42.0878 85.5026C38.4683 87.4208 41.871 90.3898 41.871 90.3898C41.4338 90.533 41.0442 90.7932 40.7444 91.1421C40.4446 91.4911 40.2461 91.9155 40.1705 92.3693C40.0949 92.8231 40.145 93.2889 40.3154 93.7162C40.4858 94.1436 40.7699 94.5161 41.1371 94.7933L50.6446 99.6806V99.864L52.5962 100.631L60.8528 104.885L61.2531 104.401C64.5891 109.305 98.8666 158.411 106.923 168.235C115.413 178.594 154.411 201.595 154.411 201.595L170.557 170.671L131.393 152.039Z" fill="#FFBE9D"/>
<path d="M40.0028 63.585L36.8669 32.6269L53.3802 30.9589L56.516 61.9337C56.6959 63.8966 56.1748 65.8598 55.045 67.475C53.9153 69.0903 52.2499 70.2531 50.3444 70.7574L54.6645 113.391C58.4843 113.075 61.4366 113.091 61.47 113.492C61.5033 113.892 57.9838 114.659 53.5636 115.16C49.1434 115.66 45.5405 115.61 45.5072 115.16C45.4738 114.709 48.3428 114.142 52.1792 113.708L47.8591 71.0743C45.8713 70.969 43.9867 70.1561 42.5459 68.7826C41.1051 67.4091 40.203 65.5655 40.0028 63.585Z" fill="#E0E0E0"/>
<path d="M61.3198 82.8171L46.9416 76.2952C46.6533 77.0187 46.5378 77.7996 46.6044 78.5757C46.671 79.3518 46.9179 80.1016 47.3253 80.7654C48.1561 82.0826 49.2456 83.2175 50.5279 84.1014C51.8031 84.9859 53.0128 85.9615 54.1474 87.0204C53.6288 88.4493 53.4375 89.9765 53.5876 91.4892C53.7377 93.0019 54.2254 94.4616 55.0148 95.7607C55.8594 97.0196 57.1076 97.9534 58.5538 98.4082C60 98.863 61.558 98.8116 62.9711 98.2627" fill="#FFBE9D"/>
<path d="M53.964 47.0718C53.1537 46.9697 52.331 47.0932 51.5864 47.4287C50.8418 47.7642 50.2043 48.2987 49.744 48.9733C48.8371 50.3442 47.5822 51.4495 46.1077 52.1759C45.0115 52.413 43.8818 52.4526 42.7717 52.2927C41.6709 52.2927 41.4373 51.7923 40.5867 52.5095C40.5867 52.5095 41.3039 63.4015 42.7551 66.3372C44.9068 70.6907 54.1475 70.1569 55.0816 64.0187C55.632 60.4492 53.964 47.0718 53.964 47.0718Z" fill="#ECEFF1"/>
<path d="M60.0355 82.2332C58.7292 81.8643 57.4569 81.3844 56.2324 80.7988C53.8639 79.8146 50.5612 78.3802 46.7248 76.6788L47.2919 76.3952C47.1481 77.3996 47.2323 78.4235 47.5384 79.3909C47.8445 80.3582 48.3646 81.2442 49.06 81.983C49.9635 83.003 51.0016 83.8952 52.1458 84.6351C52.6963 85.0188 53.2634 85.3357 53.8138 85.7694C54.1266 85.9978 54.3833 86.2944 54.5644 86.6368C54.7363 86.9886 54.8057 87.3816 54.7646 87.771C54.6812 88.4882 54.4977 89.022 54.431 89.5724C54.3807 90.1273 54.3807 90.6856 54.431 91.2404C54.4803 92.233 54.6829 93.2121 55.0315 94.1428C55.5459 95.5093 56.3479 96.7494 57.3833 97.779C58.1339 98.5129 58.6343 98.8298 58.5843 98.8966C58.0564 98.7094 57.5735 98.4139 57.1665 98.0292C55.9803 97.0511 55.0525 95.7968 54.4643 94.3763C54.0515 93.3942 53.7981 92.3525 53.7137 91.2905C53.6639 90.6966 53.6639 90.0996 53.7137 89.5057C53.7137 88.8885 53.9639 88.2547 54.014 87.721C54.1974 86.6701 52.8297 86.053 51.7121 85.3524C50.4749 84.585 49.3519 83.6473 48.3761 82.5668C47.5948 81.7266 47.017 80.718 46.6873 79.6191C46.3576 78.5201 46.2848 77.36 46.4746 76.2284L46.5914 75.728L47.0417 75.9449C50.8615 77.6129 54.1141 79.2809 56.4159 80.3484C57.6724 80.8756 58.8831 81.506 60.0355 82.2332Z" fill="#EB996E"/>
<path d="M45.0902 96.528C45.0902 96.528 45.3571 96.7615 45.8408 96.7115C46.0074 96.698 46.1689 96.6478 46.3138 96.5645C46.4587 96.4813 46.5834 96.367 46.6791 96.23C46.7747 96.0929 46.8388 95.9364 46.8669 95.7717C46.895 95.6069 46.8864 95.438 46.8416 95.277C46.7081 94.3596 45.7741 93.609 44.6398 92.9251L40.9869 90.3731L41.4706 89.6892C42.3553 90.3242 43.2929 90.8823 44.2729 91.3572C45.1272 91.7517 46.0146 92.0698 46.925 92.308C47.7256 92.4915 48.3928 91.9243 48.1093 91.4239C47.8257 90.9235 47.0251 90.3397 46.4413 89.7559L44.7733 88.3215C43.6522 87.4384 42.6239 86.4436 41.7041 85.3524C42.9443 86.0557 44.1024 86.8949 45.1569 87.8544L46.8249 89.2055L47.759 89.9561C48.1554 90.2372 48.4855 90.6016 48.7264 91.0236C48.8569 91.3062 48.8883 91.6245 48.8157 91.9271C48.7431 92.2297 48.5706 92.499 48.3261 92.6916C48.0902 92.868 47.8194 92.992 47.5317 93.0553C47.2441 93.1186 46.9462 93.1197 46.6581 93.0586C45.6635 92.8281 44.6962 92.4927 43.7725 92.0578C42.7425 91.5976 41.7593 91.039 40.8368 90.3898L41.3372 89.7059L44.9401 92.3413C45.4784 92.7174 45.986 93.1357 46.4579 93.5923C46.8946 94.0477 47.1699 94.6336 47.2419 95.2604C47.2822 95.5193 47.261 95.7842 47.1798 96.0334C47.0987 96.2826 46.9599 96.5092 46.7749 96.6948C46.6313 96.8264 46.4629 96.9281 46.2797 96.9939C46.0964 97.0598 45.9018 97.0885 45.7073 97.0785C45.2069 96.9951 45.0568 96.528 45.0902 96.528Z" fill="#EB996E"/>
<path d="M46.6248 89.6725C46.6248 89.5391 47.3421 89.3389 48.0093 88.6384C48.1732 88.4385 48.2629 88.188 48.2629 87.9295C48.2629 87.6709 48.1732 87.4204 48.0093 87.2206C47.5197 86.6266 46.9596 86.0944 46.3413 85.636C44.6551 84.3807 43.1556 82.8924 41.8877 81.2158C43.7178 82.2346 45.4011 83.4972 46.8917 84.9688C47.575 85.4823 48.1719 86.1017 48.6598 86.8036C48.8914 87.1772 48.9912 87.6176 48.9434 88.0546C48.9009 88.4407 48.7166 88.7973 48.4263 89.0554C48.0588 89.3786 47.608 89.5924 47.1252 89.6725C46.825 89.7392 46.6415 89.7392 46.6248 89.6725Z" fill="#EB996E"/>
<path d="M47.1085 86.103C47.1085 85.9863 47.8257 86.103 48.4095 85.4692C48.7051 84.9702 48.8168 84.3836 48.7255 83.8109C48.6341 83.2382 48.3453 82.7155 47.9091 82.3333C46.5313 81.0371 45.3411 79.555 44.3729 77.9298C45.9813 78.9742 47.407 80.276 48.593 81.7829C49.129 82.4032 49.4661 83.1703 49.5605 83.9846C49.601 84.3383 49.5572 84.6966 49.4325 85.03C49.3078 85.3634 49.1059 85.6626 48.8432 85.9029C48.6714 86.061 48.4683 86.1814 48.2471 86.2561C48.0258 86.3308 47.7914 86.3582 47.5588 86.3365C47.292 86.2865 47.0918 86.1531 47.1085 86.103Z" fill="#EB996E"/>
<path d="M153.327 242.845C154.461 239.359 169.189 243.362 170.474 243.612C171.758 243.862 172.142 241.944 170.974 241.944C169.306 241.711 151.842 238.825 152.926 235.406C153.527 233.504 156.83 234.889 156.83 234.889C156.83 234.889 172.976 238.775 173.51 237.14C174.043 235.506 164.569 232.87 161.333 232.22C158.097 231.569 157.146 229.801 158.614 228.617C159.598 227.816 169.556 229.584 172.726 230.285C175.895 230.986 184.602 233.137 181.182 228.617C177.763 224.097 176.829 219.31 177.479 217.842C177.661 217.511 177.942 217.246 178.283 217.085C178.624 216.924 179.007 216.875 179.378 216.946C179.748 217.016 180.087 217.202 180.345 217.477C180.604 217.752 180.768 218.101 180.815 218.476C181.414 220.296 182.261 222.025 183.334 223.613C184.158 224.947 185.208 226.126 186.437 227.099C187.821 228.2 189.039 229.084 190.106 229.801C197.996 230.552 227.136 230.502 246.818 224.163C251.539 222.646 272.572 184.749 272.572 184.749L298.026 201.612L280.345 232.587C264.466 267.131 184.385 252.202 184.385 252.202C178.271 252.481 172.146 252.437 166.037 252.069C157.697 251.185 157.697 250.401 157.964 249.467C158.681 246.882 172.826 250.451 170.224 247.916C167.621 245.38 152.459 245.514 153.327 242.845Z" fill="#EB996E"/>
<path d="M249.487 228.4L274.357 209.785L267.318 195.691C264.429 189.264 260.638 183.282 256.059 177.926C249.893 171.545 241.775 167.401 232.99 166.15C226.719 165.166 220.664 164.799 220.664 164.799L193.676 166.901C187.487 167.268 179.097 167.101 179.097 167.101L148.907 155.709L133.461 192.705L163.485 207.116C162.578 210.914 162.119 214.805 162.117 218.709C162.725 224.994 165.469 230.881 169.89 235.389L170.007 235.489L178.347 280.091L243.399 274.42L239.262 256.072L243.699 220.561L249.487 228.4Z" fill="#7D4ED4"/>
<path d="M173.093 240.243C172.611 239.916 172.174 239.53 171.791 239.092C170.69 237.95 169.681 236.723 168.772 235.422C165.742 231.112 163.75 226.158 162.955 220.949C162.159 215.74 162.58 210.417 164.185 205.398C164.663 203.891 165.26 202.424 165.97 201.011C166.192 200.473 166.496 199.972 166.871 199.527C167.021 199.527 165.837 201.779 164.769 205.582C163.363 210.528 163.04 215.72 163.82 220.803C164.6 225.886 166.465 230.741 169.289 235.039C171.441 238.391 173.209 240.126 173.093 240.243Z" fill="#455A64"/>
<path d="M224.851 239.175C224.471 239.375 224.059 239.505 223.633 239.559C222.485 239.798 221.319 239.932 220.147 239.959C216.265 240.069 212.415 239.234 208.928 237.526C205.442 235.817 202.422 233.286 200.131 230.151C199.435 229.208 198.826 228.203 198.313 227.149C198.08 226.785 197.927 226.376 197.862 225.948C197.996 225.948 198.796 227.516 200.615 229.768C202.969 232.715 205.949 235.102 209.338 236.758C212.727 238.413 216.442 239.296 220.213 239.342C223.049 239.392 224.834 239.025 224.851 239.175Z" fill="#455A64"/>
<path d="M241.097 168.519C241.097 168.619 240.263 168.669 238.862 169.103C236.903 169.763 235.118 170.858 233.641 172.305C231.442 174.441 229.853 177.124 229.037 180.078C228.136 183.732 228.136 187.55 229.037 191.204C229.954 194.875 231.315 198.421 233.091 201.762C234.675 204.881 236.276 207.617 237.561 209.952C238.845 212.287 239.796 214.222 240.413 215.573C240.765 216.263 241.039 216.991 241.23 217.742C240.791 217.105 240.411 216.43 240.096 215.723C239.412 214.422 238.428 212.537 237.027 210.252C235.626 207.967 234.025 205.248 232.373 202.129C230.518 198.747 229.116 195.135 228.203 191.387C227.234 187.606 227.234 183.642 228.203 179.861C229.108 176.785 230.839 174.016 233.207 171.855C234.783 170.388 236.697 169.334 238.778 168.786C239.324 168.643 239.883 168.554 240.446 168.519C240.662 168.483 240.882 168.483 241.097 168.519Z" fill="#455A64"/>
<path d="M197.912 269.016C197.912 269.116 197.195 268.916 196.244 268.315C195.046 267.514 194.043 266.454 193.309 265.213C192.564 263.971 192.097 262.583 191.941 261.143C191.841 260.042 191.941 259.375 192.108 259.375C192.526 261.247 193.182 263.057 194.059 264.762C195.17 266.328 196.464 267.756 197.912 269.016Z" fill="#455A64"/>
<path d="M196.678 268.866C195.222 268.893 193.802 268.416 192.658 267.515C190.64 266.214 189.589 264.529 189.773 264.396C189.956 264.262 191.24 265.58 193.109 266.781C194.977 267.982 196.745 268.616 196.678 268.866Z" fill="#455A64"/>
<path d="M196.811 508.924C196.128 511.593 180.382 599.864 180.382 599.864L156.279 598.062L160.683 507.99L196.811 508.924Z" fill="#FFBE9D"/>
<path d="M155.545 599.447L155.712 596.928L181.399 597.462L181.249 605.802H179.664C172.592 606.035 143.702 606.519 139.015 605.101C133.711 603.6 155.545 599.447 155.545 599.447Z" fill="#ECEFF1"/>
<g opacity="0.3">
<path opacity="0.3" d="M171.892 605.451C172.33 603.421 173.522 601.633 175.228 600.447C176.976 599.2 179.108 598.609 181.249 598.779L181.099 605.451H171.892Z" fill="black"/>
</g>
<g opacity="0.3">
<path opacity="0.3" d="M144.87 601.832C144.87 601.832 137.197 603.733 138.198 604.918C139.199 606.102 168.322 606.586 181.232 605.818V605.285L147.155 604.934C147.155 604.934 146.354 601.932 144.87 601.832Z" fill="black"/>
</g>
<path d="M181.533 605.268H181.099H179.831L175.178 605.368C171.241 605.368 165.82 605.368 159.815 605.368C153.81 605.368 148.389 605.051 144.47 604.851L139.816 604.601L138.565 604.501H138.131H138.565H139.833L144.486 604.668C148.406 604.818 153.827 604.984 159.832 605.101C165.837 605.218 171.241 605.218 175.178 605.218H181.099L181.533 605.268Z" fill="#263238"/>
<path d="M147.055 605.268C146.858 604.551 146.584 603.857 146.238 603.2C145.787 602.585 145.267 602.026 144.687 601.532C145.461 601.802 146.108 602.349 146.505 603.066C146.972 603.698 147.17 604.49 147.055 605.268Z" fill="#263238"/>
<path d="M154.678 601.932C154.678 601.932 154.261 601.565 153.894 600.998C153.527 600.431 153.31 599.964 153.377 599.93C153.443 599.897 153.81 600.297 154.161 600.848C154.511 601.398 154.761 601.832 154.678 601.932Z" fill="#263238"/>
<path d="M156.78 600.898C156.78 600.898 156.329 600.698 155.895 600.331C155.462 599.964 155.162 599.597 155.212 599.547C155.262 599.497 155.662 599.73 156.096 600.114C156.529 600.498 156.846 600.848 156.78 600.898Z" fill="#263238"/>
<path d="M158.147 598.679C157.711 598.816 157.251 598.861 156.796 598.813C156.346 598.861 155.89 598.81 155.462 598.663C155.89 598.516 156.347 598.471 156.796 598.529C157.252 598.48 157.713 598.532 158.147 598.679Z" fill="#263238"/>
<path d="M158.631 597.111C158.175 597.373 157.655 597.5 157.13 597.478C156.608 597.55 156.077 597.475 155.595 597.262C156.1 597.22 156.608 597.22 157.113 597.262C157.612 597.158 158.121 597.108 158.631 597.111Z" fill="#263238"/>
<path d="M153.86 599.797C153.308 599.887 152.745 599.887 152.192 599.797C151.599 599.719 151.013 599.591 150.441 599.413C150.1 599.313 149.771 599.179 149.457 599.013C149.266 598.91 149.122 598.737 149.057 598.529C149.032 598.412 149.044 598.289 149.092 598.179C149.14 598.068 149.221 597.975 149.323 597.912C149.954 597.638 150.658 597.577 151.326 597.74C151.995 597.902 152.592 598.279 153.026 598.813C153.271 599.11 153.448 599.458 153.544 599.83C153.573 599.968 153.573 600.11 153.544 600.247C153.379 599.771 153.137 599.326 152.826 598.93C152.451 598.521 151.973 598.222 151.442 598.062C150.798 597.848 150.097 597.878 149.474 598.146C149.207 598.329 149.307 598.613 149.59 598.78C149.884 598.934 150.191 599.063 150.508 599.163C151.053 599.346 151.611 599.491 152.176 599.597C153.243 599.73 153.86 599.747 153.86 599.797Z" fill="#263238"/>
<path d="M153.443 599.864C153.343 599.707 153.276 599.531 153.247 599.347C153.218 599.164 153.229 598.976 153.277 598.796C153.331 598.389 153.492 598.004 153.744 597.679C153.895 597.449 154.1 597.261 154.342 597.13C154.583 596.999 154.853 596.929 155.128 596.928C155.208 596.942 155.285 596.972 155.353 597.016C155.422 597.059 155.481 597.116 155.527 597.183C155.574 597.249 155.607 597.324 155.624 597.404C155.641 597.483 155.643 597.565 155.629 597.645C155.573 597.89 155.471 598.122 155.328 598.329C155.105 598.665 154.835 598.968 154.528 599.23C154.269 599.51 153.941 599.717 153.577 599.83C153.577 599.83 153.911 599.563 154.378 599.096C154.644 598.823 154.879 598.521 155.078 598.196C155.312 597.862 155.478 597.295 155.078 597.212C154.86 597.231 154.648 597.298 154.458 597.408C154.268 597.517 154.104 597.666 153.977 597.845C153.741 598.131 153.575 598.468 153.494 598.83C153.433 599.171 153.416 599.518 153.443 599.864Z" fill="#263238"/>
<path d="M181.166 598.763C181.166 598.763 180.432 598.679 179.264 598.763C177.772 598.888 176.339 599.406 175.111 600.264C173.934 601.108 173.015 602.263 172.459 603.6C172.258 604.147 172.086 604.704 171.942 605.268C171.942 605.268 171.942 605.101 171.942 604.784C172.001 604.351 172.107 603.926 172.259 603.517C172.769 602.103 173.7 600.881 174.927 600.014C176.607 598.81 178.687 598.302 180.732 598.596C180.883 598.632 181.029 598.688 181.166 598.763Z" fill="#263238"/>
<path d="M168.722 603.083C167.492 603.321 166.238 603.411 164.986 603.35C163.732 603.382 162.478 603.27 161.25 603.016C161.25 603.016 162.918 603.016 164.986 603.016C167.054 603.016 168.722 602.999 168.722 603.083Z" fill="#263238"/>
<path d="M173.743 603.166C173.743 603.166 173.593 603.483 173.41 603.85C173.226 604.217 173.143 604.517 173.043 604.501C172.943 604.484 172.926 604.134 173.143 603.717C173.36 603.3 173.693 603.1 173.743 603.166Z" fill="#263238"/>
<path d="M175.728 601.015C175.728 601.015 175.611 601.315 175.344 601.565C175.077 601.815 174.811 601.949 174.744 601.899C174.677 601.849 174.861 601.598 175.128 601.348C175.394 601.098 175.611 600.948 175.728 601.015Z" fill="#263238"/>
<path d="M178.397 600.064C178.397 600.147 178.047 600.064 177.663 600.247C177.279 600.431 177.012 600.548 176.946 600.498C176.879 600.447 177.096 600.114 177.579 599.98C178.063 599.847 178.43 599.997 178.397 600.064Z" fill="#263238"/>
<path d="M180.332 599.63C180.332 599.63 180.215 599.814 179.998 599.897C179.781 599.98 179.598 599.897 179.564 599.897C179.531 599.897 179.681 599.697 179.898 599.614C180.115 599.53 180.315 599.547 180.332 599.63Z" fill="#263238"/>
<path d="M258.161 501.552C258.277 504.304 268.302 590.273 268.302 590.273L244.7 595.494L222.932 507.924L258.161 501.552Z" fill="#FFBE9D"/>
<path d="M243.632 597.779L243.099 595.31L268.119 589.706L269.97 597.862L268.435 598.313C261.63 600.214 233.691 607.57 228.787 607.303C223.399 606.936 243.632 597.779 243.632 597.779Z" fill="#ECEFF1"/>
<g opacity="0.3">
<path opacity="0.3" d="M260.946 599.73C260.891 597.643 261.637 595.614 263.031 594.059C264.439 592.447 266.371 591.384 268.485 591.057L269.937 597.545L260.946 599.73Z" fill="black"/>
</g>
<g opacity="0.3">
<path opacity="0.3" d="M233.824 602.633C233.824 602.633 226.836 606.302 228.003 607.236C229.171 608.17 257.694 601.732 270.037 597.862L269.87 597.362L236.693 605.135C236.693 605.135 235.292 602.366 233.824 602.633Z" fill="black"/>
</g>
<path d="M270.27 597.262L269.836 597.395L268.619 597.745L264.132 598.946C260.329 599.947 255.058 601.248 249.203 602.583C243.349 603.917 238.028 605.001 234.191 605.735L229.621 606.586L228.37 606.803H227.936L228.353 606.686L229.604 606.419L234.158 605.485C237.994 604.701 243.315 603.567 249.17 602.249C255.025 600.931 260.296 599.647 264.182 598.696L268.702 597.578L269.937 597.295C270.046 597.272 270.158 597.26 270.27 597.262Z" fill="#263238"/>
<path d="M236.777 605.485C236.422 604.83 235.991 604.22 235.492 603.667C234.905 603.17 234.261 602.745 233.574 602.399C234.393 602.479 235.154 602.86 235.709 603.467C236.012 603.716 236.262 604.023 236.445 604.369C236.628 604.715 236.741 605.095 236.777 605.485Z" fill="#263238"/>
<path d="M243.365 600.347C243.365 600.347 242.865 600.081 242.381 599.63C241.898 599.18 241.564 598.763 241.631 598.713C241.697 598.663 242.131 598.98 242.615 599.43C243.099 599.88 243.432 600.264 243.365 600.347Z" fill="#263238"/>
<path d="M245.167 598.896C245.167 598.896 244.683 598.813 244.166 598.546C243.649 598.279 243.282 598.012 243.332 597.945C243.382 597.879 243.816 598.029 244.333 598.296C244.85 598.563 245.217 598.83 245.167 598.896Z" fill="#263238"/>
<path d="M245.967 596.411C245.583 596.653 245.15 596.807 244.7 596.861C244.272 597.012 243.817 597.069 243.365 597.028C243.757 596.803 244.187 596.65 244.633 596.578C245.063 596.437 245.516 596.38 245.967 596.411Z" fill="#263238"/>
<path d="M246.068 594.776C245.688 595.139 245.214 595.387 244.7 595.494C244.208 595.693 243.669 595.745 243.149 595.644C243.626 595.461 244.117 595.316 244.616 595.21C245.083 595.013 245.569 594.867 246.068 594.776Z" fill="#263238"/>
<path d="M242.081 598.596C241.547 598.8 240.984 598.918 240.413 598.946C239.82 599.006 239.222 599.006 238.628 598.946C238.268 598.935 237.91 598.884 237.561 598.796C237.356 598.737 237.178 598.607 237.06 598.429C237.007 598.323 236.989 598.202 237.01 598.084C237.031 597.967 237.09 597.86 237.177 597.779C237.725 597.365 238.392 597.141 239.079 597.141C239.765 597.141 240.433 597.365 240.98 597.779C241.291 598.016 241.547 598.318 241.731 598.663C241.809 598.783 241.855 598.92 241.864 599.063C241.591 598.635 241.247 598.257 240.847 597.945C240.387 597.633 239.85 597.454 239.295 597.428C238.621 597.372 237.949 597.568 237.411 597.979C237.194 598.212 237.411 598.479 237.678 598.563C237.999 598.648 238.329 598.698 238.662 598.713C239.217 598.758 239.775 598.758 240.33 598.713C241.464 598.596 242.064 598.463 242.081 598.596Z" fill="#263238"/>
<path d="M241.681 598.679C241.423 598.415 241.274 598.064 241.264 597.695C241.23 597.285 241.299 596.872 241.464 596.494C241.555 596.234 241.709 596 241.913 595.813C242.117 595.627 242.364 595.494 242.631 595.427C242.712 595.422 242.794 595.434 242.87 595.461C242.947 595.488 243.017 595.53 243.078 595.584C243.138 595.638 243.187 595.704 243.222 595.777C243.257 595.85 243.278 595.93 243.282 596.011C243.293 596.262 243.248 596.513 243.148 596.745C243.013 597.123 242.828 597.482 242.598 597.812C242.397 598.137 242.13 598.415 241.814 598.629C241.814 598.629 242.064 598.279 242.398 597.712C242.605 597.384 242.767 597.031 242.882 596.661C243.032 596.294 243.048 595.694 242.631 595.727C242.214 595.76 241.897 596.244 241.714 596.594C241.566 596.931 241.486 597.294 241.481 597.662C241.512 598.007 241.579 598.348 241.681 598.679Z" fill="#263238"/>
<path d="M268.352 591.023C267.733 591.147 267.12 591.303 266.517 591.49C265.097 591.975 263.827 592.82 262.831 593.942C261.892 595.044 261.274 596.383 261.046 597.812C260.896 598.896 261.046 599.58 260.946 599.58C260.881 599.433 260.847 599.274 260.846 599.113C260.793 598.675 260.793 598.233 260.846 597.795C261.01 596.301 261.627 594.893 262.614 593.759C263.645 592.599 264.98 591.75 266.467 591.307C266.917 591.163 267.381 591.068 267.852 591.023C268.169 590.99 268.352 590.99 268.352 591.023Z" fill="#263238"/>
<path d="M257.293 598.162C256.161 598.71 254.961 599.103 253.724 599.33C252.518 599.671 251.274 599.856 250.021 599.88C250.021 599.88 251.689 599.53 253.657 599.046C255.625 598.563 257.26 598.096 257.293 598.162Z" fill="#263238"/>
<path d="M262.18 597.061C262.264 597.061 262.18 597.412 262.03 597.795C261.88 598.179 261.93 598.513 261.83 598.529C261.73 598.546 261.63 598.179 261.73 597.745C261.83 597.312 262.114 597.011 262.18 597.061Z" fill="#263238"/>
<path d="M263.548 594.509C263.632 594.509 263.548 594.826 263.315 595.127C263.081 595.427 262.881 595.644 262.814 595.594C262.748 595.544 262.814 595.277 263.065 594.976C263.315 594.676 263.482 594.459 263.548 594.509Z" fill="#263238"/>
<path d="M265.983 592.942C265.983 593.025 265.65 593.092 265.3 593.292C264.949 593.492 264.749 593.742 264.666 593.692C264.582 593.642 264.666 593.292 265.149 593.042C265.633 592.791 265.983 592.858 265.983 592.942Z" fill="#263238"/>
<path d="M267.752 592.057C267.752 592.057 267.752 592.274 267.485 592.391C267.218 592.508 267.118 592.558 267.068 592.491C267.018 592.424 267.068 592.274 267.318 592.157C267.568 592.041 267.701 591.924 267.752 592.057Z" fill="#263238"/>
<path d="M186.72 89.1554C185.061 87.6224 182.945 86.6775 180.696 86.4665C178.447 86.2555 176.192 86.7901 174.277 87.9879C172.399 89.2437 170.825 90.9033 169.67 92.8456C168.516 94.7878 167.81 96.9635 167.605 99.2135C167.255 102.016 167.455 105.001 166.07 107.453C164.686 109.905 161.567 111.49 159.515 113.725C158.007 115.427 157.06 117.552 156.803 119.812C156.546 122.071 156.992 124.355 158.081 126.352C159.298 128.504 161.333 130.622 160.766 133.024C160.199 135.426 157.063 136.477 155.228 138.361C152.526 141.13 152.96 145.617 153.76 149.42C153.823 150.292 154.073 151.139 154.494 151.905C154.914 152.67 155.494 153.336 156.196 153.857C157.509 154.347 158.941 154.423 160.299 154.074C169.006 152.856 177.813 154.691 186.587 155.175C195.36 155.659 204.935 154.441 211.306 148.503" fill="#263238"/>
<path d="M219.096 105.986L219.947 176.642C219.864 180.829 218.142 184.817 215.151 187.749C212.16 190.68 208.139 192.322 203.951 192.321C199.708 192.321 195.639 190.636 192.64 187.636C189.64 184.636 187.954 180.568 187.954 176.325V153.757C187.954 153.757 176.695 151.889 174.36 137.194C173.193 129.888 173.56 117.895 174.177 108.104C174.744 99.2969 180.515 88.2047 192.258 88.2381C192.275 88.188 217.912 86.3866 219.096 105.986Z" fill="#FFBE9D"/>
<path d="M176.779 118.212C176.772 118.455 176.813 118.697 176.9 118.924C176.987 119.152 177.118 119.359 177.285 119.536C177.453 119.713 177.653 119.855 177.875 119.954C178.098 120.053 178.337 120.107 178.58 120.114C178.818 120.134 179.058 120.107 179.285 120.034C179.513 119.961 179.724 119.843 179.905 119.688C180.087 119.533 180.236 119.343 180.343 119.13C180.451 118.916 180.515 118.684 180.532 118.446C180.536 117.954 180.349 117.48 180.009 117.125C179.67 116.77 179.205 116.561 178.714 116.544C178.477 116.526 178.239 116.555 178.013 116.629C177.788 116.703 177.579 116.821 177.399 116.976C177.22 117.131 177.072 117.32 176.966 117.532C176.859 117.744 176.796 117.975 176.779 118.212Z" fill="#263238"/>
<path d="M176.378 116.177C176.612 116.427 178.046 115.36 180.065 115.376C182.083 115.393 183.568 116.394 183.801 116.144C184.035 115.894 183.668 115.593 183.017 115.126C182.152 114.513 181.117 114.184 180.056 114.184C178.996 114.184 177.961 114.513 177.096 115.126C176.462 115.627 176.262 116.077 176.378 116.177Z" fill="#263238"/>
<path d="M196.378 118.212C196.373 118.703 196.561 119.177 196.9 119.532C197.24 119.888 197.705 120.096 198.196 120.114C198.434 120.134 198.674 120.107 198.901 120.034C199.129 119.961 199.339 119.843 199.521 119.688C199.702 119.533 199.851 119.343 199.959 119.13C200.067 118.916 200.131 118.684 200.147 118.446C200.152 117.954 199.965 117.48 199.625 117.125C199.285 116.77 198.82 116.561 198.329 116.544C197.849 116.507 197.375 116.662 197.009 116.975C196.643 117.287 196.416 117.732 196.378 118.212Z" fill="#263238"/>
<path d="M196.311 116.177C196.545 116.427 197.979 115.376 199.997 115.376C202.016 115.376 203.517 116.394 203.734 116.144C203.95 115.894 203.617 115.593 202.966 115.126C202.097 114.514 201.06 114.185 199.997 114.185C198.934 114.185 197.897 114.514 197.028 115.126C196.411 115.627 196.194 116.077 196.311 116.177Z" fill="#263238"/>
<path d="M189.372 131.423C188.291 131.083 187.169 130.886 186.036 130.839C185.519 130.839 185.019 130.672 184.935 130.322C184.897 129.787 185.019 129.253 185.286 128.787C185.769 127.536 186.27 126.218 186.82 124.851C188.231 121.503 189.38 118.051 190.256 114.526C188.567 117.742 187.139 121.089 185.986 124.534C185.486 125.918 184.985 127.236 184.518 128.487C184.2 129.115 184.106 129.833 184.251 130.522C184.327 130.705 184.443 130.869 184.59 131.001C184.737 131.134 184.912 131.232 185.102 131.289C185.391 131.364 185.688 131.403 185.986 131.406C187.109 131.564 188.248 131.57 189.372 131.423Z" fill="#263238"/>
<path d="M187.971 153.757C194.892 153.861 201.705 152.042 207.654 148.503C207.654 148.503 202.883 158.611 188.171 157.227L187.971 153.757Z" fill="#EB996E"/>
<path d="M190.24 138.395C190.061 138.085 189.973 137.731 189.988 137.374C190.003 137.016 190.119 136.67 190.323 136.377C190.539 136.091 190.836 135.877 191.175 135.761C191.513 135.646 191.879 135.633 192.225 135.726C192.183 135.368 192.267 135.006 192.462 134.702C192.656 134.398 192.949 134.171 193.292 134.058C193.63 133.957 193.987 133.936 194.334 133.996C194.682 134.057 195.01 134.198 195.294 134.408C195.838 134.815 196.233 135.391 196.417 136.045C196.601 136.7 196.564 137.397 196.311 138.028C196.043 138.655 195.589 139.184 195.01 139.545C194.431 139.906 193.756 140.081 193.075 140.046C192.395 139.999 191.741 139.768 191.183 139.377C190.624 138.986 190.183 138.45 189.906 137.828" fill="#EB996E"/>
<path d="M195.344 132.824C195.01 132.824 195.01 135.009 193.125 136.577C191.24 138.145 188.905 137.894 188.889 138.245C188.872 138.595 189.406 138.662 190.39 138.695C191.682 138.711 192.939 138.274 193.943 137.461C194.877 136.666 195.474 135.544 195.611 134.325C195.744 133.357 195.494 132.824 195.344 132.824Z" fill="#263238"/>
<path d="M194.543 112.624C194.743 113.175 196.761 112.924 199.147 113.208C201.532 113.492 203.45 114.142 203.767 113.642C203.9 113.408 203.567 112.891 202.8 112.357C201.762 111.696 200.588 111.278 199.366 111.137C198.144 110.995 196.905 111.133 195.744 111.54C194.893 111.94 194.46 112.374 194.543 112.624Z" fill="#263238"/>
<path d="M176.645 112.257C177.012 112.724 178.413 112.257 180.081 112.257C181.749 112.257 183.184 112.574 183.518 112.09C183.851 111.607 183.434 111.39 182.817 110.956C181.991 110.417 181.016 110.154 180.031 110.206C179.041 110.218 178.079 110.539 177.279 111.123C176.695 111.54 176.495 112.04 176.645 112.257Z" fill="#263238"/>
<path d="M208.621 132.824C208.504 134.775 208.504 136.477 208.538 137.944C208.589 140.248 209.244 142.497 210.439 144.468C211.633 146.438 213.324 148.06 215.343 149.17C218.441 150.999 221.915 152.1 225.501 152.389C229.402 152.359 233.262 151.589 236.877 150.121C243.16 147.897 249.342 145.434 255.425 142.732C255.933 142.614 256.407 142.379 256.807 142.045C257.208 141.711 257.525 141.288 257.733 140.809C257.94 140.331 258.033 139.81 258.003 139.29C257.973 138.769 257.821 138.263 257.56 137.811L255.008 129.471C254.592 127.845 253.964 126.28 253.14 124.817C252.312 123.335 250.934 122.238 249.303 121.765C247.969 121.431 246.535 121.681 245.234 121.214C244.553 120.918 243.94 120.485 243.432 119.943C242.924 119.401 242.533 118.761 242.281 118.062C241.79 116.668 241.421 115.233 241.18 113.775C240.48 110.656 239.012 107.387 236.176 106.069C234.508 105.318 232.623 105.302 230.955 104.618C228.65 103.48 226.806 101.584 225.735 99.2469C224.682 96.9237 223.507 94.6576 222.215 92.4581C221.168 90.8364 219.665 89.5598 217.895 88.7885C216.988 87.9351 215.979 87.1956 214.893 86.5867C210.022 83.9012 204.151 84.0847 198.613 84.3349C193.075 84.5851 180.932 79.4644 180.148 93.6924C180.614 93.1691 181.195 92.7617 181.846 92.5026C182.497 92.2435 183.199 92.1397 183.897 92.1997C184.595 92.2596 185.27 92.4815 185.867 92.8478C186.464 93.2141 186.967 93.7146 187.337 94.3096C188.528 96.1125 188.959 98.3121 188.538 100.431C188.121 102.816 187.821 105.435 189.122 107.52C189.865 108.522 190.859 109.311 192.004 109.806C193.149 110.301 194.405 110.485 195.644 110.339C198.118 110 200.512 109.226 202.716 108.054C202.716 108.054 204.518 117.361 210.706 119.613L208.621 132.824Z" fill="#263238"/>
<path d="M249.537 145.033C249.868 144.897 250.178 144.711 250.454 144.483C250.796 144.115 251.041 143.668 251.166 143.181C251.291 142.695 251.293 142.185 251.172 141.697C250.928 140.948 250.492 140.276 249.906 139.749C249.32 139.222 248.606 138.859 247.836 138.695C246.051 138.061 243.732 138.145 241.431 137.027C240.234 136.382 239.276 135.37 238.695 134.141C238.1 132.849 237.717 131.469 237.561 130.055C237.194 127.186 237.444 124 235.893 121.264C235.083 119.909 233.827 118.877 232.34 118.345C230.752 117.783 229.098 117.43 227.419 117.295C225.607 117.166 223.813 116.853 222.065 116.361C220.164 115.881 218.493 114.747 217.345 113.158C216.425 111.463 215.997 109.545 216.11 107.62C216.211 105.912 215.932 104.203 215.293 102.616C214.901 101.924 214.334 101.347 213.649 100.943C212.964 100.539 212.185 100.322 211.39 100.314C209.781 100.247 208.171 100.433 206.619 100.865C205.071 101.296 203.473 101.526 201.866 101.549C201.073 101.577 200.282 101.443 199.542 101.157C198.803 100.87 198.129 100.436 197.562 99.8807C196.594 98.7709 196.009 97.379 195.894 95.9109C195.727 94.5598 195.694 93.2921 195.544 92.0911C195.45 90.9727 195.12 89.8869 194.576 88.9053C194.057 88.0546 193.32 87.3579 192.441 86.887C191.736 86.5035 190.961 86.2632 190.163 86.1802C189.364 86.0972 188.557 86.173 187.788 86.4033C186.792 86.7017 185.871 87.2076 185.085 87.8878C184.552 88.3382 184.318 88.6384 184.285 88.6217C184.251 88.605 184.285 88.5216 184.435 88.3715C184.594 88.1501 184.772 87.9435 184.969 87.7544C185.737 87 186.667 86.4297 187.688 86.0864C188.503 85.8076 189.367 85.6964 190.227 85.7595C191.087 85.8225 191.925 86.0585 192.692 86.4533C193.656 86.9498 194.473 87.692 195.06 88.605C195.66 89.6263 196.035 90.7635 196.161 91.941C196.344 93.1754 196.394 94.4597 196.578 95.7607C196.689 97.0772 197.222 98.3229 198.096 99.3136C198.601 99.7891 199.196 100.158 199.847 100.399C200.497 100.64 201.189 100.747 201.882 100.715C203.423 100.664 204.952 100.429 206.436 100.014C208.061 99.5474 209.75 99.3391 211.44 99.397C212.376 99.4149 213.292 99.6767 214.096 100.156C214.901 100.636 215.566 101.317 216.027 102.133C217.695 105.619 216.127 109.639 218.062 112.658C219.095 114.076 220.595 115.086 222.299 115.51C223.996 115.969 225.733 116.27 227.486 116.411C229.247 116.56 230.98 116.941 232.64 117.545C234.297 118.164 235.684 119.344 236.56 120.881C238.228 123.933 237.878 127.219 238.228 129.971C238.578 132.724 239.546 135.409 241.664 136.51C243.782 137.611 246.068 137.594 247.936 138.278C248.776 138.466 249.55 138.874 250.18 139.461C250.811 140.047 251.274 140.79 251.522 141.614C251.638 142.15 251.613 142.707 251.449 143.23C251.285 143.754 250.989 144.225 250.588 144.6C250.45 144.738 250.287 144.848 250.106 144.923C249.926 144.997 249.732 145.035 249.537 145.033Z" fill="#455A64"/>
<path d="M161.85 154.758C161.85 154.758 161.583 154.641 161.116 154.341C160.469 153.832 159.906 153.224 159.448 152.539C158.726 151.445 158.259 150.202 158.081 148.903C157.815 147.162 158.089 145.381 158.865 143.799C159.986 142.039 161.422 140.501 163.101 139.262C163.922 138.553 164.558 137.654 164.953 136.643C165.32 135.552 165.267 134.362 164.803 133.307C163.935 131.072 162.034 129.204 160.683 126.752C159.975 125.473 159.556 124.055 159.455 122.597C159.354 121.139 159.574 119.676 160.099 118.312C160.72 116.925 161.75 115.761 163.051 114.976C164.22 114.324 165.278 113.491 166.187 112.507C167.671 110.461 168.529 108.027 168.656 105.502C168.923 103.067 168.856 100.681 169.156 98.4629C169.337 96.3693 169.951 94.336 170.958 92.4915C171.842 90.9749 173.211 89.7998 174.844 89.1555C176.09 88.6501 177.484 88.6501 178.73 89.1555C179.512 89.5022 180.166 90.0856 180.599 90.8235C180.771 91.0543 180.885 91.3232 180.932 91.6074C180.413 90.6716 179.589 89.9417 178.597 89.5391C177.432 89.1149 176.15 89.1507 175.011 89.6392C173.494 90.3214 172.254 91.4973 171.491 92.9752C170.537 94.7488 169.968 96.7042 169.823 98.7131C169.573 100.881 169.656 103.233 169.406 105.752C169.279 108.445 168.369 111.042 166.788 113.225C165.822 114.275 164.696 115.164 163.452 115.86C162.291 116.535 161.37 117.556 160.816 118.779C160.343 120.026 160.145 121.36 160.237 122.691C160.33 124.021 160.709 125.316 161.35 126.485C162.584 128.77 164.536 130.689 165.47 133.157C165.962 134.369 166.009 135.717 165.603 136.96C165.152 138.086 164.43 139.083 163.502 139.863C161.861 141.03 160.443 142.482 159.315 144.149C158.574 145.617 158.284 147.271 158.481 148.903C158.614 150.146 159.012 151.347 159.648 152.423C160.254 153.313 160.997 154.101 161.85 154.758Z" fill="#455A64"/>
<path d="M227.436 96.4279C227.395 96.1967 227.443 95.9584 227.569 95.7607C227.758 95.4703 228.022 95.2372 228.334 95.0872C228.646 94.9371 228.993 94.8758 229.337 94.91C229.854 95.005 230.348 95.2013 230.788 95.4875C231.229 95.7738 231.609 96.1444 231.906 96.578C232.773 97.66 233.348 98.9466 233.574 100.314C233.733 101.177 233.645 102.066 233.321 102.881C232.996 103.695 232.448 104.401 231.739 104.918C230.906 105.449 229.968 105.793 228.989 105.929C228.011 106.064 227.014 105.987 226.068 105.702C223.991 105.121 222.17 103.858 220.897 102.116C219.593 100.215 218.89 97.9659 218.879 95.6606C218.892 93.4807 218.764 91.3022 218.495 89.1388C218.241 87.1836 217.258 85.3964 215.743 84.1348C215.007 83.6694 214.185 83.3559 213.325 83.2127C212.466 83.0695 211.587 83.0994 210.739 83.3008C209.187 83.6692 207.665 84.1543 206.186 84.7519C204.917 85.252 203.588 85.5828 202.232 85.7361C201.195 85.8209 200.151 85.6961 199.163 85.3691C198.545 85.1594 197.978 84.8244 197.495 84.385C197.314 84.2473 197.166 84.0706 197.062 83.8679C197.729 84.3854 198.479 84.7859 199.28 85.0522C200.225 85.3067 201.211 85.3747 202.182 85.2523C203.484 85.0535 204.755 84.6949 205.969 84.1848C207.465 83.5214 209.017 82.9911 210.606 82.6002C211.556 82.3539 212.547 82.3053 213.516 82.4574C214.486 82.6094 215.414 82.9589 216.244 83.4842C217.956 84.8417 219.079 86.8073 219.38 88.972C219.671 91.1838 219.81 93.4131 219.797 95.644C219.804 97.7824 220.443 99.8711 221.631 101.649C222.789 103.248 224.443 104.421 226.335 104.985C227.166 105.24 228.041 105.317 228.903 105.21C229.765 105.104 230.595 104.817 231.339 104.368C231.959 103.939 232.445 103.343 232.741 102.649C233.036 101.955 233.128 101.192 233.007 100.448C232.813 99.1694 232.302 97.9598 231.523 96.9283C231.022 96.1104 230.229 95.514 229.304 95.2603C229.011 95.2197 228.712 95.2535 228.435 95.3584C228.158 95.4633 227.912 95.6361 227.72 95.8608C227.436 96.1777 227.519 96.4279 227.436 96.4279Z" fill="#263238"/>
<path d="M202.232 123.533C202.212 123.587 202.181 123.636 202.142 123.678C202.102 123.72 202.054 123.754 202.001 123.777C201.949 123.801 201.892 123.813 201.834 123.814C201.776 123.815 201.719 123.805 201.665 123.783C201.613 123.762 201.565 123.729 201.525 123.689C201.486 123.648 201.455 123.6 201.434 123.546C201.414 123.493 201.405 123.437 201.407 123.38C201.41 123.323 201.424 123.267 201.449 123.216C201.469 123.164 201.499 123.117 201.538 123.077C201.577 123.037 201.623 123.005 201.674 122.983C201.726 122.961 201.781 122.95 201.837 122.95C201.892 122.95 201.948 122.961 201.999 122.983C202.051 123.003 202.098 123.033 202.138 123.072C202.178 123.111 202.21 123.157 202.232 123.208C202.254 123.26 202.265 123.315 202.265 123.371C202.265 123.426 202.254 123.482 202.232 123.533Z" fill="#263238"/>
<path d="M386.213 208.901C383.794 206.149 371.818 215.573 370.751 216.357C369.683 217.141 368.582 215.556 369.583 214.956C371.034 214.089 385.963 204.581 383.611 201.846C382.326 200.328 379.824 202.913 379.824 202.913C379.824 202.913 366.48 212.838 365.446 211.52C364.412 210.202 371.985 204.081 374.704 202.212C377.423 200.344 377.589 198.326 375.788 197.826C374.554 197.475 366.113 203.013 363.461 204.931C360.809 206.85 353.67 212.22 355.038 206.699C356.406 201.178 355.372 196.425 354.204 195.34C353.036 194.256 351.085 195.474 351.418 197.208C351.583 199.126 351.482 201.057 351.118 202.946C350.885 204.49 350.382 205.98 349.634 207.35C348.8 208.918 347.966 210.202 347.332 211.286C340.36 215.089 318.509 226.048 297.842 227.966C295.306 228.332 292.719 228.098 290.288 227.285C287.858 226.471 285.653 225.099 283.848 223.279L272.889 210.219L251.739 226.315C251.739 226.315 258.327 234.505 267.501 245.564C291.504 274.504 361.36 229.751 361.36 229.751C367.082 227.61 372.683 225.16 378.14 222.412C385.546 218.292 385.179 217.625 384.545 216.858C382.877 214.756 371.201 223.613 372.652 220.194C374.103 216.774 388.048 211.019 386.213 208.901Z" fill="#FFBE9D"/>
<path d="M4.34094 0.000854492C5.78036 1.23249 7.11388 2.58275 8.32747 4.03742C10.696 6.60614 13.8986 10.2257 17.3347 14.3123C20.7708 18.3989 23.7898 22.2019 25.9249 24.9708C27.1639 26.421 28.2798 27.9721 29.2609 29.6078C27.9127 28.2789 26.6586 26.8577 25.5079 25.3545L16.7509 14.8794L7.92714 4.43774C6.62021 3.05251 5.42131 1.56921 4.34094 0.000854492Z" fill="#263238"/>
<path d="M32.747 5.28845C33.1977 8.43626 33.3541 11.6192 33.214 14.796C33.3639 17.9764 33.23 21.1638 32.8137 24.3203C32.3396 21.1691 32.1609 17.9805 32.2799 14.796C32.1531 11.6193 32.3094 8.43751 32.747 5.28845Z" fill="#263238"/>
<path d="M53.964 17.5815C54.1141 17.765 52.6963 19.2495 50.7781 20.9175C49.6894 22.0407 48.4139 22.9663 47.0084 23.6531C46.8416 23.4696 48.2761 21.9851 50.1943 20.3171C51.2761 19.1859 52.5531 18.2592 53.964 17.5815Z" fill="#263238"/>
<path d="M287.784 505.005C287.784 505.005 277.476 525.021 250.538 515.329C250.538 515.329 224.183 529.641 198.98 513.661C198.98 513.661 166.337 518.048 148.573 509.458L171.408 312.467L178.08 271.785L241.347 264.396C241.347 264.396 257.76 276.805 268.369 335.869C276.809 382.807 282.13 452.362 282.13 452.362L287.784 505.005Z" fill="#D2D5FF"/>
<path d="M217.111 267.148C217.361 267.148 221.281 323.86 225.885 393.699C230.488 463.538 234.025 520.3 233.774 520.317C233.524 520.333 229.621 463.605 225.017 393.749C220.414 323.893 216.878 267.164 217.111 267.148Z" fill="white"/>
<path d="M232.99 265.296C233.043 265.509 233.071 265.727 233.074 265.947C233.074 266.414 233.174 267.048 233.257 267.848C233.391 269.516 233.574 272.035 233.824 275.188L235.926 302.209C237.761 325.011 240.546 356.503 244.066 391.23C247.585 425.958 251.138 457.383 253.724 480.118C255.008 491.46 256.059 500.634 256.793 507.04C257.126 510.192 257.393 512.644 257.577 514.379L257.777 516.28C257.777 516.714 257.777 516.931 257.777 516.931C257.709 516.725 257.664 516.513 257.643 516.297C257.643 515.813 257.493 515.196 257.377 514.395C257.143 512.727 256.826 510.225 256.409 507.09C255.625 500.685 254.491 491.51 253.073 480.201C250.338 457.483 246.701 426.075 243.165 391.314C239.629 356.553 236.927 325.077 235.259 302.259C234.425 290.85 233.808 281.609 233.441 275.221C233.257 272.068 233.124 269.583 233.024 267.865C233.024 267.048 233.024 266.414 232.94 265.947C232.935 265.729 232.952 265.511 232.99 265.296Z" fill="white"/>
<path d="M279.828 511.677C279.786 511.467 279.758 511.256 279.744 511.043C279.744 510.576 279.644 509.942 279.578 509.141C279.461 507.473 279.277 504.988 279.044 501.852C278.56 495.464 277.876 486.323 277.026 475.031C275.224 452.413 272.405 421.154 267.618 386.843C265.166 369.696 262.397 353.483 259.578 338.688C258.077 331.332 256.726 324.327 255.208 317.838C254.474 314.586 253.774 311.433 253.09 308.414C252.406 305.395 251.639 302.526 250.955 299.757C249.654 294.236 248.253 289.299 247.102 284.945C246.501 282.777 245.967 280.742 245.434 278.874C244.9 277.006 244.399 275.338 243.949 273.87L241.914 266.864C241.697 266.08 241.531 265.48 241.414 265.029C241.342 264.824 241.292 264.611 241.264 264.396C241.358 264.589 241.436 264.79 241.497 264.996C241.631 265.446 241.831 266.047 242.081 266.797L244.283 273.786L245.834 278.79L247.502 284.845C248.703 289.199 250.154 294.136 251.489 299.64C252.189 302.409 252.906 305.295 253.674 308.297C254.441 311.3 255.091 314.452 255.842 317.705C257.393 324.21 258.761 331.216 260.296 338.571C263.165 353.317 265.95 369.596 268.402 386.76C273.206 421.087 275.925 452.379 277.576 475.031C278.393 486.356 278.961 495.514 279.244 501.869C279.411 505.005 279.528 507.457 279.628 509.175C279.628 509.975 279.628 510.592 279.628 511.076C279.715 511.269 279.782 511.47 279.828 511.677Z" fill="white"/>
<path d="M203.317 268.766C203.34 268.976 203.34 269.189 203.317 269.4C203.317 269.85 203.317 270.467 203.4 271.251C203.4 272.919 203.517 275.338 203.617 278.407C203.784 284.628 203.934 293.636 204.017 304.744C204.184 326.996 203.851 357.72 202.9 391.647C201.949 425.574 200.748 456.282 199.897 478.5C199.447 489.576 199.08 498.516 198.83 504.821C198.696 507.89 198.58 510.292 198.513 511.977C198.513 512.761 198.429 513.378 198.396 513.828C198.424 514.039 198.424 514.252 198.396 514.462C198.378 514.251 198.378 514.039 198.396 513.828C198.396 513.361 198.396 512.744 198.396 511.96C198.396 510.292 198.496 507.873 198.563 504.804C198.746 498.549 199.013 489.559 199.347 478.483C200.064 456.249 201.182 425.541 202.149 391.614C203.117 357.687 203.534 326.996 203.517 304.744C203.517 293.636 203.517 284.628 203.383 278.423C203.383 275.354 203.383 272.936 203.383 271.251C203.383 270.467 203.383 269.85 203.383 269.4C203.335 269.192 203.312 268.979 203.317 268.766Z" fill="white"/>
<path d="M178.063 513.711C178.038 513.501 178.038 513.288 178.063 513.078C178.063 512.611 178.063 512.01 178.063 511.226C178.063 509.558 178.063 507.156 178.063 504.12C178.063 497.932 178.063 488.992 178.18 477.95C178.447 455.865 179.298 425.341 181.199 391.697C183.101 358.054 185.669 327.613 187.871 305.628C188.972 294.636 189.939 285.746 190.69 279.624L191.541 272.552L191.791 270.717C191.814 270.509 191.853 270.302 191.908 270.1C191.926 270.311 191.926 270.523 191.908 270.734C191.908 271.201 191.824 271.801 191.757 272.585L191.057 279.658C190.423 285.796 189.539 294.67 188.522 305.679C186.453 327.679 183.985 358.087 182.083 391.747C180.182 425.408 179.231 455.882 178.747 477.966C178.53 489.008 178.397 497.982 178.347 504.12C178.347 507.156 178.347 509.558 178.247 511.226C178.247 512.01 178.247 512.611 178.247 513.078C178.208 513.295 178.146 513.507 178.063 513.711Z" fill="white"/>
<path d="M180.565 271.418C180.58 271.623 180.58 271.829 180.565 272.035C180.565 272.485 180.482 273.102 180.432 273.853C180.282 275.521 180.065 277.856 179.798 280.859C179.247 286.93 178.397 295.721 177.296 306.563C175.077 328.247 171.791 358.271 167.855 391.264C163.919 424.257 160.099 454.214 157.297 475.831C155.862 486.606 154.711 495.347 153.961 501.435C153.544 504.421 153.227 506.756 152.993 508.391C152.876 509.158 152.793 509.758 152.71 510.209C152.688 510.412 152.649 510.613 152.593 510.809C152.574 510.604 152.574 510.397 152.593 510.192L152.793 508.374C152.976 506.706 153.243 504.387 153.594 501.402C154.328 495.297 155.395 486.556 156.713 475.764C159.348 454.08 163.001 424.173 167.021 391.163C171.041 358.154 174.343 328.18 176.712 306.496C177.88 295.704 178.83 286.93 179.498 280.825C179.831 277.823 180.098 275.488 180.282 273.836C180.382 273.086 180.448 272.485 180.515 272.035C180.51 271.828 180.526 271.621 180.565 271.418Z" fill="white"/>
<g opacity="0.3">
<path opacity="0.3" d="M203.5 346.528C197.662 397.535 191.207 447.709 190.64 499.033C190.64 502.936 190.64 507.106 192.825 510.342C195.01 513.578 200.181 515.046 202.833 512.177C204.734 510.125 204.501 506.956 204.234 504.171C198.563 451.762 199.68 399.087 203.5 346.528Z" fill="black"/>
</g>
<g opacity="0.3">
<path opacity="0.3" d="M250.538 515.329C248.87 480.018 248.136 440.153 244.95 403.957C253.29 434.215 255.742 464.472 264.115 494.73C265.116 498.333 267.351 504.187 267.051 507.924C266.751 511.66 265.583 515.313 262.214 516.931C258.844 518.549 250.021 516.931 250.538 515.263" fill="black"/>
</g>
<path d="M357.373 99.3136L352.052 161.03L321.144 158.561C320.944 154.958 321.144 140.997 321.144 140.997C321.144 140.997 308.284 138.995 308.117 126.135C308.034 119.897 308.935 106.986 309.785 95.3604C310.289 89.1634 313.197 83.4094 317.889 79.329C322.58 75.2487 328.682 73.166 334.889 73.5263C338.076 73.6915 341.198 74.4962 344.069 75.8925C346.939 77.2888 349.499 79.2481 351.597 81.654C353.695 84.0599 355.287 86.8631 356.279 89.8969C357.272 92.9307 357.644 96.1331 357.373 99.3136Z" fill="#EB996E"/>
<path d="M321.178 140.797C327.116 140.911 332.953 139.25 337.941 136.026C337.941 136.026 333.988 145.284 321.144 144.133L321.178 140.797Z" fill="#D1734A"/>
<path d="M313.088 103.901C313.087 104.378 313.271 104.836 313.6 105.181C313.93 105.526 314.379 105.731 314.856 105.752C315.091 105.77 315.327 105.741 315.551 105.667C315.774 105.592 315.981 105.474 316.158 105.318C316.335 105.163 316.479 104.974 316.582 104.762C316.685 104.55 316.745 104.319 316.757 104.084C316.758 103.607 316.574 103.148 316.245 102.803C315.916 102.459 315.466 102.254 314.989 102.233C314.754 102.214 314.518 102.244 314.295 102.318C314.071 102.392 313.865 102.511 313.687 102.666C313.51 102.822 313.366 103.011 313.263 103.223C313.16 103.435 313.1 103.665 313.088 103.901Z" fill="#263238"/>
<path d="M312.687 101.832C312.921 102.066 314.355 101.048 316.29 101.048C318.225 101.048 319.71 102.032 319.927 101.799C320.143 101.565 319.793 101.265 319.159 100.798C318.305 100.211 317.293 99.8971 316.257 99.8974C315.227 99.9062 314.225 100.232 313.388 100.831C312.788 101.282 312.504 101.715 312.687 101.832Z" fill="#263238"/>
<path d="M332.52 104.351C332.515 104.831 332.697 105.294 333.027 105.642C333.357 105.991 333.809 106.197 334.288 106.219C334.523 106.237 334.759 106.208 334.983 106.134C335.206 106.059 335.413 105.941 335.59 105.785C335.767 105.63 335.911 105.441 336.014 105.229C336.117 105.017 336.177 104.786 336.19 104.551C336.194 104.073 336.012 103.612 335.682 103.266C335.352 102.92 334.899 102.717 334.422 102.7C334.188 102.681 333.953 102.71 333.73 102.783C333.508 102.857 333.302 102.974 333.125 103.127C332.948 103.281 332.804 103.468 332.7 103.678C332.596 103.888 332.535 104.117 332.52 104.351Z" fill="#263238"/>
<path d="M332.103 102.199C332.336 102.433 333.771 101.415 335.706 101.415C337.641 101.415 339.042 102.399 339.342 102.166C339.642 101.932 339.225 101.632 338.591 101.165C337.731 100.578 336.714 100.264 335.672 100.264C334.643 100.273 333.641 100.599 332.804 101.198C332.203 101.665 332.003 102.099 332.103 102.199Z" fill="#263238"/>
<path d="M324.947 116.844C323.899 116.534 322.819 116.344 321.728 116.277C321.228 116.277 320.744 116.127 320.661 115.777C320.623 115.254 320.739 114.733 320.994 114.275C321.478 113.058 321.978 111.773 322.495 110.439C323.865 107.195 324.98 103.848 325.831 100.431C324.178 103.557 322.788 106.815 321.678 110.172C321.178 111.523 320.694 112.808 320.244 114.042C319.93 114.654 319.836 115.354 319.977 116.027C320.055 116.202 320.17 116.358 320.314 116.485C320.458 116.611 320.627 116.706 320.811 116.761C321.094 116.835 321.385 116.875 321.678 116.878C322.764 117.015 323.864 117.004 324.947 116.844Z" fill="#263238"/>
<path d="M330.752 118.212C330.435 118.212 330.435 120.347 328.6 121.865C326.765 123.383 324.48 123.149 324.464 123.45C324.447 123.75 324.964 123.867 325.931 123.9C327.187 123.914 328.408 123.489 329.384 122.699C330.319 121.932 330.917 120.831 331.052 119.63C331.136 118.729 330.852 118.212 330.752 118.212Z" fill="#263238"/>
<path d="M331.603 94.4597C331.803 94.9934 333.771 94.7432 336.09 95.0101C338.408 95.277 340.276 95.9275 340.593 95.4438C340.727 95.2103 340.393 94.7099 339.642 94.1928C338.639 93.5442 337.495 93.1439 336.306 93.0252C335.122 92.88 333.921 93.0231 332.804 93.4422C331.936 93.7758 331.519 94.1928 331.603 94.4597Z" fill="#263238"/>
<path d="M313.421 96.111C313.755 96.5614 315.089 96.111 316.757 96.111C318.425 96.111 319.776 96.4113 320.093 95.9442C320.41 95.4772 320.093 95.2603 319.41 94.8433C318.607 94.3085 317.654 94.0453 316.691 94.0927C315.729 94.1203 314.798 94.4403 314.022 95.0101C313.455 95.4271 313.255 95.8942 313.421 96.111Z" fill="#263238"/>
<path d="M343.412 85.2023C345.467 86.8093 346.814 89.1555 347.165 91.7409V91.991C347.682 95.6606 347.582 99.397 348.116 103.05C348.457 106.798 350.049 110.323 352.636 113.058C353.754 114.092 355.722 114.726 356.639 113.592C356.946 113.09 357.102 112.511 357.09 111.924C357.774 103.067 360.192 95.2437 360.175 85.9529C360.181 84.7125 359.89 83.4887 359.327 82.3833C358.765 81.2779 357.946 80.3229 356.94 79.5978C355.005 78.2134 352.636 76.7789 350.484 77.7964C348.333 78.8139 345.48 82.8004 343.812 84.5518" fill="#263238"/>
<path d="M353.036 105.118C353.253 105.035 361.86 102.516 361.577 111.307C361.293 120.097 352.536 117.979 352.536 117.745C352.536 117.512 353.036 105.118 353.036 105.118Z" fill="#EB996E"/>
<path d="M355.322 114.509C355.322 114.509 355.472 114.609 355.722 114.743C356.091 114.892 356.504 114.892 356.873 114.743C357.452 114.403 357.928 113.914 358.254 113.327C358.58 112.741 358.742 112.077 358.724 111.407C358.775 110.656 358.655 109.903 358.374 109.205C358.3 108.927 358.159 108.671 357.965 108.459C357.77 108.247 357.527 108.085 357.256 107.987C357.081 107.937 356.893 107.949 356.726 108.022C356.558 108.095 356.421 108.224 356.339 108.388C356.222 108.621 356.339 108.805 356.222 108.805C356.106 108.805 356.039 108.654 356.122 108.304C356.172 108.081 356.303 107.885 356.489 107.754C356.736 107.579 357.041 107.508 357.34 107.554C357.697 107.64 358.026 107.816 358.297 108.064C358.568 108.311 358.773 108.624 358.891 108.971C359.241 109.745 359.396 110.593 359.341 111.44C359.362 112.223 359.15 112.995 358.731 113.657C358.312 114.32 357.706 114.842 356.99 115.16C356.751 115.221 356.501 115.23 356.259 115.183C356.017 115.137 355.788 115.038 355.588 114.893C355.338 114.709 355.288 114.509 355.322 114.509Z" fill="#D1734A"/>
<path d="M350.868 79.1141C353.02 75.5946 347.098 70.5572 342.762 69.1895C338.425 67.8217 332.753 69.9234 328.383 71.3579C325.664 72.2753 322.946 73.5263 320.043 73.4095C318.127 73.2098 316.251 72.7321 314.472 71.9917C312.696 71.2349 310.782 70.8544 308.851 70.8742C307.887 70.8971 306.947 71.1826 306.133 71.6999C305.319 72.2172 304.661 72.9467 304.231 73.8099C304.051 74.2479 303.967 74.7192 303.983 75.1924C304 75.6656 304.117 76.1298 304.327 76.5542C304.537 76.9787 304.834 77.3536 305.2 77.654C305.566 77.9545 305.992 78.1736 306.449 78.2968C305.837 77.9608 305.153 77.7782 304.455 77.7646C303.757 77.7509 303.066 77.9067 302.441 78.2186C301.816 78.5304 301.276 78.9891 300.868 79.5552C300.459 80.1213 300.194 80.7781 300.094 81.4692C299.995 82.1603 300.065 82.8652 300.297 83.5235C300.53 84.1818 300.919 84.7739 301.43 85.2491C301.942 85.7243 302.561 86.0684 303.235 86.252C303.908 86.4356 304.616 86.4531 305.298 86.3032C304.047 85.3524 302.129 86.9203 302.279 88.4716C302.455 89.2395 302.825 89.9494 303.353 90.5335C303.882 91.1176 304.552 91.5563 305.298 91.8076C309.082 93.1767 313.236 93.1114 316.974 91.6241C320.777 90.3397 324.297 88.2881 328.05 86.987C331.803 85.686 338.058 83.1506 341.894 84.485C344.663 85.4692 346.598 88.8218 348.166 88.0712C348.907 87.676 349.545 87.1125 350.029 86.4259C350.512 85.7394 350.828 84.9489 350.951 84.1181C351.162 82.4518 351.106 80.7626 350.785 79.1141" fill="#263238"/>
<path d="M305.432 78.0632C305.515 78.0632 305.899 78.7138 306.833 79.7312C308.182 81.1635 309.859 82.2456 311.72 82.8838C314.441 83.8486 317.43 83.7231 320.06 82.5335C323.046 81.1991 325.598 78.5136 328.55 75.9949C331.276 73.4351 334.723 71.7755 338.425 71.2411C339.945 71.0718 341.483 71.2463 342.927 71.7515C344.37 72.2568 345.682 73.0799 346.765 74.1601C347.483 74.9157 348.04 75.8097 348.401 76.7877C348.763 77.7656 348.921 78.8069 348.866 79.848C348.833 80.42 348.709 80.983 348.499 81.516C348.426 81.6992 348.331 81.8729 348.216 82.0331C348.374 81.3302 348.48 80.6166 348.533 79.8981C348.537 77.9409 347.784 76.0579 346.431 74.6439C345.392 73.6596 344.145 72.9209 342.782 72.4822C341.42 72.0434 339.976 71.9157 338.558 72.1085C335.03 72.6694 331.752 74.2794 329.151 76.7289C326.265 79.1975 323.629 81.9497 320.427 83.4009C318.067 84.4078 315.446 84.627 312.952 84.026C310.458 83.4251 308.224 82.036 306.583 80.0649C306.225 79.6458 305.917 79.1868 305.665 78.6971C305.556 78.4988 305.477 78.2851 305.432 78.0632Z" fill="#455A64"/>
<path d="M355.271 104.735C355.271 104.735 354.888 104.501 354.554 103.801C354.115 102.8 353.965 101.696 354.121 100.615C354.321 97.779 356.823 94.7433 357.14 90.8401C357.362 89.031 357.025 87.1971 356.172 85.5859C355.403 84.3028 354.23 83.3113 352.836 82.767C351.91 82.3758 350.897 82.2376 349.9 82.3667C349.183 82.4834 348.816 82.6336 348.783 82.5669C348.75 82.5001 349.083 82.2666 349.834 82.0331C350.893 81.7642 352.007 81.8165 353.036 82.1832C354.595 82.7238 355.92 83.7839 356.789 85.1856C357.773 86.9212 358.176 88.9259 357.94 90.9069C357.72 92.8431 357.156 94.7243 356.272 96.4613C355.556 97.7958 355.023 99.2209 354.688 100.698C354.466 102.072 354.67 103.48 355.271 104.735Z" fill="#455A64"/>
<path d="M305.699 598.146L305.615 581.466L336.723 581.099L337.124 605.401L335.205 605.552C326.615 606.135 291.521 607.887 285.766 606.219C279.327 604.434 305.699 598.146 305.699 598.146Z" fill="#ECEFF1"/>
<g opacity="0.4">
<path opacity="0.4" d="M325.848 605.351C326.278 602.721 327.668 600.343 329.751 598.679C331.78 597.008 334.367 596.168 336.99 596.328L337.107 605.018L325.848 605.351Z" fill="black"/>
</g>
<g opacity="0.4">
<path opacity="0.4" d="M292.822 601.682C292.822 601.682 283.581 604.467 284.765 605.969C285.95 607.47 321.461 607.036 337.124 605.468V604.768L295.674 605.652C295.674 605.652 294.64 601.732 292.822 601.682Z" fill="black"/>
</g>
<path d="M337.524 604.751H336.99L335.456 604.851L329.801 605.168C325.031 605.401 318.425 605.635 311.136 605.735C303.847 605.835 297.225 605.735 292.438 605.735L286.783 605.585L285.249 605.502H284.715H286.783H292.455C297.225 605.502 303.83 605.502 311.12 605.502C318.409 605.502 325.014 605.201 329.784 605.034L335.439 604.834H336.99L337.524 604.751Z" fill="#263238"/>
<path d="M295.641 606.135C295.382 605.202 295.018 604.301 294.556 603.45C293.994 602.657 293.333 601.94 292.588 601.315C293.567 601.647 294.384 602.339 294.873 603.25C295.475 604.085 295.748 605.112 295.641 606.135Z" fill="#263238"/>
<path d="M304.764 601.365C304.681 601.365 304.231 600.881 303.764 600.181C303.297 599.48 302.996 598.846 303.08 598.796C303.163 598.746 303.614 599.263 304.081 599.964C304.548 600.664 304.848 601.298 304.764 601.365Z" fill="#263238"/>
<path d="M307.266 599.997C307.266 600.08 306.699 599.747 306.166 599.28C305.632 598.813 305.231 598.346 305.298 598.279C305.365 598.212 305.865 598.513 306.416 598.996C306.966 599.48 307.333 599.914 307.266 599.997Z" fill="#263238"/>
<path d="M308.818 597.045C308.286 597.243 307.715 597.318 307.15 597.262C306.589 597.333 306.02 597.282 305.482 597.111C306.015 596.917 306.585 596.843 307.15 596.895C308.084 596.928 308.818 596.928 308.818 597.045Z" fill="#263238"/>
<path d="M309.335 594.96C308.805 595.325 308.176 595.517 307.533 595.51C306.902 595.631 306.248 595.549 305.665 595.277C306.272 595.179 306.885 595.129 307.5 595.127C308.105 595.015 308.719 594.959 309.335 594.96Z" fill="#263238"/>
<path d="M303.68 598.596C303.017 598.702 302.342 598.702 301.679 598.596C300.954 598.524 300.239 598.379 299.544 598.162C299.116 598.047 298.702 597.884 298.309 597.679C298.072 597.542 297.893 597.322 297.809 597.061C297.774 596.913 297.784 596.758 297.837 596.615C297.891 596.473 297.985 596.349 298.109 596.261C298.866 595.877 299.733 595.769 300.56 595.954C301.388 596.14 302.126 596.608 302.646 597.278C302.96 597.665 303.188 598.114 303.313 598.596C303.361 598.771 303.361 598.955 303.313 599.13C303.098 598.525 302.782 597.961 302.379 597.462C301.942 596.944 301.362 596.567 300.711 596.378C300.321 596.25 299.91 596.2 299.5 596.232C299.091 596.263 298.692 596.375 298.326 596.561C298.009 596.811 298.143 597.178 298.493 597.378C298.853 597.575 299.233 597.732 299.627 597.845C300.303 598.069 300.994 598.242 301.695 598.362C302.913 598.596 303.68 598.596 303.68 598.596Z" fill="#263238"/>
<path d="M303.163 598.763C302.909 598.349 302.82 597.855 302.913 597.378C302.967 596.855 303.144 596.352 303.43 595.911C303.595 595.608 303.835 595.354 304.127 595.173C304.42 594.992 304.754 594.889 305.098 594.876C305.301 594.913 305.481 595.028 305.6 595.197C305.718 595.365 305.766 595.574 305.732 595.777C305.693 596.099 305.579 596.408 305.398 596.678C305.143 597.125 304.835 597.539 304.481 597.912C304.17 598.268 303.782 598.547 303.347 598.729C303.347 598.729 303.73 598.363 304.281 597.729C304.597 597.354 304.871 596.946 305.098 596.511C305.365 596.094 305.548 595.327 305.098 595.243C304.648 595.16 304.081 595.71 303.78 596.111C303.512 596.502 303.33 596.945 303.247 597.412C303.173 597.858 303.145 598.311 303.163 598.763Z" fill="#263238"/>
<path d="M336.807 596.244C336.807 596.244 335.923 596.244 334.522 596.344C332.68 596.57 330.941 597.318 329.51 598.501C328.08 599.683 327.017 601.25 326.448 603.016C325.981 604.351 325.948 605.251 325.881 605.251C325.849 605.041 325.849 604.827 325.881 604.617C325.925 604.051 326.031 603.492 326.198 602.949C326.739 601.107 327.825 599.472 329.314 598.26C330.803 597.048 332.625 596.316 334.538 596.161C335.093 596.102 335.652 596.102 336.206 596.161C336.607 596.161 336.823 596.211 336.807 596.244Z" fill="#263238"/>
<path d="M333.421 583.334C333.776 587.583 333.888 591.849 333.754 596.111C333.501 593.991 333.384 591.857 333.404 589.722C333.283 587.594 333.289 585.461 333.421 583.334Z" fill="#263238"/>
<path d="M321.878 602.366C320.396 602.74 318.87 602.914 317.341 602.883C315.817 602.973 314.287 602.872 312.788 602.582C312.788 602.466 314.839 602.582 317.341 602.499C319.843 602.416 321.878 602.266 321.878 602.366Z" fill="#263238"/>
<path d="M327.983 602.282C328.066 602.366 327.816 602.716 327.616 603.183C327.416 603.65 327.316 604.067 327.199 604.067C327.082 604.067 327.032 603.583 327.282 603.033C327.533 602.482 327.916 602.216 327.983 602.282Z" fill="#263238"/>
<path d="M330.252 599.397C330.252 599.397 330.118 599.797 329.801 600.131C329.484 600.464 329.167 600.664 329.101 600.598C329.034 600.531 329.217 600.197 329.534 599.864C329.851 599.53 330.168 599.33 330.252 599.397Z" fill="#263238"/>
<path d="M333.521 598.046C333.521 598.146 333.087 598.162 332.637 598.329C332.186 598.496 331.853 598.73 331.769 598.663C331.686 598.596 331.936 598.162 332.503 597.962C333.07 597.762 333.554 597.946 333.521 598.046Z" fill="#263238"/>
<path d="M335.856 597.395C335.856 597.495 335.706 597.662 335.456 597.762C335.206 597.862 334.955 597.879 334.922 597.762C334.889 597.645 335.055 597.495 335.322 597.395C335.589 597.295 335.856 597.312 335.856 597.395Z" fill="#263238"/>
<path d="M397.739 600.264L395.253 583.851L425.928 578.98L429.848 602.966L427.963 603.4C419.623 605.218 385.079 612.04 379.141 611.223C372.552 610.272 397.739 600.264 397.739 600.264Z" fill="#ECEFF1"/>
<g opacity="0.4">
<path opacity="0.4" d="M418.722 604.501C418.753 601.836 419.776 599.279 421.591 597.328C423.369 595.394 425.811 594.203 428.43 593.992L429.798 602.566L418.722 604.501Z" fill="black"/>
</g>
<g opacity="0.4">
<path opacity="0.4" d="M385.512 605.635C385.512 605.635 376.772 609.738 378.156 611.056C379.541 612.374 414.636 606.803 429.865 602.966L429.714 602.299L388.832 609.171C388.832 609.171 387.314 605.435 385.512 605.635Z" fill="black"/>
</g>
<path d="M430.215 602.199C430.049 602.27 429.876 602.32 429.698 602.349L428.196 602.683L422.642 603.8C417.955 604.734 411.466 605.918 404.294 607.136C397.122 608.354 390.533 609.188 385.796 609.772L380.175 610.439L378.64 610.589H378.106L378.623 610.489L380.158 610.255L385.762 609.488C390.5 608.821 397.021 607.82 404.227 606.736C411.433 605.652 417.938 604.434 422.575 603.583L428.146 602.566L429.664 602.299C429.844 602.25 430.029 602.216 430.215 602.199Z" fill="#263238"/>
<path d="M388.948 609.638C388.549 608.754 388.057 607.916 387.481 607.136C386.795 606.449 386.041 605.834 385.229 605.301C386.248 605.531 387.15 606.124 387.764 606.969C388.47 607.685 388.891 608.634 388.948 609.638Z" fill="#263238"/>
<path d="M397.288 603.6C397.205 603.6 396.688 603.2 396.121 602.566C395.554 601.932 395.17 601.365 395.253 601.298C395.337 601.231 395.854 601.682 396.404 602.316C396.955 602.95 397.355 603.6 397.288 603.6Z" fill="#263238"/>
<path d="M399.557 601.932C399.557 601.932 398.973 601.782 398.356 601.382C397.739 600.981 397.305 600.598 397.372 600.514C397.439 600.431 397.956 600.681 398.573 601.065C399.19 601.448 399.624 601.799 399.557 601.932Z" fill="#263238"/>
<path d="M400.674 598.729C400.194 599.002 399.658 599.162 399.106 599.196C398.564 599.352 397.994 599.38 397.438 599.28C397.922 599.017 398.457 598.863 399.006 598.83C399.547 598.665 400.118 598.63 400.674 598.729Z" fill="#263238"/>
<path d="M400.908 596.594C400.401 596.983 399.819 597.26 399.198 597.41C398.578 597.559 397.933 597.577 397.305 597.462C397.89 597.263 398.494 597.123 399.107 597.045C399.695 596.848 400.297 596.698 400.908 596.594Z" fill="#263238"/>
<path d="M395.804 601.081C395.171 601.3 394.505 601.401 393.836 601.382C393.105 601.415 392.372 601.37 391.651 601.248C391.216 601.206 390.79 601.105 390.383 600.948C390.125 600.848 389.912 600.658 389.782 600.414C389.731 600.272 389.721 600.118 389.754 599.971C389.786 599.823 389.86 599.688 389.966 599.58C390.658 599.088 391.501 598.853 392.348 598.917C393.195 598.981 393.993 599.34 394.603 599.93C394.977 600.268 395.273 600.684 395.47 601.148C395.556 601.307 395.602 601.485 395.604 601.665C395.301 601.093 394.907 600.575 394.436 600.131C393.906 599.68 393.257 599.391 392.568 599.297C392.166 599.224 391.753 599.234 391.354 599.326C390.955 599.417 390.58 599.589 390.249 599.83C389.966 600.114 390.149 600.464 390.533 600.614C390.916 600.757 391.313 600.858 391.717 600.915C392.417 601.04 393.125 601.107 393.836 601.115C395.053 601.148 395.804 601.015 395.804 601.081Z" fill="#263238"/>
<path d="M395.32 601.265C395.009 600.892 394.849 600.416 394.87 599.93C394.847 599.4 394.956 598.873 395.187 598.396C395.303 598.077 395.498 597.792 395.755 597.571C396.012 597.349 396.322 597.196 396.655 597.128C396.864 597.137 397.062 597.227 397.205 597.38C397.349 597.533 397.426 597.736 397.422 597.945C397.42 598.267 397.352 598.585 397.222 598.88C397.03 599.357 396.784 599.81 396.488 600.231C395.954 600.931 395.504 601.231 395.47 601.198C395.437 601.165 395.821 600.781 396.254 600.081C396.514 599.664 396.732 599.222 396.905 598.763C397.105 598.296 397.172 597.512 396.655 597.512C396.138 597.512 395.737 598.112 395.487 598.546C395.277 598.979 395.158 599.45 395.137 599.93C395.163 600.379 395.224 600.825 395.32 601.265Z" fill="#263238"/>
<path d="M428.247 593.892C428.247 593.892 427.363 593.892 425.995 594.326C424.223 594.839 422.622 595.819 421.358 597.162C420.129 598.535 419.304 600.22 418.972 602.032C418.705 603.417 418.806 604.317 418.739 604.317C418.672 604.317 418.655 604.1 418.639 603.7C418.581 603.146 418.581 602.587 418.639 602.032C418.905 600.14 419.737 598.372 421.026 596.961C422.315 595.55 424 594.561 425.861 594.126C426.409 593.996 426.967 593.918 427.529 593.892C428.03 593.842 428.247 593.859 428.247 593.892Z" fill="#263238"/>
<path d="M423.026 581.599C423.566 583.664 423.989 585.758 424.293 587.871C424.726 589.963 425.027 592.08 425.194 594.209C424.651 592.145 424.228 590.051 423.926 587.937C423.501 585.844 423.201 583.728 423.026 581.599Z" fill="#263238"/>
<path d="M414.369 602.115C412.955 602.702 411.468 603.095 409.949 603.283C408.452 603.595 406.922 603.713 405.395 603.633C405.395 603.533 407.413 603.333 409.882 602.916C412.351 602.499 414.335 602.015 414.369 602.115Z" fill="#263238"/>
<path d="M420.39 601.148C420.474 601.148 420.29 601.598 420.157 602.099C420.023 602.599 419.99 603.016 419.873 603.033C419.756 603.05 419.64 602.566 419.873 601.999C420.107 601.432 420.307 601.081 420.39 601.148Z" fill="#263238"/>
<path d="M422.208 597.962C422.292 597.962 422.208 598.379 421.875 598.746C421.541 599.113 421.324 599.38 421.241 599.313C421.157 599.247 421.241 598.913 421.574 598.529C421.908 598.146 422.125 597.912 422.208 597.962Z" fill="#263238"/>
<path d="M425.261 596.161C425.261 596.261 424.844 596.328 424.41 596.561C423.976 596.795 423.693 597.078 423.609 597.028C423.526 596.978 423.71 596.494 424.243 596.227C424.777 595.961 425.277 596.061 425.261 596.161Z" fill="#263238"/>
<path d="M427.463 595.26C427.463 595.36 427.362 595.544 427.129 595.677C426.895 595.811 426.662 595.861 426.595 595.76C426.528 595.66 426.695 595.494 426.945 595.36C427.196 595.227 427.413 595.093 427.463 595.26Z" fill="#263238"/>
<path d="M381.793 298.573L432.3 592.491L392.468 597.328L335.906 335.152L340.626 593.559H302.479L287.401 295.987L381.793 298.573Z" fill="#7D4ED4"/>
<path d="M438.738 211.787L425.544 134.525H425.361L430.365 117.361C430.418 116.903 430.344 116.44 430.151 116.021C429.959 115.602 429.655 115.244 429.273 114.986C428.891 114.728 428.446 114.58 427.985 114.558C427.525 114.535 427.067 114.64 426.662 114.859C426.662 114.859 426.862 110.339 422.976 111.64C422.976 111.64 422.709 106.986 419.89 108.404C419.89 108.404 418.739 104.117 416.003 107.02C415.553 107.503 407.463 117.144 407.463 117.144L408.514 135.242L408.648 137.477V137.561L412.134 197.459L399.891 184.382L377.89 206.733L405.312 229.818C408.445 232.444 412.295 234.068 416.362 234.479C420.429 234.891 424.526 234.071 428.122 232.125C431.717 230.18 434.646 227.2 436.527 223.57C438.408 219.94 439.155 215.829 438.672 211.77L438.738 211.787Z" fill="#EB996E"/>
<path d="M416.17 93.5923L402.826 65.4532L387.814 72.5255L401.158 100.681C402.015 102.458 403.474 103.874 405.275 104.677C407.077 105.48 409.105 105.619 410.999 105.068L429.347 143.816C425.911 145.484 423.409 147.052 423.576 147.419C423.743 147.786 427.162 146.601 431.182 144.717C435.202 142.832 438.288 140.964 438.088 140.563C437.888 140.163 435.135 141.164 431.649 142.732L413.301 103.984C414.932 102.872 416.115 101.217 416.64 99.314C417.166 97.4112 416.999 95.3838 416.17 93.5923Z" fill="#E0E0E0"/>
<path d="M395.771 86.6034C396.414 86.0995 397.184 85.7817 397.996 85.6847C398.807 85.5876 399.63 85.715 400.374 86.053C401.537 86.8281 402.93 87.1799 404.321 87.0493C405.712 86.9187 407.016 86.3137 408.014 85.3357C408.931 84.7186 408.898 84.2015 409.999 84.4017C409.999 84.4017 415.003 94.0927 415.27 97.3453C415.67 102.183 407.48 106.503 403.493 101.715C401.192 98.9466 395.771 86.6034 395.771 86.6034Z" fill="#ECEFF1"/>
<path d="M421.408 132.84C421.791 130.916 421.584 128.921 420.813 127.117C420.042 125.313 418.743 123.785 417.088 122.732C416.554 122.489 416.093 122.109 415.753 121.631C415.519 120.985 415.519 120.276 415.753 119.63C416.222 117.71 416.347 115.722 416.12 113.758C415.998 112.776 415.669 111.831 415.154 110.986C414.639 110.14 413.951 109.414 413.134 108.855L408.364 122.465" fill="#EB996E"/>
<path d="M408.314 122.465C408.576 121.132 408.944 119.821 409.415 118.546C410.199 116.11 411.333 112.674 412.751 108.721L412.901 108.237L413.351 108.504C414.314 109.137 415.116 109.985 415.695 110.981C416.274 111.976 416.613 113.093 416.687 114.242C416.805 115.681 416.727 117.128 416.454 118.546C416.237 119.897 415.687 121.248 416.571 121.882C416.988 122.199 417.571 122.516 418.072 122.882C418.544 123.245 418.98 123.653 419.373 124.1C420.068 124.901 420.631 125.808 421.041 126.786C421.665 128.189 421.934 129.724 421.825 131.256C421.835 131.831 421.715 132.401 421.474 132.924C421.437 132.368 421.437 131.811 421.474 131.256C421.451 129.799 421.109 128.364 420.474 127.052C420.045 126.16 419.483 125.339 418.806 124.617C418.42 124.216 418.002 123.848 417.555 123.516C417.104 123.183 416.587 122.949 416.02 122.516C415.708 122.276 415.471 121.952 415.336 121.581C415.216 121.216 415.176 120.829 415.219 120.447C415.219 119.73 415.47 119.113 415.57 118.446C415.821 117.104 415.888 115.735 415.77 114.376C415.718 113.363 415.435 112.375 414.944 111.488C414.452 110.6 413.765 109.837 412.934 109.255L413.535 109.038C412.134 112.991 410.883 116.377 409.965 118.763C409.534 120.046 408.981 121.286 408.314 122.465Z" fill="#D1734A"/>
<path d="M429.014 121.548C429.014 121.548 429.231 121.882 428.88 122.382C428.641 122.655 428.319 122.843 427.963 122.916C427.716 122.941 427.466 122.91 427.233 122.827C426.999 122.743 426.787 122.608 426.612 122.432C426.197 122.021 425.937 121.479 425.878 120.898C425.786 120.273 425.786 119.638 425.878 119.013C425.878 118.379 425.995 117.712 426.061 117.028C426.061 116.677 426.061 116.327 426.145 115.96V115.41V114.876C426.145 114.876 426.262 114.559 426.412 114.526C426.467 114.5 426.526 114.487 426.587 114.487C426.647 114.487 426.707 114.5 426.762 114.526C426.83 114.565 426.887 114.621 426.928 114.688C426.969 114.755 426.992 114.831 426.996 114.909C426.816 116.038 426.559 117.152 426.228 118.245C425.988 119.228 425.513 120.138 424.844 120.898C424.63 121.112 424.362 121.264 424.068 121.337C423.774 121.411 423.465 121.403 423.176 121.315C422.901 121.214 422.662 121.036 422.487 120.802C422.312 120.568 422.21 120.288 422.192 119.997C422.192 118.195 422.408 116.811 422.509 115.527C422.55 114.165 422.735 112.813 423.059 111.49C423.202 112.843 423.202 114.207 423.059 115.56C423.059 116.778 422.892 118.379 422.926 119.897C422.926 120.247 423.126 120.464 423.343 120.514C423.491 120.549 423.647 120.545 423.793 120.501C423.94 120.457 424.072 120.375 424.177 120.264C424.711 119.597 425.098 118.823 425.311 117.995C425.628 116.911 425.878 115.827 426.078 114.826H426.228C426.228 114.826 426.362 114.943 426.428 114.926C426.495 114.909 426.428 114.776 426.428 114.843C426.428 114.909 426.595 114.843 426.795 114.843C426.995 114.843 426.795 114.843 426.795 114.843V115.076V115.36V115.91L426.695 116.994C426.695 117.695 426.528 118.362 426.428 118.996C426.26 119.481 426.205 119.998 426.269 120.507C426.332 121.016 426.512 121.504 426.795 121.932C426.887 122.063 427.006 122.172 427.145 122.252C427.284 122.331 427.438 122.379 427.598 122.392C427.757 122.405 427.918 122.382 428.067 122.325C428.217 122.269 428.352 122.18 428.463 122.065C428.997 121.848 428.947 121.548 429.014 121.548Z" fill="#D1734A"/>
<path d="M416.003 108.204C416.003 109.672 416.154 111.156 416.22 112.624C416.227 113.393 416.345 114.157 416.571 114.893C416.677 115.267 416.868 115.611 417.128 115.901C417.388 116.19 417.711 116.415 418.072 116.561C418.434 116.682 418.828 116.676 419.186 116.542C419.544 116.409 419.846 116.156 420.04 115.827" fill="#EB996E"/>
<path d="M420.04 115.76C420.04 115.76 420.04 115.977 419.906 116.244C419.76 116.43 419.576 116.582 419.366 116.692C419.156 116.801 418.925 116.864 418.689 116.878C418.336 116.903 417.983 116.843 417.658 116.704C417.333 116.565 417.046 116.35 416.821 116.077C416.288 115.451 415.962 114.677 415.887 113.858C415.604 111.964 415.644 110.035 416.003 108.154C416.516 109.972 416.769 111.853 416.754 113.742C416.871 115.21 417.805 116.277 418.672 116.277C419.54 116.277 419.94 115.693 420.04 115.76Z" fill="#D1734A"/>
<path d="M422.959 117.878C422.959 117.878 422.859 118.062 422.592 118.262C422.192 118.546 421.728 118.724 421.241 118.779C420.854 118.803 420.47 118.691 420.157 118.462C419.81 118.195 419.563 117.819 419.456 117.395C419.284 116.555 419.245 115.694 419.339 114.843C419.291 112.744 419.544 110.648 420.09 108.621C420.407 110.697 420.447 112.806 420.207 114.893C420.114 115.657 420.114 116.43 420.207 117.194C420.24 117.448 420.359 117.682 420.545 117.858C420.73 118.034 420.97 118.141 421.224 118.162C422.208 118.212 422.909 117.728 422.959 117.878Z" fill="#D1734A"/>
<path d="M416.854 209.185C414.409 205.535 412.787 201.397 412.1 197.058C413.005 199.037 413.802 201.064 414.486 203.13C415.388 205.102 416.179 207.123 416.854 209.185Z" fill="#D1734A"/>
<path d="M322.629 72.5922C322.629 72.5922 346.131 39.9494 349.6 43.2187C352.803 46.2211 354.704 79.798 354.704 79.798C354.704 79.798 331.036 82.1665 322.629 72.5922Z" fill="#D2D5FF"/>
<path d="M333.337 59.9821C332.87 60.1155 332.503 61.2831 332.87 62.0171C332.97 62.193 333.105 62.3472 333.265 62.4705C333.426 62.5938 333.609 62.6838 333.805 62.7351C334.001 62.7864 334.205 62.798 334.405 62.7692C334.606 62.7404 334.798 62.6718 334.972 62.5675C335.308 62.329 335.537 61.9678 335.608 61.562C335.68 61.1562 335.589 60.7384 335.356 60.3991C335.09 60.0873 334.718 59.8843 334.312 59.829C333.906 59.7736 333.494 59.8697 333.154 60.0989" fill="#FAFAFA"/>
<path d="M339.876 73.0592C339.426 73.176 339.042 74.3436 339.409 75.0775C339.509 75.2558 339.644 75.412 339.806 75.5368C339.968 75.6616 340.153 75.7524 340.351 75.8038C340.549 75.8552 340.755 75.8661 340.957 75.8359C341.159 75.8057 341.353 75.735 341.527 75.628C341.861 75.3869 342.086 75.0245 342.155 74.6189C342.223 74.2132 342.13 73.7969 341.894 73.4596C341.626 73.1504 341.253 72.9506 340.847 72.8983C340.441 72.846 340.03 72.9449 339.692 73.176" fill="#FAFAFA"/>
<path d="M347.532 63.9687C347.065 64.1021 346.698 65.2697 347.065 66.0036C347.165 66.1796 347.299 66.3338 347.46 66.4571C347.62 66.5804 347.804 66.6704 348 66.7216C348.196 66.7729 348.4 66.7845 348.6 66.7557C348.8 66.727 348.993 66.6584 349.167 66.5541C349.503 66.3156 349.731 65.9544 349.803 65.5486C349.875 65.1428 349.784 64.725 349.55 64.3857C349.284 64.0739 348.913 63.8709 348.507 63.8155C348.101 63.7602 347.688 63.8562 347.348 64.0854" fill="#FAFAFA"/>
<path d="M347.432 45.7708C346.982 45.8876 346.598 47.0552 346.965 47.7891C347.067 47.9656 347.202 48.1201 347.364 48.2436C347.526 48.3671 347.711 48.4571 347.909 48.5084C348.106 48.5596 348.311 48.5711 348.513 48.5421C348.715 48.5131 348.908 48.4442 349.083 48.3395C349.397 48.0841 349.607 47.7233 349.675 47.3244C349.742 46.9255 349.662 46.5156 349.45 46.1711C349.184 45.8593 348.813 45.6564 348.407 45.601C348 45.5456 347.588 45.6417 347.248 45.8709" fill="#FAFAFA"/>
<path d="M340.326 52.5429C339.876 52.6596 339.492 53.8272 339.859 54.5611C339.961 54.7377 340.097 54.8922 340.259 55.0157C340.421 55.1392 340.606 55.2292 340.803 55.2804C341 55.3316 341.206 55.3431 341.407 55.3141C341.609 55.2851 341.803 55.2163 341.978 55.1116C342.291 54.8561 342.502 54.4953 342.569 54.0964C342.637 53.6975 342.557 53.2876 342.345 52.9432C342.079 52.6314 341.707 52.4284 341.301 52.373C340.895 52.3176 340.483 52.4137 340.143 52.6429" fill="#FAFAFA"/>
<path d="M331.336 72.5421C331.052 72.5421 330.819 73.3595 331.052 73.8265C331.116 73.9379 331.201 74.0355 331.303 74.1136C331.405 74.1917 331.522 74.2487 331.646 74.2813C331.77 74.3139 331.9 74.3214 332.027 74.3035C332.154 74.2856 332.276 74.2425 332.387 74.1768C332.598 74.0259 332.742 73.7973 332.785 73.541C332.829 73.2848 332.77 73.0216 332.62 72.809C332.456 72.6083 332.223 72.4764 331.967 72.4394C331.71 72.4023 331.45 72.4628 331.236 72.6089" fill="#FAFAFA"/>
<path d="M348.183 74.844C347.882 74.844 347.649 75.6613 347.882 76.1117C347.946 76.2231 348.031 76.3207 348.133 76.3988C348.235 76.4769 348.352 76.5339 348.476 76.5665C348.6 76.5991 348.73 76.6067 348.857 76.5887C348.984 76.5708 349.106 76.5277 349.217 76.462C349.428 76.3111 349.572 76.0825 349.615 75.8263C349.659 75.57 349.6 75.3068 349.45 75.0942C349.286 74.8928 349.052 74.7616 348.794 74.7275C348.537 74.6933 348.276 74.7589 348.066 74.9107" fill="#FAFAFA"/>
<path d="M329.017 67.1879C328.734 67.2713 328.483 68.0052 328.717 68.4723C328.781 68.5837 328.866 68.6813 328.968 68.7594C329.07 68.8375 329.187 68.8945 329.311 68.9271C329.435 68.9597 329.564 68.9672 329.692 68.9493C329.819 68.9313 329.941 68.8883 330.051 68.8226C330.263 68.6716 330.406 68.4431 330.45 68.1868C330.494 67.9305 330.435 67.6674 330.285 67.4548C330.121 67.2541 329.888 67.1222 329.632 67.0851C329.375 67.048 329.114 67.1085 328.9 67.2546" fill="#FAFAFA"/>
<path d="M339.843 64.6692C339.559 64.6692 339.325 65.4866 339.559 65.9536C339.623 66.065 339.708 66.1626 339.81 66.2407C339.912 66.3188 340.029 66.3758 340.153 66.4084C340.277 66.441 340.406 66.4485 340.534 66.4306C340.661 66.4127 340.783 66.3696 340.893 66.3039C341.101 66.1503 341.242 65.922 341.286 65.667C341.329 65.412 341.272 65.1501 341.127 64.9361C340.963 64.7309 340.726 64.596 340.466 64.5588C340.206 64.5216 339.941 64.585 339.726 64.736" fill="#FAFAFA"/>
<path d="M348.199 55.8955C347.916 55.8955 347.665 56.7128 347.899 57.1799C347.962 57.2916 348.048 57.3893 348.15 57.4671C348.253 57.5448 348.37 57.601 348.495 57.6322C348.619 57.6634 348.749 57.6689 348.876 57.6485C349.003 57.6281 349.125 57.5822 349.233 57.5135C349.445 57.3626 349.588 57.134 349.632 56.8778C349.676 56.6215 349.616 56.3583 349.467 56.1457C349.303 55.9443 349.068 55.8131 348.811 55.779C348.554 55.7449 348.293 55.8104 348.082 55.9622" fill="#FAFAFA"/>
<path d="M376.422 206.066L378.39 251.452L385.662 303.16H287.25C287.25 303.16 287.034 290.95 287.934 273.97C289.185 250.117 290.386 216.04 290.386 216.04L285.883 224.714C281.319 220.064 277.031 215.151 273.039 210.002L274.424 208.818L264.099 188.802L282.88 167.568C287.759 161.978 293.723 157.438 300.411 154.224C303.864 152.556 305.181 152.556 312.954 151.455C316.607 150.955 319.376 150.721 321.178 150.488C331.561 153.765 342.703 153.765 353.086 150.488C354.337 150.488 355.538 150.638 356.723 150.771L364.529 152.589C373.597 154.772 381.791 159.652 388.031 166.584L408.864 189.369L386.446 214.289L376.422 206.066Z" fill="#D2D5FF"/>
<path d="M290.169 231.202C290.543 228.935 290.755 226.644 290.803 224.347C291.07 220.127 291.471 214.339 291.988 207.85C292.505 201.362 293.105 195.574 293.522 191.354C293.854 189.09 294.016 186.804 294.006 184.515C293.392 186.727 292.968 188.987 292.738 191.27C292.121 195.474 291.437 201.278 290.903 207.75C290.37 214.222 290.103 220.077 290.019 224.313C289.863 226.61 289.913 228.915 290.169 231.202Z" fill="#263238"/>
<path d="M393.485 172.539C393.268 172.885 392.992 173.19 392.668 173.439C391.716 174.198 390.548 174.636 389.332 174.69C387.467 174.745 385.608 174.463 383.844 173.856C381.569 173.03 379.342 172.078 377.172 171.004C374.553 169.781 371.72 169.084 368.832 168.953C365.487 168.913 362.157 169.42 358.974 170.454C355.449 171.614 352.019 173.047 348.716 174.74C345.263 176.408 341.711 178.41 337.924 180.061C334.217 181.76 330.285 182.917 326.248 183.497C322.463 184.012 318.61 183.57 315.039 182.213C311.888 180.915 308.907 179.234 306.166 177.209C303.58 175.358 301.162 173.556 299.01 172.055C297.033 170.675 294.914 169.512 292.688 168.586C291.007 167.905 289.227 167.5 287.417 167.385C285.863 167.343 284.309 167.466 282.78 167.752C284.268 167.205 285.851 166.966 287.434 167.051C289.289 167.104 291.122 167.471 292.855 168.135C295.139 169.028 297.316 170.175 299.343 171.555C301.629 173.022 303.997 174.807 306.583 176.559C309.282 178.543 312.218 180.185 315.323 181.446C318.776 182.737 322.497 183.144 326.148 182.63C330.073 182.059 333.897 180.936 337.507 179.294C341.26 177.626 344.796 175.741 348.283 174.007C351.62 172.29 355.096 170.856 358.674 169.72C361.936 168.662 365.354 168.166 368.782 168.252C371.776 168.398 374.709 169.147 377.406 170.454C379.57 171.567 381.798 172.553 384.078 173.406C385.78 174.041 387.582 174.363 389.399 174.357C390.543 174.325 391.65 173.941 392.568 173.256C393.185 172.839 393.452 172.505 393.485 172.539Z" fill="white"/>
<path d="M401.175 181.129C401.114 181.617 400.956 182.088 400.708 182.513C400.009 183.755 398.951 184.755 397.672 185.382C395.659 186.362 393.438 186.837 391.2 186.767C388.322 186.583 385.432 186.83 382.627 187.501C379.321 188.631 376.255 190.367 373.586 192.621C370.495 195.249 367.254 197.694 363.878 199.944C359.822 202.372 355.217 203.733 350.492 203.902C345.767 204.072 341.077 203.043 336.857 200.911C332.42 198.61 328.684 195.44 324.313 193.989C320.08 192.712 315.641 192.259 311.236 192.655C306.983 192.872 302.896 193.305 299.093 193.305C290.331 193.289 281.812 190.42 274.824 185.132C273.72 184.289 272.668 183.381 271.671 182.413C271.312 182.083 270.977 181.726 270.671 181.346C271.064 181.632 271.437 181.944 271.788 182.28C272.505 182.897 273.573 183.798 275.024 184.865C279.155 187.833 283.797 190.015 288.718 191.304C292.105 192.184 295.594 192.611 299.093 192.571C302.88 192.571 306.899 192.104 311.186 191.854C315.679 191.432 320.21 191.885 324.53 193.189C329.084 194.706 332.87 197.909 337.19 200.127C341.278 202.199 345.823 203.206 350.404 203.054C354.984 202.902 359.452 201.598 363.395 199.26C366.755 197.037 369.99 194.632 373.086 192.054C375.831 189.762 378.99 188.018 382.393 186.917C385.258 186.268 388.204 186.048 391.134 186.266C393.305 186.378 395.472 185.973 397.455 185.082C398.702 184.51 399.756 183.589 400.491 182.43C401.025 181.596 401.125 181.112 401.175 181.129Z" fill="white"/>
<path d="M376.205 219.476C375.975 219.686 375.723 219.87 375.454 220.027C374.937 220.36 374.187 220.844 373.203 221.445C370.415 223.166 367.524 224.715 364.546 226.082C360.136 228.231 355.321 229.425 350.418 229.584C347.509 229.585 344.622 229.094 341.877 228.133C338.973 227.07 336.157 225.782 333.454 224.28C330.668 222.796 327.983 221.294 325.281 220.11C322.685 218.969 319.988 218.075 317.224 217.441C312.536 216.359 307.708 216.01 302.913 216.407C299.681 216.679 296.484 217.277 293.372 218.192C291.154 218.826 290.036 219.31 289.936 219.226C290.199 219.063 290.478 218.929 290.77 218.826C291.337 218.576 292.154 218.225 293.255 217.858C296.371 216.814 299.593 216.12 302.863 215.79C310.624 215.006 318.457 216.224 325.614 219.326C328.367 220.527 331.085 222.028 333.854 223.513C336.533 224.992 339.321 226.263 342.194 227.316C344.87 228.279 347.691 228.776 350.534 228.784C355.333 228.649 360.054 227.543 364.412 225.531C368.198 223.863 371.084 222.195 373.136 221.144L375.471 219.877C375.698 219.714 375.945 219.579 376.205 219.476Z" fill="white"/>
<path d="M378.874 254.988C378.874 254.988 377.623 254.638 375.354 254.204C372.122 253.646 368.81 253.737 365.613 254.471C361.526 255.255 356.773 256.656 351.435 258.141C348.645 258.919 345.817 259.554 342.962 260.042C339.871 260.519 336.748 260.764 333.621 260.776C320.727 260.776 309.502 257.14 301.629 254.471C297.675 253.103 294.523 251.886 292.355 251.035L289.853 250.017C289.559 249.919 289.279 249.784 289.019 249.617C289.328 249.654 289.631 249.732 289.919 249.851L292.471 250.718C294.673 251.469 297.859 252.603 301.829 253.887C309.735 256.406 320.911 259.909 333.621 259.909C336.697 259.899 339.769 259.665 342.812 259.208C345.649 258.732 348.46 258.114 351.235 257.357C356.556 255.922 361.376 254.588 365.496 253.87C368.795 253.161 372.206 253.161 375.504 253.87C376.378 254.077 377.241 254.327 378.09 254.621C378.366 254.71 378.629 254.833 378.874 254.988Z" fill="white"/>
<path d="M380.759 280.375C380.427 280.423 380.09 280.423 379.758 280.375H378.557C378.073 280.375 377.523 280.242 376.889 280.158C373.419 279.508 370.082 278.285 367.014 276.539C363.061 274.554 358.674 271.535 353.02 270.05C350.098 269.286 347.052 269.115 344.063 269.55C340.852 270.086 337.724 271.033 334.755 272.369C328.6 275.037 322.979 278.34 317.308 280.075C312.337 281.738 307.12 282.55 301.879 282.477C298.351 282.382 294.851 281.821 291.471 280.809C290.286 280.458 289.369 280.158 288.768 279.908C288.452 279.799 288.146 279.665 287.851 279.508C287.851 279.408 289.169 279.891 291.554 280.492C294.931 281.335 298.398 281.772 301.879 281.793C307.044 281.762 312.17 280.895 317.058 279.224C322.612 277.556 328.183 274.22 334.422 271.485C337.458 270.121 340.66 269.162 343.946 268.632C347.043 268.188 350.197 268.375 353.22 269.183C358.991 270.851 363.411 273.886 367.298 275.855C370.3 277.621 373.558 278.909 376.956 279.674L378.624 279.975L379.824 280.091C380.142 280.163 380.455 280.258 380.759 280.375Z" fill="white"/>
<path d="M383.211 297.138C383.062 297.452 382.871 297.744 382.643 298.006C382.038 298.787 381.325 299.477 380.525 300.057C377.466 302.099 373.82 303.078 370.15 302.843C365.48 302.843 360.276 300.775 354.738 298.506C351.875 297.262 348.897 296.301 345.847 295.637L343.429 295.203C342.628 295.053 341.761 295.053 340.96 294.97C339.268 294.836 337.569 294.803 335.873 294.87C329.388 295.363 322.949 296.333 316.607 297.772C311.381 298.934 306.072 299.681 300.728 300.007C297.111 300.154 293.492 299.806 289.969 298.973C288.752 298.623 287.818 298.273 287.184 298.056C286.85 297.973 286.53 297.844 286.233 297.672C286.574 297.707 286.909 297.779 287.234 297.889L290.053 298.656C293.562 299.336 297.142 299.582 300.711 299.39C306.007 298.981 311.264 298.178 316.44 296.988C322.824 295.486 329.316 294.487 335.856 294.002C337.586 293.935 339.318 293.969 341.043 294.103C341.894 294.186 342.711 294.203 343.562 294.353L346.031 294.803C349.129 295.487 352.152 296.476 355.055 297.755C360.592 300.074 365.646 302.142 370.183 302.242C373.746 302.523 377.305 301.658 380.342 299.774C381.4 299.013 382.363 298.128 383.211 297.138Z" fill="white"/>
<g opacity="0.3">
<path opacity="0.3" d="M374.62 191.604C374.62 191.604 367.365 224.797 369.616 235.789C371.868 246.781 381.292 277.773 381.292 277.773L377.956 253.687L376.522 219.143L374.62 191.604Z" fill="black"/>
</g>
<path d="M374.804 190.12C374.528 191.677 374.444 193.262 374.554 194.84C374.554 197.742 374.737 201.762 375.071 206.199C375.404 210.636 375.838 214.622 376.255 217.508C376.367 219.082 376.681 220.635 377.189 222.128C377.312 220.559 377.256 218.981 377.022 217.425C376.772 214.089 376.488 210.302 376.172 206.116C375.855 201.929 375.588 198.126 375.338 194.807C375.336 193.229 375.156 191.657 374.804 190.12Z" fill="#263238"/>
<g opacity="0.3">
<path opacity="0.3" d="M292.488 191.971C290.983 196.153 288.942 200.123 286.416 203.78C284.098 207.55 281.996 210.736 281.162 215.089C280.328 219.443 282.697 221.678 285.866 224.78C288.401 219.893 290.553 215.907 290.553 215.907C290.787 209.735 291.671 198.66 292.705 191.971" fill="black"/>
</g>
</g>
<defs>
<filter id="filter0_d" x="0.340942" y="0.000854492" width="442.474" height="619.29" filterUnits="userSpaceOnUse" color-interpolation-filters="sRGB">
<feFlood flood-opacity="0" result="BackgroundImageFix"/>
<feColorMatrix in="SourceAlpha" type="matrix" values="0 0 0 0 0 0 0 0 0 0 0 0 0 0 0 0 0 0 127 0"/>
<feOffset dy="4"/>
<feGaussianBlur stdDeviation="2"/>
<feColorMatrix type="matrix" values="0 0 0 0 0 0 0 0 0 0 0 0 0 0 0 0 0 0 0.25 0"/>
<feBlend mode="normal" in2="BackgroundImageFix" result="effect1_dropShadow"/>
<feBlend mode="normal" in="SourceGraphic" in2="effect1_dropShadow" result="shape"/>
</filter>
</defs>
</svg>
